SplineFontDB: 3.0
FontName: Jost-Semi
FullName: Jost* 600 Semi
FamilyName: Jost*
Weight: Semi
Copyright: Copyright (c) 2018, Owen Earl,,,
UComments: "2018-6-8: Created with FontForge (http://fontforge.org)"
Version: 003.300
ItalicAngle: 0
UnderlinePosition: -100
UnderlineWidth: 50
Ascent: 800
Descent: 200
InvalidEm: 0
LayerCount: 2
Layer: 0 0 "Back" 1
Layer: 1 0 "Fore" 0
PreferredKerning: 4
XUID: [1021 69 1495626776 9435324]
FSType: 0
OS2Version: 0
OS2_WeightWidthSlopeOnly: 0
OS2_UseTypoMetrics: 0
CreationTime: 1528479894
ModificationTime: 1577665548
PfmFamily: 17
TTFWeight: 600
TTFWidth: 5
LineGap: 100
VLineGap: 0
OS2TypoAscent: 825
OS2TypoAOffset: 0
OS2TypoDescent: -225
OS2TypoDOffset: 0
OS2TypoLinegap: 100
OS2WinAscent: 900
OS2WinAOffset: 0
OS2WinDescent: 300
OS2WinDOffset: 0
HheadAscent: 1030
HheadAOffset: 0
HheadDescent: -350
HheadDOffset: 0
OS2CapHeight: 700
OS2XHeight: 460
OS2Vendor: 'PfEd'
Lookup: 1 0 0 "alt a" { "alt a"  } ['ss01' ('DFLT' <'dflt' > 'latn' <'dflt' > ) ]
Lookup: 1 0 0 "Tabular Numbers lookup" { "Tabular Numbers lookup"  } ['tnum' ('DFLT' <'dflt' > 'grek' <'dflt' > 'latn' <'dflt' > ) ]
Lookup: 258 0 0 "Lets get our kern on" { "kernin like nobodys business" [150,0,4] } ['kern' ('DFLT' <'dflt' > 'latn' <'dflt' > ) ]
MarkAttachClasses: 1
DEI: 91125
KernClass2: 16 14 "kernin like nobodys business"
 43 slash seven V W Wcircumflex uni040E uni0423
 175 quotedbl quotesingle asterisk grave dieresis ordfeminine macron degree acute ordmasculine circumflex breve dotaccent ring tilde quoteleft quoteright quotedblleft quotedblright
 25 nine question F P uni0420
 131 A L backslash Agrave Aacute Acircumflex Atilde Adieresis Aring Amacron Abreve Aogonek Lacute uni013B Lslash uni0410 uni0414 uni041C
 58 three eight B C germandbls uni0411 uni0412 uni0417 uni0421
 29 K X Z uni0416 uni041A uni0425
 157 at D G O Ograve Oacute Ocircumflex Otilde Odieresis Oslash Dcaron Dcroat Gcircumflex Gbreve Gdotaccent uni0122 Omacron Obreve uni041E uni0424 uni042D uni042E

StartChar: H
Encoding: 72 72 0
GlifName: H_
Width: 718
VWidth: 0
Flags: HMW
LayerCount: 2
Fore
SplineSet
164 308 m 1
 208 438 l 1
 698 438 l 1
 654 308 l 1
 164 308 l 1
695 700 m 1
 838 700 l 1
 596 0 l 1
 458 0 l 1
 695 700 l 1
253 700 m 1
 395 700 l 1
 154 0 l 1
 16 0 l 1
 253 700 l 1
EndSplineSet
EndChar

StartChar: O
Encoding: 79 79 1
GlifName: O_
Width: 763
VWidth: 0
Flags: HMW
LayerCount: 2
Fore
SplineSet
244 350 m 0
 207 248 232 123 360 121 c 0
 492 119 607 234 650 350 c 0
 688 452 663 577 534 579 c 0
 402 581 286 466 244 350 c 0
96 350 m 0
 158 546 352 714 562 714 c 0
 766 714 855 531 798 350 c 0
 736 154 542 -19 330 -18 c 0
 124 -17 39 169 96 350 c 0
EndSplineSet
EndChar

StartChar: I
Encoding: 73 73 2
GlifName: I_
Width: 279
VWidth: 0
Flags: HMW
LayerCount: 2
Fore
SplineSet
253 700 m 1
 397 700 l 1
 156 0 l 1
 16 0 l 1
 253 700 l 1
EndSplineSet
EndChar

StartChar: C
Encoding: 67 67 3
GlifName: C_
Width: 654
VWidth: 0
Flags: HMW
LayerCount: 2
Fore
SplineSet
248 350 m 0
 209 245 246 128 372 125 c 0
 460 123 542 170 612 218 c 1
 564 58 l 1
 494 15 419 -14 336 -14 c 0
 132 -12 38 168 96 350 c 0
 159 548 354 712 566 714 c 0
 640 714 702 689 758 640 c 1
 708 480 l 1
 670 542 617 575 543 575 c 0
 413 574 292 468 248 350 c 0
EndSplineSet
EndChar

StartChar: E
Encoding: 69 69 4
GlifName: E_
Width: 552
VWidth: 0
Flags: HMW
LayerCount: 2
Fore
SplineSet
102 0 m 1
 144 122 l 1
 482 122 l 1
 440 0 l 1
 102 0 l 1
300 578 m 1
 342 700 l 1
 679 700 l 1
 637 578 l 1
 300 578 l 1
210 312 m 1
 250 431 l 1
 568 431 l 1
 526 312 l 1
 210 312 l 1
253 700 m 1
 390 700 l 1
 150 0 l 1
 16 0 l 1
 253 700 l 1
EndSplineSet
EndChar

StartChar: F
Encoding: 70 70 6
GlifName: F_
Width: 505
VWidth: 0
Flags: HMW
LayerCount: 2
Fore
SplineSet
299 574 m 1
 342 700 l 1
 641 700 l 1
 598 574 l 1
 299 574 l 1
204 299 m 1
 246 418 l 1
 536 418 l 1
 494 298 l 1
 204 299 l 1
253 700 m 1
 390 700 l 1
 150 0 l 1
 16 0 l 1
 253 700 l 1
EndSplineSet
EndChar

StartChar: G
Encoding: 71 71 7
GlifName: G_
Width: 754
VWidth: 0
Flags: HMW
LayerCount: 2
Fore
SplineSet
422 260 m 1
 463 374 l 1
 788 374 l 1
 726 174 573 -18 339 -18 c 0
 132 -18 37 167 96 350 c 0
 160 550 357 714 571 714 c 0
 687 714 772 656 818 552 c 1
 681 483 l 1
 659 547 614 585 544 585 c 0
 408 585 287 471 243 350 c 0
 204 243 231 111 365 111 c 0
 472 111 543 178 601 260 c 1
 422 260 l 1
EndSplineSet
EndChar

StartChar: T
Encoding: 84 84 8
GlifName: T_
Width: 500
VWidth: 0
Flags: HMW
LayerCount: 2
Fore
SplineSet
142 570 m 1
 188 700 l 1
 684 700 l 1
 638 570 l 1
 462 570 l 1
 266 0 l 1
 126 0 l 1
 321 570 l 1
 142 570 l 1
EndSplineSet
EndChar

StartChar: L
Encoding: 76 76 9
GlifName: L_
Width: 474
VWidth: 0
Flags: HMW
LayerCount: 2
Fore
SplineSet
254 700 m 1
 395 700 l 1
 198 126 l 1
 461 126 l 1
 417 0 l 1
 14 0 l 1
 254 700 l 1
EndSplineSet
EndChar

StartChar: D
Encoding: 68 68 10
GlifName: D_
Width: 674
VWidth: 0
Flags: HMW
LayerCount: 2
Fore
SplineSet
253 700 m 1
 398 700 l 1
 158 0 l 1
 16 0 l 1
 253 700 l 1
250 0 m 2
 101 0 l 1
 147 131 l 1
 274 131 l 2
 408 131 519 226 565 350 c 0
 607 463 568 570 440 570 c 2
 296 570 l 1
 342 700 l 1
 472 700 l 2
 672 700 769 537 709 350 c 0
 645 150 460 0 250 0 c 2
EndSplineSet
EndChar

StartChar: Q
Encoding: 81 81 11
GlifName: Q_
Width: 791
VWidth: 0
Flags: HMW
LayerCount: 2
Fore
SplineSet
244 350 m 0
 206 244 236 114 368 112 c 0
 499 110 614 220 658 336 c 0
 697 442 671 577 536 579 c 0
 404 581 287 467 244 350 c 0
96 350 m 0
 158 546 355 715 565 714 c 0
 769 713 855 530 798 350 c 0
 736 154 544 -19 332 -18 c 0
 126 -17 39 169 96 350 c 0
394 300 m 1
 532 300 l 1
 734 -8 l 1
 592 -8 l 1
 394 300 l 1
EndSplineSet
EndChar

StartChar: A
Encoding: 65 65 12
GlifName: A_
Width: 669
VWidth: 0
Flags: HMW
LayerCount: 2
Fore
SplineSet
161 158 m 1
 216 271 l 1
 536 271 l 1
 513 158 l 1
 161 158 l 1
444 472 m 1
 266 230 l 1
 259 198 l 1
 104 0 l 1
 -60 0 l 1
 533 746 l 1
 614 0 l 1
 464 0 l 1
 448 193 l 1
 459 229 l 1
 444 472 l 1
EndSplineSet
EndChar

StartChar: R
Encoding: 82 82 13
GlifName: R_
Width: 583
VWidth: 0
Flags: HMW
LayerCount: 2
Fore
SplineSet
280 326 m 1
 419 326 l 1
 522 0 l 1
 368 0 l 1
 280 326 l 1
253 700 m 1
 395 700 l 1
 154 0 l 1
 16 0 l 1
 253 700 l 1
296 576 m 1
 338 700 l 1
 470 700 l 2
 600 700 687 610 651 476 c 0
 613 337 473 254 334 254 c 2
 183 254 l 1
 224 368 l 1
 348 368 l 2
 414 368 482 408 506 473 c 0
 528 533 495 576 435 576 c 2
 296 576 l 1
EndSplineSet
EndChar

StartChar: V
Encoding: 86 86 14
GlifName: V_
Width: 669
VWidth: 0
Flags: HMW
LayerCount: 2
Fore
SplineSet
373 249 m 1
 690 699 l 1
 858 699 l 1
 290 -46 l 1
 184 700 l 1
 338 700 l 1
 373 249 l 1
EndSplineSet
EndChar

StartChar: M
Encoding: 77 77 15
GlifName: M_
Width: 815
VWidth: 0
Flags: HMW
LayerCount: 2
Fore
SplineSet
301 390 m 1
 124 0 l 1
 -26 0 l 1
 326 736 l 1
 446 288 l 1
 885 744 l 1
 728 0 l 1
 584 0 l 1
 675 380 l 1
 378 62 l 1
 301 390 l 1
EndSplineSet
EndChar

StartChar: W
Encoding: 87 87 16
GlifName: W_
Width: 980
VWidth: 0
Flags: HMW
LayerCount: 2
Fore
SplineSet
719 257 m 1
 994 700 l 1
 1162 699 l 1
 654 -43 l 1
 588 414 l 1
 236 -44 l 1
 188 700 l 1
 346 700 l 1
 345 260 l 1
 682 740 l 1
 719 257 l 1
EndSplineSet
EndChar

StartChar: N
Encoding: 78 78 17
GlifName: N_
Width: 740
VWidth: 0
Flags: HMW
LayerCount: 2
Fore
SplineSet
722 700 m 1
 858 700 l 1
 607 -32 l 1
 300 434 l 1
 150 0 l 1
 14 0 l 1
 264 732 l 1
 572 266 l 1
 722 700 l 1
EndSplineSet
EndChar

StartChar: a
Encoding: 97 97 18
GlifName: a
Width: 494
VWidth: 0
Flags: HMW
LayerCount: 2
Fore
SplineSet
140 136 m 0
 131 102 156 84 186 82 c 0
 254 78 300 130 332 183 c 1
 332 128 l 1
 293 48 223 -9 129 -9 c 0
 47 -9 -12 48 12 132 c 0
 42 230 148 280 244 280 c 0
 298 280 342 264 380 227 c 1
 362 166 l 1
 331 191 300 205 258 204 c 0
 212 203 152 183 140 136 c 0
170 328 m 1
 150 420 l 1
 214 448 281 472 351 472 c 0
 439 472 529 425 501 326 c 1
 390 0 l 1
 266 0 l 1
 376 305 l 1
 388 343 364 364 322 368 c 0
 270 372 216 348 170 328 c 1
EndSplineSet
Substitution2: "alt a" a.alt
EndChar

StartChar: X
Encoding: 88 88 19
GlifName: X_
Width: 608
VWidth: 0
Flags: HMW
LayerCount: 2
Fore
SplineSet
600 699 m 1
 778 699 l 1
 462 356 l 1
 566 0 l 1
 405 0 l 1
 353 246 l 1
 142 0 l 1
 -36 0 l 1
 306 368 l 1
 212 700 l 1
 375 700 l 1
 418 484 l 1
 600 699 l 1
EndSplineSet
EndChar

StartChar: K
Encoding: 75 75 20
GlifName: K_
Width: 619
VWidth: 0
Flags: HMW
LayerCount: 2
Fore
SplineSet
253 700 m 1
 399 700 l 1
 158 0 l 1
 16 0 l 1
 253 700 l 1
622 699 m 1
 798 699 l 1
 404 366 l 1
 562 0 l 1
 404 0 l 1
 243 375 l 1
 622 699 l 1
EndSplineSet
EndChar

StartChar: Y
Encoding: 89 89 21
GlifName: Y_
Width: 592
VWidth: 0
Flags: HMW
LayerCount: 2
Fore
SplineSet
617 699 m 1
 784 699 l 1
 411 283 l 1
 313 0 l 1
 170 0 l 1
 274 297 l 1
 188 700 l 1
 340 700 l 1
 382 424 l 1
 617 699 l 1
EndSplineSet
EndChar

StartChar: B
Encoding: 66 66 22
GlifName: B_
Width: 594
VWidth: 0
Flags: HMW
LayerCount: 2
Fore
SplineSet
238 355 m 1
 260 420 l 1
 362 420 l 2
 414 420 473 451 492 504 c 0
 510 553 479 584 432 585 c 2
 356 586 l 1
 192 114 l 1
 270 114 l 2
 336 116 408 151 432 218 c 0
 454 280 411 313 353 315 c 2
 224 316 l 1
 252 394 l 1
 378 394 l 2
 493 392 606 329 568 198 c 0
 528 62 391 0 260 0 c 2
 14 0 l 1
 254 700 l 1
 468 700 l 2
 572 700 677 642 641 522 c 0
 605 406 477 357 366 355 c 2
 238 355 l 1
EndSplineSet
EndChar

StartChar: Z
Encoding: 90 90 23
GlifName: Z_
Width: 561
VWidth: 0
Flags: HMW
LayerCount: 2
Fore
SplineSet
184 570 m 1
 230 700 l 1
 738 699 l 1
 221 127 l 1
 510 126 l 1
 466 0 l 1
 -52 0 l 1
 464 568 l 1
 184 570 l 1
EndSplineSet
EndChar

StartChar: o
Encoding: 111 111 24
GlifName: o
Width: 541
VWidth: 0
Flags: HMW
LayerCount: 2
Fore
SplineSet
65 230 m 0
 101 364 235 470 374 470 c 0
 509 470 586 357 550 230 c 0
 514 96 381 -10 242 -10 c 0
 108 -10 29 103 65 230 c 0
194 230 m 0
 174 174 191 103 261 101 c 0
 333 99 400 166 422 230 c 0
 442 286 424 358 354 360 c 0
 282 362 216 294 194 230 c 0
EndSplineSet
EndChar

StartChar: J
Encoding: 74 74 25
GlifName: J_
Width: 284
VWidth: 0
Flags: HMW
LayerCount: 2
Fore
SplineSet
-154 -76 m 1
 -136 -94 -117 -112 -90 -110 c 0
 -45 -108 -9 -65 5 -26 c 2
 254 700 l 1
 402 700 l 1
 145 -57 l 2
 107 -164 8 -234 -107 -232 c 0
 -165 -232 -211 -210 -256 -176 c 1
 -154 -76 l 1
EndSplineSet
EndChar

StartChar: t
Encoding: 116 116 26
GlifName: t
Width: 276
VWidth: 0
Flags: HMW
LayerCount: 2
Fore
SplineSet
108 460 m 1
 380 460 l 1
 341 350 l 1
 68 350 l 1
 108 460 l 1
234 620 m 1
 358 620 l 1
 144 0 l 1
 24 0 l 1
 234 620 l 1
EndSplineSet
EndChar

StartChar: d
Encoding: 100 100 27
GlifName: d
Width: 566
VWidth: 0
Flags: HMW
LayerCount: 2
Fore
SplineSet
596 780 m 1
 725 780 l 1
 456 0 l 1
 331 0 l 1
 596 780 l 1
52 230 m 0
 89 350 204 472 337 470 c 0
 469 468 482 330 450 230 c 0
 414 116 320 -9 190 -9 c 0
 56 -9 18 121 52 230 c 0
184 230 m 0
 164 174 176 101 248 99 c 0
 320 97 385 168 409 230 c 0
 428 284 421 357 352 361 c 0
 278 365 208 294 184 230 c 0
EndSplineSet
EndChar

StartChar: l
Encoding: 108 108 28
GlifName: l
Width: 242
VWidth: 0
Flags: HMW
LayerCount: 2
Fore
SplineSet
270 780 m 1
 399 780 l 1
 130 0 l 1
 5 0 l 1
 270 780 l 1
EndSplineSet
EndChar

StartChar: i
Encoding: 105 105 29
GlifName: i
Width: 254
VWidth: 0
Flags: HMW
LayerCount: 2
Fore
SplineSet
214 638 m 0
 214 680 248 710 292 710 c 0
 336 710 369 680 369 638 c 0
 369 596 336 564 292 564 c 0
 248 564 214 596 214 638 c 0
167 460 m 1
 294 460 l 1
 136 0 l 1
 12 0 l 1
 167 460 l 1
EndSplineSet
EndChar

StartChar: r
Encoding: 114 114 30
GlifName: r
Width: 371
VWidth: 0
Flags: HMW
LayerCount: 2
Fore
SplineSet
286 460 m 1
 128 0 l 1
 2 0 l 1
 162 460 l 1
 286 460 l 1
375 324 m 1
 361 336 348 348 328 349 c 0
 270 351 229 287 211 244 c 1
 194 282 l 1
 228 361 302 468 388 470 c 0
 420 470 442 453 464 431 c 1
 375 324 l 1
EndSplineSet
EndChar

StartChar: c
Encoding: 99 99 31
GlifName: c
Width: 452
VWidth: 0
Flags: HMW
LayerCount: 2
Fore
SplineSet
186 230 m 0
 164 167 190 101 262 98 c 0
 324 96 379 132 424 168 c 1
 388 36 l 1
 341 8 290 -10 234 -10 c 0
 99 -10 20 102 56 230 c 0
 94 366 227 470 368 470 c 0
 420 470 463 454 503 424 c 1
 466 290 l 1
 444 335 410 362 358 362 c 0
 278 362 210 300 186 230 c 0
EndSplineSet
EndChar

StartChar: b
Encoding: 98 98 32
GlifName: b
Width: 566
VWidth: 0
Flags: HMW
LayerCount: 2
Fore
SplineSet
396 780 m 1
 128 0 l 1
 0 0 l 1
 268 780 l 1
 396 780 l 1
562 230 m 0
 525 110 412 -12 279 -10 c 0
 147 -8 134 130 166 230 c 0
 202 344 296 469 426 469 c 0
 560 469 596 339 562 230 c 0
433 230 m 0
 453 286 440 359 368 361 c 0
 296 363 230 292 206 230 c 0
 187 176 195 103 264 99 c 0
 338 95 409 166 433 230 c 0
EndSplineSet
EndChar

StartChar: p
Encoding: 112 112 33
GlifName: p
Width: 566
VWidth: 0
Flags: HMW
LayerCount: 2
Fore
SplineSet
54 -220 m 1
 -76 -220 l 1
 159 460 l 1
 284 460 l 1
 54 -220 l 1
562 230 m 0
 524 110 412 -16 277 -14 c 0
 142 -12 138 130 170 230 c 0
 206 344 295 472 427 473 c 0
 563 474 596 339 562 230 c 0
433 230 m 0
 453 287 436 355 366 357 c 0
 296 359 228 292 206 230 c 0
 187 176 198 107 266 103 c 0
 338 99 410 166 433 230 c 0
EndSplineSet
EndChar

StartChar: q
Encoding: 113 113 34
GlifName: q
Width: 566
VWidth: 0
Flags: HMW
LayerCount: 2
Fore
SplineSet
254 -220 m 1
 488 460 l 1
 616 460 l 1
 382 -220 l 1
 254 -220 l 1
52 230 m 0
 90 350 203 476 338 474 c 0
 473 472 478 330 446 230 c 0
 410 116 321 -12 189 -13 c 0
 53 -14 18 121 52 230 c 0
184 230 m 0
 164 173 179 105 249 103 c 0
 319 101 387 168 409 230 c 0
 428 284 418 353 350 357 c 0
 278 361 207 294 184 230 c 0
EndSplineSet
EndChar

StartChar: h
Encoding: 104 104 35
GlifName: h
Width: 521
VWidth: 0
Flags: HMW
LayerCount: 2
Fore
SplineSet
399 780 m 1
 130 0 l 1
 3 0 l 1
 271 780 l 1
 399 780 l 1
382 280 m 2
 394 317 400 367 348 372 c 0
 292 377 251 323 226 282 c 1
 198 282 l 1
 236 374 303 474 414 474 c 0
 521 474 539 384 512 298 c 1
 409 0 l 1
 284 0 l 1
 382 280 l 2
EndSplineSet
EndChar

StartChar: n
Encoding: 110 110 36
GlifName: n
Width: 525
VWidth: 0
Flags: HMW
LayerCount: 2
Fore
SplineSet
382 280 m 2
 394 316 400 372 344 372 c 0
 290 372 244 333 228 285 c 2
 130 0 l 1
 2 0 l 1
 162 460 l 1
 289 460 l 1
 267 398 l 1
 303 440 352 470 412 470 c 0
 518 470 544 380 514 294 c 2
 414 0 l 1
 284 0 l 1
 382 280 l 2
EndSplineSet
EndChar

StartChar: m
Encoding: 109 109 37
GlifName: m
Width: 759
VWidth: 0
Flags: HMW
LayerCount: 2
Fore
SplineSet
748 294 m 2
 648 0 l 1
 520 0 l 1
 620 280 l 2
 631 312 643 372 594 372 c 0
 542 372 498 330 482 282 c 2
 386 0 l 1
 260 0 l 1
 359 280 l 2
 369 313 383 372 334 372 c 0
 285 372 242 334 226 288 c 2
 126 0 l 1
 2 0 l 1
 162 460 l 1
 284 460 l 1
 264 401 l 1
 299 441 343 470 401 470 c 0
 469 470 495 432 499 384 c 1
 539 433 595 470 662 470 c 0
 768 470 772 375 748 294 c 2
EndSplineSet
EndChar

StartChar: k
Encoding: 107 107 38
GlifName: k
Width: 503
VWidth: 0
Flags: HMW
LayerCount: 2
Fore
SplineSet
266 780 m 1
 392 780 l 1
 124 0 l 1
 2 0 l 1
 266 780 l 1
430 459 m 1
 593 459 l 1
 330 260 l 1
 442 0 l 1
 304 0 l 1
 186 277 l 1
 430 459 l 1
EndSplineSet
EndChar

StartChar: u
Encoding: 117 117 39
GlifName: u
Width: 525
VWidth: 0
Flags: HMW
LayerCount: 2
Fore
SplineSet
194 180 m 2
 182 143 174 88 226 88 c 0
 280 88 328 122 346 174 c 2
 445 460 l 1
 573 460 l 1
 414 0 l 1
 286 0 l 1
 308 62 l 1
 270 20 223 -10 163 -10 c 0
 57 -10 33 80 61 166 c 1
 162 460 l 1
 292 460 l 1
 194 180 l 2
EndSplineSet
EndChar

StartChar: e
Encoding: 101 101 40
GlifName: e
Width: 522
VWidth: 0
Flags: HMW
LayerCount: 2
Fore
SplineSet
247 -10 m 0
 134 -10 56 54 56 170 c 0
 56 322 193 470 367 470 c 0
 479 470 540 407 540 298 c 0
 540 268 530 228 520 202 c 1
 120 202 l 1
 120 281 l 1
 434 281 l 1
 400 235 l 1
 408 255 416 272 416 292 c 0
 416 348 402 378 346 378 c 0
 259 378 203 295 185 199 c 0
 171 139 196 89 262 89 c 0
 314 89 356 120 386 156 c 1
 493 120 l 1
 445 44 359 -10 247 -10 c 0
EndSplineSet
EndChar

StartChar: g
Encoding: 103 103 41
GlifName: g
Width: 562
VWidth: 0
Flags: HMW
LayerCount: 2
Fore
SplineSet
-29 -32 m 1
 90 -33 l 1
 86 -87 103 -127 164 -128 c 0
 244 -130 308 -59 332 10 c 2
 488 460 l 1
 612 460 l 1
 458 10 l 2
 411 -124 310 -235 156 -236 c 0
 27 -237 -45 -156 -29 -32 c 1
54 235 m 0
 91 355 205 472 337 470 c 0
 469 468 484 335 452 234 c 0
 416 120 323 0 193 -0 c 0
 61 -0 20 125 54 235 c 0
184 234 m 0
 164 177 180 110 250 108 c 0
 320 106 390 174 412 236 c 0
 431 290 420 359 352 361 c 0
 275 363 207 298 184 234 c 0
EndSplineSet
EndChar

StartChar: f
Encoding: 102 102 42
GlifName: f
Width: 306
VWidth: 0
Flags: HMW
LayerCount: 2
Fore
SplineSet
124 460 m 1
 401 460 l 1
 362 350 l 1
 84 350 l 1
 124 460 l 1
456 650 m 1
 448 662 440 676 422 676 c 0
 384 676 358 630 347 600 c 2
 140 0 l 1
 16 0 l 1
 230 631 l 2
 262 718 336 795 436 793 c 0
 479 793 506 774 536 744 c 1
 456 650 l 1
EndSplineSet
EndChar

StartChar: s
Encoding: 115 115 43
GlifName: s
Width: 414
VWidth: 0
Flags: HMW
LayerCount: 2
Fore
SplineSet
93 156 m 1
 125 118 166 78 222 82 c 0
 252 82 281 107 283 133 c 0
 286 171 238 191 212 202 c 0
 160 224 111 264 119 334 c 0
 130 426 216 470 296 470 c 0
 368 470 424 436 466 394 c 1
 400 317 l 1
 372 349 339 379 297 379 c 0
 263 379 237 361 235 337 c 0
 229 301 277 288 307 274 c 0
 367 248 413 211 406 135 c 0
 396 47 318 -16 222 -16 c 0
 132 -16 60 29 14 79 c 1
 93 156 l 1
EndSplineSet
EndChar

StartChar: y
Encoding: 121 121 44
GlifName: y
Width: 466
VWidth: 0
Flags: HMW
LayerCount: 2
Fore
SplineSet
584 459 m 1
 66 -219 l 1
 -70 -219 l 1
 138 53 l 1
 98 460 l 1
 228 460 l 1
 246 94 l 1
 182 96 l 1
 444 459 l 1
 584 459 l 1
EndSplineSet
EndChar

StartChar: w
Encoding: 119 119 45
GlifName: w
Width: 692
VWidth: 0
Flags: HMW
LayerCount: 2
Fore
SplineSet
102 460 m 1
 228 460 l 1
 235 212 l 1
 458 500 l 1
 483 210 l 1
 666 459 l 1
 806 459 l 1
 420 -35 l 1
 384 257 l 1
 146 -35 l 1
 102 460 l 1
EndSplineSet
EndChar

StartChar: v
Encoding: 118 118 46
GlifName: v
Width: 470
VWidth: 0
Flags: HMW
LayerCount: 2
Fore
SplineSet
106 460 m 1
 239 460 l 1
 258 190 l 1
 446 459 l 1
 588 459 l 1
 188 -52 l 1
 106 460 l 1
EndSplineSet
EndChar

StartChar: x
Encoding: 120 120 47
GlifName: x
Width: 468
VWidth: 0
Flags: HMW
LayerCount: 2
Fore
SplineSet
426 460 m 1
 574 460 l 1
 339 228 l 1
 432 0 l 1
 302 0 l 1
 246 150 l 1
 112 0 l 1
 -42 0 l 1
 207 250 l 1
 120 460 l 1
 254 460 l 1
 301 329 l 1
 426 460 l 1
EndSplineSet
EndChar

StartChar: z
Encoding: 122 122 48
GlifName: z
Width: 472
VWidth: 0
Flags: HMW
LayerCount: 2
Fore
SplineSet
309 342 m 1
 110 342 l 1
 152 460 l 1
 570 460 l 1
 221 118 l 1
 422 118 l 1
 380 0 l 1
 -47 0 l 1
 309 342 l 1
EndSplineSet
EndChar

StartChar: j
Encoding: 106 106 49
GlifName: j
Width: 249
VWidth: 0
Flags: HMW
LayerCount: 2
Fore
SplineSet
208 638 m 0
 208 680 242 710 286 710 c 0
 330 710 364 680 364 638 c 0
 364 596 330 564 286 564 c 0
 242 564 208 596 208 638 c 0
-117 -89 m 1
 -109 -101 -94 -115 -78 -115 c 0
 -42 -117 -18 -66 -8 -39 c 2
 164 460 l 1
 288 460 l 1
 108 -70 l 2
 76 -157 10 -234 -90 -232 c 0
 -133 -232 -168 -212 -198 -182 c 1
 -117 -89 l 1
EndSplineSet
EndChar

StartChar: P
Encoding: 80 80 50
GlifName: P_
Width: 564
VWidth: 0
Flags: HMW
LayerCount: 2
Fore
SplineSet
253 700 m 1
 395 700 l 1
 154 0 l 1
 16 0 l 1
 253 700 l 1
296 578 m 1
 338 700 l 1
 461 700 l 1
 592 698 675 612 642 476 c 0
 608 335 466 256 326 254 c 1
 183 254 l 1
 227 376 l 1
 350 376 l 1
 415 378 483 413 507 478 c 0
 529 538 494 577 435 578 c 2
 296 578 l 1
EndSplineSet
EndChar

StartChar: U
Encoding: 85 85 51
GlifName: U_
Width: 638
VWidth: 0
Flags: HMW
LayerCount: 2
Fore
SplineSet
250 700 m 1
 390 700 l 1
 229 238 l 2
 211 178 218 110 294 108 c 0
 384 106 435 171 460 239 c 1
 620 700 l 1
 760 700 l 1
 600 230 l 2
 550 88 438 -22 266 -22 c 0
 118 -22 47 94 90 230 c 1
 250 700 l 1
EndSplineSet
EndChar

StartChar: S
Encoding: 83 83 52
GlifName: S_
Width: 566
VWidth: 0
Flags: HMW
LayerCount: 2
Fore
SplineSet
145 236 m 1
 169 164 201 109 277 109 c 0
 349 109 400 162 406 212 c 0
 414 268 355 288 308 314 c 0
 239 350 172 416 186 510 c 0
 204 628 318 714 455 714 c 0
 566 714 632 650 661 560 c 1
 542 502 l 1
 525 546 500 590 430 590 c 0
 376 590 333 559 327 512 c 0
 317 458 396 427 436 407 c 0
 512 371 564 313 552 216 c 0
 532 84 403 -18 259 -18 c 0
 141 -18 59 60 32 164 c 1
 145 236 l 1
EndSplineSet
EndChar

StartChar: at
Encoding: 64 64 53
GlifName: at
Width: 724
VWidth: 0
Flags: HMW
LayerCount: 2
Fore
SplineSet
338 320 m 0
 328 294 326 252 360 246 c 0
 414 236 474 322 488 366 c 0
 497 393 500 435 464 440 c 0
 410 448 352 362 338 320 c 0
234 315 m 0
 261 408 353 534 462 530 c 0
 546 526 551 433 533 369 c 0
 506 276 423 156 314 157 c 0
 225 158 214 245 234 315 c 0
75 320 m 0
 141 528 345 720 572 718 c 0
 758 716 836 551 784 390 c 0
 750 284 656 139 528 146 c 0
 454 150 453 209 463 267 c 1
 459 288 l 1
 562 520 l 1
 662 520 l 1
 558 302 l 2
 554 293 549 286 547 276 c 0
 543 262 538 240 556 234 c 0
 612 214 673 352 687 390 c 0
 728 502 699 626 559 628 c 0
 381 630 228 476 172 320 c 0
 127 195 164 74 312 70 c 0
 381 68 449 89 512 114 c 1
 524 32 l 1
 450 -1 371 -21 290 -20 c 0
 93 -17 19 146 75 320 c 0
EndSplineSet
EndChar

StartChar: period
Encoding: 46 46 54
GlifName: period
Width: 296
VWidth: 0
Flags: HMW
LayerCount: 2
Fore
SplineSet
37 60 m 0
 37 104 71 140 119 140 c 0
 167 140 201 104 201 60 c 0
 201 16 167 -21 119 -21 c 0
 71 -21 37 16 37 60 c 0
EndSplineSet
EndChar

StartChar: comma
Encoding: 44 44 55
GlifName: comma
Width: 299
VWidth: 0
Flags: HMW
LayerCount: 2
Fore
SplineSet
100 108 m 1
 221 74 l 1
 22 -170 l 1
 -72 -146 l 1
 100 108 l 1
EndSplineSet
EndChar

StartChar: colon
Encoding: 58 58 56
GlifName: colon
Width: 296
VWidth: 0
Flags: HMW
LayerCount: 2
Fore
SplineSet
32 60 m 0
 32 104 66 140 114 140 c 0
 162 140 196 104 196 60 c 0
 196 16 162 -21 114 -21 c 0
 66 -21 32 16 32 60 c 0
160 434 m 0
 160 478 194 516 242 516 c 0
 290 516 324 478 324 434 c 0
 324 390 290 354 242 354 c 0
 194 354 160 390 160 434 c 0
EndSplineSet
EndChar

StartChar: semicolon
Encoding: 59 59 57
GlifName: semicolon
Width: 351
VWidth: 0
Flags: HMW
LayerCount: 2
Fore
SplineSet
202 430 m 0
 202 474 236 511 284 511 c 0
 332 511 366 474 366 430 c 0
 366 386 332 350 284 350 c 0
 236 350 202 386 202 430 c 0
114 108 m 1
 235 74 l 1
 36 -170 l 1
 -56 -146 l 1
 114 108 l 1
EndSplineSet
EndChar

StartChar: quotedbl
Encoding: 34 34 58
GlifName: quotedbl
Width: 472
VWidth: 0
Flags: HMW
LayerCount: 2
Fore
SplineSet
284 700 m 1
 426 699 l 1
 232 388 l 1
 145 388 l 1
 284 700 l 1
474 700 m 1
 616 699 l 1
 422 388 l 1
 335 388 l 1
 474 700 l 1
EndSplineSet
EndChar

StartChar: exclam
Encoding: 33 33 59
GlifName: exclam
Width: 310
VWidth: 0
Flags: HMW
LayerCount: 2
Fore
SplineSet
262 700 m 1
 420 700 l 1
 230 222 l 1
 126 222 l 1
 262 700 l 1
39 56 m 0
 39 100 74 132 122 132 c 0
 170 132 204 100 204 56 c 0
 204 12 170 -22 122 -22 c 0
 74 -22 39 12 39 56 c 0
EndSplineSet
EndChar

StartChar: quotesingle
Encoding: 39 39 60
GlifName: quotesingle
Width: 282
VWidth: 0
Flags: HMW
LayerCount: 2
Fore
SplineSet
284 700 m 1
 426 699 l 1
 232 388 l 1
 145 388 l 1
 284 700 l 1
EndSplineSet
EndChar

StartChar: numbersign
Encoding: 35 35 61
GlifName: numbersign
Width: 609
VWidth: 0
Flags: HMW
LayerCount: 2
Fore
SplineSet
160 422 m 1
 194 524 l 1
 704 524 l 1
 669 420 l 1
 534 420 l 1
 512 424 l 1
 323 424 l 1
 300 420 l 1
 160 422 l 1
38 180 m 1
 74 284 l 1
 198 284 l 1
 222 280 l 1
 429 280 l 1
 456 284 l 1
 584 284 l 1
 550 180 l 1
 38 180 l 1
619 699 m 1
 738 699 l 1
 337 0 l 1
 221 0 l 1
 350 225 l 1
 368 248 l 1
 488 458 l 1
 498 484 l 1
 619 699 l 1
402 700 m 1
 520 699 l 1
 397 486 l 1
 378 459 l 1
 258 249 l 1
 249 226 l 1
 119 0 l 1
 5 0 l 1
 402 700 l 1
EndSplineSet
EndChar

StartChar: hyphen
Encoding: 45 45 62
GlifName: hyphen
Width: 204
VWidth: 0
Flags: HMW
LayerCount: 2
Fore
SplineSet
10 180 m 1
 50 294 l 1
 252 294 l 1
 212 180 l 1
 10 180 l 1
EndSplineSet
EndChar

StartChar: dollar
Encoding: 36 36 63
GlifName: dollar
Width: 572
VWidth: 0
Flags: HMW
LayerCount: 2
Fore
SplineSet
462 818 m 1
 568 818 l 1
 510 646 l 1
 412 646 l 1
 462 818 l 1
232 57 m 1
 330 57 l 1
 280 -112 l 1
 174 -112 l 1
 232 57 l 1
544 497 m 1
 531 545 512 595 454 597 c 0
 408 599 358 568 342 524 c 0
 318 456 404 430 450 408 c 0
 537 368 586 289 560 193 c 0
 525 65 394 -12 266 -10 c 0
 152 -8 82 71 55 174 c 1
 172 244 l 1
 188 180 213 110 292 110 c 0
 343 110 397 142 414 192 c 0
 436 258 364 289 316 313 c 0
 230 355 172 430 200 528 c 0
 232 640 359 710 471 710 c 0
 571 710 634 652 664 560 c 1
 544 497 l 1
EndSplineSet
EndChar

StartChar: bar
Encoding: 124 124 64
GlifName: bar
Width: 308
VWidth: 0
Flags: HMW
LayerCount: 2
Fore
SplineSet
300 784 m 1
 425 784 l 1
 118 -214 l 1
 -8 -214 l 1
 300 784 l 1
EndSplineSet
EndChar

StartChar: zero
Encoding: 48 48 65
GlifName: zero
Width: 604
VWidth: 0
Flags: HMW
LayerCount: 2
Fore
SplineSet
236 350 m 0
 214 286 167 119 280 115 c 0
 394 111 468 260 500 350 c 0
 522 414 569 581 456 585 c 0
 342 589 268 440 236 350 c 0
100 350 m 0
 154 515 289 712 483 712 c 0
 681 712 681 492 636 350 c 0
 582 184 449 -13 254 -12 c 0
 58 -11 55 210 100 350 c 0
EndSplineSet
Substitution2: "Tabular Numbers lookup" uniFF10
EndChar

StartChar: one
Encoding: 49 49 66
GlifName: one
Width: 461
VWidth: 0
Flags: HMW
LayerCount: 2
Fore
SplineSet
184 515 m 1
 232 648 l 1
 550 714 l 1
 304 0 l 1
 168 0 l 1
 360 558 l 1
 184 515 l 1
EndSplineSet
Substitution2: "Tabular Numbers lookup" uniFF11
EndChar

StartChar: two
Encoding: 50 50 67
GlifName: two
Width: 592
VWidth: 0
Flags: HMW
LayerCount: 2
Fore
SplineSet
-20 0 m 1
 379 332 l 2
 429 374 496 422 514 488 c 0
 528 538 504 584 450 586 c 0
 370 590 322 511 294 448 c 1
 156 448 l 1
 205 588 318 714 477 713 c 0
 597 713 692 618 658 496 c 0
 636 416 574 353 510 303 c 2
 288 134 l 1
 559 132 l 1
 518 0 l 1
 -20 0 l 1
EndSplineSet
Substitution2: "Tabular Numbers lookup" uniFF12
EndChar

StartChar: four
Encoding: 52 52 68
GlifName: four
Width: 623
VWidth: 0
Flags: HMW
LayerCount: 2
Fore
SplineSet
1 131 m 1
 570 698 l 1
 672 700 l 1
 432 0 l 1
 288 0 l 1
 348 176 l 1
 364 186 l 1
 459 458 l 1
 236 238 l 1
 456 238 l 1
 478 252 l 1
 623 252 l 1
 580 129 l 1
 1 131 l 1
EndSplineSet
Substitution2: "Tabular Numbers lookup" uniFF14
EndChar

StartChar: slash
Encoding: 47 47 69
GlifName: slash
Width: 545
VWidth: 0
Flags: HMW
LayerCount: 2
Fore
SplineSet
592 699 m 1
 724 699 l 1
 36 -149 l 1
 -96 -148 l 1
 592 699 l 1
EndSplineSet
EndChar

StartChar: backslash
Encoding: 92 92 70
GlifName: backslash
Width: 504
VWidth: 0
Flags: HMW
LayerCount: 2
Fore
SplineSet
199 700 m 1
 318 700 l 1
 434 0 l 1
 318 0 l 1
 199 700 l 1
EndSplineSet
EndChar

StartChar: eight
Encoding: 56 56 71
GlifName: eight
Width: 566
VWidth: 0
Flags: HMW
LayerCount: 2
Fore
SplineSet
198 532 m 0
 232 642 352 714 464 714 c 0
 568 714 655 639 623 530 c 0
 590 418 468 347 356 347 c 0
 250 347 165 422 198 532 c 0
324 516 m 0
 310 477 323 430 369 428 c 0
 422 426 473 474 489 518 c 0
 503 557 490 604 442 606 c 0
 388 608 340 560 324 516 c 0
58 191 m 0
 95 315 229 394 355 394 c 0
 471 394 567 311 530 189 c 0
 493 67 357 -14 233 -14 c 0
 119 -14 22 71 58 191 c 0
202 210 m 0
 184 162 201 107 258 105 c 0
 322 103 382 158 402 212 c 0
 418 258 399 312 344 314 c 0
 282 316 222 262 202 210 c 0
EndSplineSet
Substitution2: "Tabular Numbers lookup" uniFF18
EndChar

StartChar: nine
Encoding: 57 57 72
GlifName: nine
Width: 602
VWidth: 0
Flags: HMW
LayerCount: 2
Fore
SplineSet
530 460 m 0
 551 520 528 588 456 590 c 0
 382 592 310 526 288 459 c 0
 267 399 290 329 362 327 c 0
 436 325 508 392 530 460 c 0
264 3 m 1
 79 3 l 1
 373 264 l 1
 406 272 l 1
 372 250 334 233 292 233 c 0
 170 235 124 355 152 459 c 0
 191 603 330 714 480 714 c 0
 625 714 705 596 666 459 c 0
 647 389 598 329 548 279 c 2
 264 3 l 1
EndSplineSet
Substitution2: "Tabular Numbers lookup" uniFF19
EndChar

StartChar: three
Encoding: 51 51 73
GlifName: three
Width: 562
VWidth: 0
Flags: HMW
LayerCount: 2
Fore
SplineSet
324 342 m 1
 342 410 l 1
 402 420 483 444 501 512 c 0
 513 553 496 592 451 594 c 0
 393 596 355 548 328 504 c 1
 197 506 l 1
 241 622 342 712 472 712 c 0
 580 712 672 634 640 520 c 0
 602 383 447 348 324 342 c 1
258 -14 m 0
 123 -14 56 83 76 211 c 1
 211 210 l 1
 205 154 219 108 284 106 c 0
 344 104 406 148 424 205 c 0
 450 285 376 305 314 312 c 1
 336 388 l 1
 454 382 598 336 558 188 c 0
 523 60 384 -14 258 -14 c 0
EndSplineSet
Substitution2: "Tabular Numbers lookup" uniFF13
EndChar

StartChar: five
Encoding: 53 53 74
GlifName: five
Width: 583
VWidth: 0
Flags: HMW
LayerCount: 2
Fore
SplineSet
584 225 m 0
 544 85 406 -12 262 -12 c 0
 164 -12 88 32 31 98 c 1
 124 206 l 1
 156 158 198 121 262 120 c 0
 336 120 416 166 438 239 c 0
 459 305 414 351 348 354 c 0
 278 358 211 332 147 308 c 1
 354 700 l 1
 721 700 l 1
 681 574 l 1
 424 576 l 1
 332 432 l 1
 368 446 407 456 446 456 c 0
 572 454 614 332 584 225 c 0
EndSplineSet
Substitution2: "Tabular Numbers lookup" uniFF15
EndChar

StartChar: six
Encoding: 54 54 75
GlifName: six
Width: 602
VWidth: 0
Flags: HMW
LayerCount: 2
Fore
SplineSet
220 240 m 0
 199 180 222 112 294 110 c 0
 368 108 442 174 464 241 c 0
 485 301 461 371 389 373 c 0
 315 375 242 308 220 240 c 0
488 697 m 1
 672 697 l 1
 378 436 l 1
 345 428 l 1
 379 450 416 467 458 467 c 0
 580 465 627 345 599 241 c 0
 560 97 421 -14 271 -14 c 0
 126 -14 46 104 85 241 c 0
 104 311 152 371 202 421 c 2
 488 697 l 1
EndSplineSet
Substitution2: "Tabular Numbers lookup" uniFF16
EndChar

StartChar: seven
Encoding: 55 55 76
GlifName: seven
Width: 544
VWidth: 0
Flags: HMW
LayerCount: 2
Fore
SplineSet
164 566 m 1
 208 700 l 1
 730 699 l 1
 195 0 l 1
 39 0 l 1
 478 565 l 1
 164 566 l 1
EndSplineSet
Substitution2: "Tabular Numbers lookup" uniFF17
EndChar

StartChar: plus
Encoding: 43 43 77
GlifName: plus
Width: 617
VWidth: 0
Flags: HMW
LayerCount: 2
Fore
SplineSet
74 202 m 1
 118 328 l 1
 618 328 l 1
 574 202 l 1
 74 202 l 1
368 528 m 1
 502 528 l 1
 320 2 l 1
 190 2 l 1
 368 528 l 1
EndSplineSet
EndChar

StartChar: equal
Encoding: 61 61 78
GlifName: equal
Width: 585
VWidth: 0
Flags: HMW
LayerCount: 2
Fore
SplineSet
34 101 m 1
 73 215 l 1
 554 215 l 1
 514 101 l 1
 34 101 l 1
98 290 m 1
 138 404 l 1
 618 404 l 1
 580 290 l 1
 98 290 l 1
EndSplineSet
EndChar

StartChar: percent
Encoding: 37 37 79
GlifName: percent
Width: 816
VWidth: 0
Flags: HMW
LayerCount: 2
Fore
SplineSet
152 540 m 0
 180 633 276 716 376 716 c 0
 474 716 522 626 496 538 c 0
 468 445 372 362 272 362 c 0
 174 362 126 452 152 540 c 0
256 538 m 0
 246 508 256 467 298 465 c 0
 337 463 378 505 390 540 c 0
 400 570 393 611 351 613 c 0
 312 615 268 573 256 538 c 0
453 162 m 0
 481 255 576 338 676 338 c 0
 774 338 822 248 796 160 c 0
 768 67 672 -16 572 -16 c 0
 474 -16 427 74 453 162 c 0
558 160 m 0
 548 130 558 90 596 88 c 0
 635 86 678 122 692 162 c 0
 702 192 692 234 654 236 c 0
 615 238 572 200 558 160 c 0
766 699 m 1
 904 699 l 1
 182 0 l 1
 47 0 l 1
 766 699 l 1
EndSplineSet
EndChar

StartChar: ampersand
Encoding: 38 38 80
GlifName: ampersand
Width: 685
VWidth: 0
Flags: HMW
LayerCount: 2
Fore
SplineSet
294 376 m 2
 264 430 231 484 248 548 c 0
 274 648 386 714 486 714 c 0
 578 714 648 643 624 549 c 0
 598 453 495 395 413 352 c 0
 340 314 222 285 194 196 c 0
 176 140 213 104 267 100 c 0
 411 90 540 240 632 332 c 1
 704 264 l 1
 581 138 421 -16 232 -12 c 0
 120 -10 26 68 58 186 c 0
 95 322 237 367 351 419 c 0
 403 443 489 478 505 540 c 0
 514 572 500 606 460 608 c 0
 421 610 380 578 368 540 c 0
 352 492 387 446 409 408 c 2
 632 0 l 1
 499 0 l 1
 294 376 l 2
EndSplineSet
EndChar

StartChar: question
Encoding: 63 63 81
GlifName: question
Width: 569
VWidth: 0
Flags: HMW
LayerCount: 2
Fore
SplineSet
510 500 m 0
 530 558 499 601 438 603 c 0
 371 605 312 562 264 520 c 1
 193 594 l 1
 271 661 364 718 470 716 c 0
 591 714 673 619 636 499 c 0
 598 379 484 312 368 286 c 1
 328 192 l 1
 224 192 l 1
 263 369 l 1
 290 369 l 1
 372 373 480 415 510 500 c 0
144 54 m 0
 144 95 180 127 224 127 c 0
 268 127 304 94 304 54 c 0
 304 12 268 -20 224 -20 c 0
 180 -20 144 12 144 54 c 0
EndSplineSet
EndChar

StartChar: parenleft
Encoding: 40 40 82
GlifName: parenleft
Width: 311
VWidth: 0
Flags: HMW
LayerCount: 2
Fore
SplineSet
382 778 m 1
 501 778 l 1
 396 627 307 466 251 290 c 0
 201 132 178 -35 201 -201 c 1
 90 -201 l 1
 60 -37 76 130 124 290 c 0
 178 468 266 634 382 778 c 1
EndSplineSet
EndChar

StartChar: parenright
Encoding: 41 41 83
GlifName: parenright
Width: 311
VWidth: 0
Flags: HMW
LayerCount: 2
Fore
SplineSet
40 -198 m 1
 -78 -198 l 1
 27 -47 115 114 171 290 c 0
 221 448 244 615 221 781 c 1
 332 781 l 1
 362 617 348 450 300 290 c 0
 246 112 156 -54 40 -198 c 1
EndSplineSet
EndChar

StartChar: asterisk
Encoding: 42 42 84
GlifName: asterisk
Width: 557
VWidth: 0
Flags: HMW
LayerCount: 2
Fore
SplineSet
610 602 m 1
 608 488 l 1
 386 444 l 1
 386 510 l 1
 610 602 l 1
508 327 m 1
 394 259 l 1
 355 462 l 1
 413 496 l 1
 508 327 l 1
241 263 m 1
 167 337 l 1
 363 495 l 1
 407 453 l 1
 241 263 l 1
174 492 m 1
 242 600 l 1
 410 505 l 1
 372 446 l 1
 174 492 l 1
405 700 m 1
 523 699 l 1
 420 478 l 1
 356 478 l 1
 405 700 l 1
EndSplineSet
EndChar

StartChar: less
Encoding: 60 60 85
GlifName: less
Width: 602
VWidth: 0
Flags: HMW
LayerCount: 2
Fore
SplineSet
277 258 m 1
 534 124 l 1
 491 6 l 1
 80 222 l 1
 110 306 l 1
 670 524 l 1
 622 385 l 1
 277 258 l 1
EndSplineSet
EndChar

StartChar: greater
Encoding: 62 62 86
GlifName: greater
Width: 602
VWidth: 0
Flags: HMW
LayerCount: 2
Fore
SplineSet
396 266 m 1
 139 400 l 1
 182 518 l 1
 592 300 l 1
 564 218 l 1
 3 0 l 1
 50 138 l 1
 396 266 l 1
EndSplineSet
EndChar

StartChar: bracketleft
Encoding: 91 91 87
GlifName: bracketleft
Width: 322
VWidth: 0
Flags: HMW
LayerCount: 2
Fore
SplineSet
384 666 m 1
 145 -106 l 1
 241 -106 l 1
 204 -220 l 1
 -17 -220 l 1
 292 780 l 1
 514 780 l 1
 478 666 l 1
 384 666 l 1
EndSplineSet
EndChar

StartChar: bracketright
Encoding: 93 93 88
GlifName: bracketright
Width: 322
VWidth: 0
Flags: HMW
LayerCount: 2
Fore
SplineSet
44 -106 m 1
 282 666 l 1
 186 666 l 1
 224 780 l 1
 444 780 l 1
 136 -220 l 1
 -86 -220 l 1
 -51 -106 l 1
 44 -106 l 1
EndSplineSet
EndChar

StartChar: asciicircum
Encoding: 94 94 89
GlifName: asciicircum
Width: 479
VWidth: 0
Flags: HMW
LayerCount: 2
Fore
SplineSet
393 589 m 1
 262 452 l 1
 137 452 l 1
 387 709 l 1
 460 710 l 1
 533 450 l 1
 425 450 l 1
 393 589 l 1
EndSplineSet
EndChar

StartChar: underscore
Encoding: 95 95 90
GlifName: underscore
Width: 490
VWidth: 0
Flags: HMW
LayerCount: 2
Fore
SplineSet
-106 -146 m 1
 -78 -64 l 1
 418 -64 l 1
 389 -146 l 1
 -106 -146 l 1
EndSplineSet
EndChar

StartChar: grave
Encoding: 96 96 91
GlifName: grave
Width: 352
VWidth: 0
Flags: HMW
LayerCount: 2
Fore
SplineSet
224 659 m 1
 331 705 l 1
 428 541 l 1
 353 506 l 1
 224 659 l 1
EndSplineSet
EndChar

StartChar: braceleft
Encoding: 123 123 92
GlifName: braceleft
Width: 349
VWidth: 0
Flags: HMW
LayerCount: 2
Fore
SplineSet
386 624 m 2
 345 490 l 2
 311 384 266 302 150 281 c 1
 154 300 l 1
 264 273 247 180 220 90 c 2
 176 -46 l 2
 167 -74 175 -93 204 -94 c 2
 241 -94 l 1
 210 -200 l 1
 137 -200 l 2
 59 -199 17 -134 39 -60 c 2
 98 132 l 2
 112 180 118 210 78 242 c 1
 105 337 l 1
 153 362 174 397 192 448 c 2
 252 641 l 2
 278 719 344 778 426 780 c 1
 511 780 l 1
 480 676 l 1
 449 676 l 2
 417 676 396 656 386 624 c 2
EndSplineSet
EndChar

StartChar: braceright
Encoding: 125 125 93
GlifName: braceright
Width: 349
VWidth: 0
Flags: HMW
LayerCount: 2
Fore
SplineSet
78 -45 m 2
 120 90 l 2
 154 196 200 278 316 299 c 1
 310 280 l 1
 200 307 219 400 246 490 c 2
 288 626 l 2
 297 654 288 673 260 674 c 2
 225 674 l 1
 256 780 l 1
 328 780 l 2
 406 778 448 714 426 640 c 2
 366 448 l 2
 352 400 347 370 387 338 c 1
 360 243 l 1
 312 218 290 183 272 132 c 2
 214 -61 l 2
 189 -139 122 -198 40 -200 c 1
 -46 -200 l 1
 -15 -96 l 1
 16 -96 l 2
 48 -96 68 -77 78 -45 c 2
EndSplineSet
EndChar

StartChar: asciitilde
Encoding: 126 126 94
GlifName: asciitilde
Width: 541
VWidth: 0
Flags: HMW
LayerCount: 2
Fore
SplineSet
164 166 m 1
 62 172 l 1
 62 180 64 190 66 198 c 0
 74 230 93 261 116 284 c 0
 149 317 198 340 246 340 c 0
 287 340 320 317 350 291 c 0
 364 279 382 258 404 258 c 0
 426 258 446 282 454 300 c 0
 458 310 458 323 458 333 c 1
 562 326 l 1
 562 316 561 307 559 298 c 0
 551 266 533 234 510 210 c 0
 482 180 439 159 397 160 c 0
 357 161 326 185 296 209 c 0
 278 225 256 244 230 242 c 0
 203 240 178 218 168 194 c 0
 164 186 164 175 164 166 c 1
EndSplineSet
EndChar

StartChar: exclamdown
Encoding: 161 161 95
GlifName: exclamdown
Width: 310
VWidth: 0
Flags: HMW
LayerCount: 2
Fore
SplineSet
99 -234 m 1
 -58 -234 l 1
 133 244 l 1
 235 244 l 1
 99 -234 l 1
320 409 m 0
 310 369 260 333 220 335 c 0
 178 337 151 371 162 413 c 0
 172 453 222 488 262 486 c 0
 304 484 331 451 320 409 c 0
EndSplineSet
EndChar

StartChar: cent
Encoding: 162 162 96
GlifName: cent
Width: 545
VWidth: 0
Flags: HMW
LayerCount: 2
Fore
SplineSet
191 38 m 1
 287 38 l 1
 240 -112 l 1
 133 -112 l 1
 191 38 l 1
206 230 m 0
 183 168 205 101 278 98 c 0
 340 96 397 132 443 168 c 1
 402 36 l 1
 355 9 304 -10 248 -10 c 0
 113 -9 39 103 78 230 c 0
 120 366 254 469 396 470 c 0
 448 470 490 455 530 424 c 1
 489 290 l 1
 469 336 436 362 384 362 c 0
 308 362 232 300 206 230 c 0
370 578 m 1
 478 578 l 1
 420 428 l 1
 324 428 l 1
 370 578 l 1
EndSplineSet
EndChar

StartChar: sterling
Encoding: 163 163 97
GlifName: sterling
Width: 565
VWidth: 0
Flags: HMW
LayerCount: 2
Fore
SplineSet
134 370 m 1
 490 370 l 1
 456 278 l 1
 100 278 l 1
 134 370 l 1
523 472 m 1
 532 524 534 588 466 590 c 0
 411 592 356 551 336 502 c 0
 304 424 369 346 346 267 c 0
 314 157 200 85 98 52 c 1
 152 122 l 1
 492 122 l 1
 448 0 l 1
 -2 0 l 1
 82 82 188 158 224 275 c 0
 250 359 186 437 210 521 c 0
 243 635 371 711 486 709 c 0
 600 707 660 621 648 514 c 1
 523 472 l 1
EndSplineSet
EndChar

StartChar: currency
Encoding: 164 164 98
GlifName: currency
Width: 542
VWidth: 0
Flags: HMW
LayerCount: 2
Fore
SplineSet
141 506 m 1
 214 562 l 1
 277 456 l 1
 208 407 l 1
 141 506 l 1
46 39 m 1
 4 104 l 1
 127 194 l 1
 167 132 l 1
 46 39 l 1
515 406 m 1
 473 470 l 1
 596 562 l 1
 636 498 l 1
 515 406 l 1
361 140 m 1
 434 194 l 1
 496 90 l 1
 428 40 l 1
 361 140 l 1
94 300 m 0
 132 426 258 540 394 540 c 0
 527 540 582 416 546 300 c 0
 508 174 383 60 247 60 c 0
 114 60 58 184 94 300 c 0
210 300 m 0
 190 246 206 182 272 180 c 0
 340 178 408 238 430 300 c 0
 450 354 434 418 368 420 c 0
 300 422 232 362 210 300 c 0
EndSplineSet
EndChar

StartChar: yen
Encoding: 165 165 99
GlifName: yen
Width: 603
VWidth: 0
Flags: HMW
LayerCount: 2
Fore
SplineSet
80 273 m 1
 112 365 l 1
 632 365 l 1
 600 272 l 1
 80 273 l 1
28 123 m 1
 60 215 l 1
 581 215 l 1
 549 122 l 1
 28 123 l 1
623 699 m 1
 789 699 l 1
 418 286 l 1
 320 0 l 1
 176 0 l 1
 280 298 l 1
 194 700 l 1
 344 700 l 1
 386 424 l 1
 623 699 l 1
EndSplineSet
EndChar

StartChar: brokenbar
Encoding: 166 166 100
GlifName: brokenbar
Width: 308
VWidth: 0
Flags: HMW
LayerCount: 2
Fore
SplineSet
276 694 m 1
 401 694 l 1
 312 438 l 1
 186 438 l 1
 276 694 l 1
254 262 m 1
 164 6 l 1
 38 6 l 1
 128 262 l 1
 254 262 l 1
EndSplineSet
EndChar

StartChar: section
Encoding: 167 167 101
GlifName: section
Width: 494
VWidth: 0
Flags: HMW
LayerCount: 2
Fore
SplineSet
494 560 m 1
 474 587 451 608 414 608 c 0
 392 608 349 596 342 572 c 0
 332 539 393 526 414 516 c 0
 473 492 517 441 499 374 c 0
 469 269 355 240 260 234 c 1
 274 272 l 1
 313 286 362 306 376 350 c 0
 393 402 339 420 302 440 c 0
 246 469 204 516 224 582 c 0
 249 668 345 718 429 719 c 0
 496 720 550 693 582 637 c 1
 494 560 l 1
109 168 m 1
 129 127 159 91 214 92 c 0
 241 92 284 106 294 134 c 0
 306 172 254 187 228 200 c 0
 168 224 113 271 133 343 c 0
 163 447 281 472 374 478 c 1
 363 444 l 1
 325 429 275 411 260 368 c 0
 240 312 302 295 340 275 c 0
 396 246 436 195 418 129 c 0
 392 35 286 -18 194 -18 c 0
 110 -18 52 25 20 92 c 1
 109 168 l 1
EndSplineSet
EndChar

StartChar: dieresis
Encoding: 168 168 102
GlifName: dieresis
Width: 468
VWidth: 0
Flags: HMW
LayerCount: 2
Fore
SplineSet
430 642 m 0
 438 678 486 716 524 714 c 0
 563 712 590 676 581 638 c 0
 573 602 526 566 488 568 c 0
 449 570 421 604 430 642 c 0
214 642 m 0
 222 678 270 716 308 714 c 0
 347 712 373 676 364 638 c 0
 356 602 309 566 271 568 c 0
 232 570 205 604 214 642 c 0
EndSplineSet
EndChar

StartChar: copyright
Encoding: 169 169 103
GlifName: copyright
Width: 752
VWidth: 0
Flags: HMW
LayerCount: 2
Fore
SplineSet
332 350 m 0
 310 286 336 218 410 216 c 0
 463 214 512 242 554 270 c 1
 528 174 l 1
 486 150 443 132 394 132 c 0
 273 132 208 238 240 350 c 0
 272 469 388 566 514 568 c 0
 560 568 598 552 634 524 c 1
 606 428 l 1
 580 462 553 486 508 486 c 0
 430 486 356 422 332 350 c 0
164 350 m 0
 116 206 177 43 347 41 c 0
 523 39 684 190 736 350 c 0
 784 494 723 657 553 659 c 0
 377 661 216 510 164 350 c 0
108 350 m 0
 162 541 348 711 552 710 c 0
 750 709 840 526 790 350 c 0
 736 159 551 -11 347 -10 c 0
 149 -9 58 174 108 350 c 0
EndSplineSet
EndChar

StartChar: registered
Encoding: 174 174 104
GlifName: registered
Width: 752
VWidth: 0
Flags: HMW
LayerCount: 2
Fore
SplineSet
416 337 m 1
 490 337 l 1
 556 150 l 1
 462 150 l 1
 416 337 l 1
384 570 m 1
 469 570 l 1
 340 150 l 1
 254 150 l 1
 384 570 l 1
412 496 m 1
 434 569 l 1
 513 570 l 1
 587 566 649 522 629 440 c 0
 607 358 524 312 444 308 c 1
 352 307 l 1
 374 374 l 1
 449 375 l 1
 485 379 530 399 542 437 c 0
 552 472 527 492 495 496 c 1
 412 496 l 1
164 350 m 0
 116 206 177 43 347 41 c 0
 523 39 684 190 736 350 c 0
 784 494 723 657 553 659 c 0
 377 661 216 510 164 350 c 0
108 350 m 0
 162 540 348 711 552 710 c 0
 750 709 840 526 790 350 c 0
 736 160 551 -11 347 -10 c 0
 149 -9 58 174 108 350 c 0
EndSplineSet
EndChar

StartChar: ordfeminine
Encoding: 170 170 105
GlifName: ordfeminine
Width: 244
VWidth: 0
Flags: HMW
LayerCount: 2
Fore
SplineSet
206 529 m 0
 202 515 214 503 228 501 c 0
 262 499 283 528 302 551 c 1
 300 522 l 1
 276 486 249 454 201 456 c 0
 159 458 130 489 142 531 c 0
 156 577 213 606 257 606 c 0
 285 606 306 595 328 579 c 1
 318 548 l 1
 302 558 286 569 266 568 c 0
 246 568 212 551 206 529 c 0
223 630 m 1
 214 680 l 1
 245 692 278 705 312 705 c 0
 357 705 396 681 388 631 c 1
 330 460 l 1
 268 461 l 1
 326 618 l 1
 322 636 321 646 300 650 c 0
 275 654 245 640 223 630 c 1
EndSplineSet
EndChar

StartChar: ordmasculine
Encoding: 186 186 106
GlifName: ordmasculine
Width: 261
VWidth: 0
Flags: HMW
LayerCount: 2
Fore
SplineSet
160 582 m 0
 179 646 247 699 315 699 c 0
 383 699 422 642 404 578 c 0
 385 513 316 461 248 461 c 0
 180 461 142 518 160 582 c 0
224 580 m 0
 214 555 222 518 254 516 c 0
 288 514 328 550 339 580 c 0
 349 605 341 642 309 644 c 0
 275 646 235 610 224 580 c 0
EndSplineSet
EndChar

StartChar: guillemotleft
Encoding: 171 171 107
GlifName: guillemotleft
Width: 499
VWidth: 0
Flags: HMW
LayerCount: 2
Fore
SplineSet
347 254 m 1
 423 60 l 1
 332 6 l 1
 242 263 l 1
 492 502 l 1
 554 439 l 1
 347 254 l 1
168 254 m 1
 244 60 l 1
 152 6 l 1
 62 263 l 1
 312 502 l 1
 375 439 l 1
 168 254 l 1
EndSplineSet
EndChar

StartChar: guillemotright
Encoding: 187 187 108
GlifName: guillemotright
Width: 499
VWidth: 0
Flags: HMW
LayerCount: 2
Fore
SplineSet
218 256 m 1
 142 450 l 1
 234 504 l 1
 324 247 l 1
 76 8 l 1
 12 71 l 1
 218 256 l 1
398 256 m 1
 322 450 l 1
 414 504 l 1
 504 247 l 1
 254 8 l 1
 190 71 l 1
 398 256 l 1
EndSplineSet
EndChar

StartChar: uni00AD
Encoding: 173 173 109
GlifName: uni00A_D_
Width: 197
VWidth: 0
Flags: HMW
LayerCount: 2
Fore
SplineSet
20 201 m 1
 44 275 l 1
 236 275 l 1
 212 201 l 1
 20 201 l 1
EndSplineSet
EndChar

StartChar: logicalnot
Encoding: 172 172 110
GlifName: logicalnot
Width: 602
VWidth: 0
Flags: HMW
LayerCount: 2
Fore
SplineSet
102 280 m 1
 140 394 l 1
 626 394 l 1
 550 176 l 1
 454 176 l 1
 494 280 l 1
 102 280 l 1
EndSplineSet
EndChar

StartChar: macron
Encoding: 175 175 111
GlifName: macron
Width: 493
VWidth: 0
Flags: HMW
LayerCount: 2
Fore
SplineSet
218 580 m 1
 254 694 l 1
 602 694 l 1
 566 580 l 1
 218 580 l 1
EndSplineSet
EndChar

StartChar: degree
Encoding: 176 176 112
GlifName: degree
Width: 272
VWidth: 0
Flags: HMW
LayerCount: 2
Fore
SplineSet
164 599 m 0
 183 663 253 719 321 719 c 0
 389 719 427 660 409 596 c 0
 390 531 321 477 252 477 c 0
 184 477 146 535 164 599 c 0
226 597 m 0
 216 571 227 536 259 534 c 0
 294 532 334 567 346 598 c 0
 356 624 346 661 314 663 c 0
 279 665 238 628 226 597 c 0
EndSplineSet
EndChar

StartChar: plusminus
Encoding: 177 177 113
GlifName: plusminus
Width: 589
VWidth: 0
Flags: HMW
LayerCount: 2
Fore
SplineSet
28 4 m 1
 62 119 l 1
 536 119 l 1
 500 4 l 1
 28 4 l 1
129 336 m 1
 166 456 l 1
 640 456 l 1
 602 336 l 1
 129 336 l 1
387 620 m 1
 518 620 l 1
 378 172 l 1
 250 172 l 1
 387 620 l 1
EndSplineSet
EndChar

StartChar: uni00B2
Encoding: 178 178 114
GlifName: uni00B_2
Width: 365
VWidth: 0
Flags: HMW
LayerCount: 2
Fore
SplineSet
61 284 m 1
 306 482 l 2
 336 506 381 536 393 576 c 0
 401 602 393 630 362 634 c 0
 314 640 282 587 262 552 c 1
 177 552 l 1
 213 634 278 712 375 710 c 0
 449 710 502 650 480 576 c 0
 466 529 428 493 390 464 c 2
 254 362 l 1
 413 360 l 1
 385 282 l 1
 61 284 l 1
EndSplineSet
EndChar

StartChar: uni00B3
Encoding: 179 179 115
GlifName: uni00B_3
Width: 328
VWidth: 0
Flags: HMW
LayerCount: 2
Fore
SplineSet
252 486 m 1
 266 526 l 1
 303 534 351 546 365 588 c 0
 373 610 361 634 336 636 c 0
 302 638 278 607 260 584 c 1
 180 586 l 1
 213 652 268 706 347 706 c 0
 412 706 467 659 446 591 c 0
 421 509 326 492 252 486 c 1
210 272 m 0
 126 272 92 330 100 407 c 1
 181 406 l 1
 181 374 184 346 222 344 c 0
 256 342 299 372 309 404 c 0
 325 452 280 461 244 468 c 1
 258 512 l 1
 329 506 417 482 391 392 c 0
 369 317 284 272 210 272 c 0
EndSplineSet
EndChar

StartChar: acute
Encoding: 180 180 116
GlifName: acute
Width: 352
VWidth: 0
Flags: HMW
LayerCount: 2
Fore
SplineSet
464 650 m 1
 252 507 l 1
 187 550 l 1
 374 703 l 1
 464 650 l 1
EndSplineSet
EndChar

StartChar: mu
Encoding: 181 181 117
GlifName: mu
Width: 542
VWidth: 0
Flags: HMW
LayerCount: 2
Fore
SplineSet
292 460 m 1
 194 184 l 2
 180 145 191 104 240 104 c 0
 294 104 336 143 354 193 c 2
 450 460 l 1
 571 460 l 1
 416 0 l 1
 286 0 l 1
 304 53 l 1
 272 16 233 -5 192 -5 c 0
 166 -5 148 0 132 16 c 1
 18 -320 l 1
 -104 -320 l 1
 162 460 l 1
 292 460 l 1
EndSplineSet
EndChar

StartChar: paragraph
Encoding: 182 182 118
GlifName: paragraph
Width: 604
VWidth: 0
Flags: HMW
LayerCount: 2
Fore
SplineSet
308 272 m 1
 192 287 128 368 166 486 c 0
 208 616 323 700 454 700 c 2
 736 700 l 1
 422 -220 l 1
 311 -220 l 1
 596 616 l 1
 536 616 l 1
 250 -220 l 1
 140 -220 l 1
 308 272 l 1
EndSplineSet
EndChar

StartChar: periodcentered
Encoding: 183 183 119
GlifName: periodcentered
Width: 296
VWidth: 0
Flags: HMW
LayerCount: 2
Fore
SplineSet
104 262 m 0
 115 302 164 342 206 340 c 0
 249 338 273 298 262 258 c 0
 251 218 202 178 160 180 c 0
 117 182 93 222 104 262 c 0
EndSplineSet
EndChar

StartChar: uni00B9
Encoding: 185 185 120
GlifName: uni00B_9
Width: 449
VWidth: 0
Flags: HMW
LayerCount: 2
Fore
SplineSet
274 584 m 1
 300 662 l 1
 494 703 l 1
 346 274 l 1
 262 274 l 1
 376 608 l 1
 274 584 l 1
EndSplineSet
EndChar

StartChar: cedilla
Encoding: 184 184 121
GlifName: cedilla
Width: 357
VWidth: 0
Flags: HMW
LayerCount: 2
Fore
SplineSet
140 66 m 1
 239 64 l 1
 118 -54 l 1
 126 -52 131 -52 139 -52 c 0
 187 -58 210 -98 198 -144 c 0
 182 -206 111 -244 51 -245 c 0
 6 -247 -28 -229 -64 -204 c 1
 -10 -148 l 1
 8 -160 27 -172 50 -172 c 0
 70 -172 114 -156 118 -134 c 0
 122 -113 95 -103 80 -102 c 0
 54 -100 26 -110 -0 -116 c 1
 140 66 l 1
EndSplineSet
EndChar

StartChar: questiondown
Encoding: 191 191 122
GlifName: questiondown
Width: 569
VWidth: 0
Flags: HMW
LayerCount: 2
Fore
SplineSet
190 200 m 0
 170 142 201 99 262 97 c 0
 329 95 390 138 438 180 c 1
 508 106 l 1
 430 39 337 -18 231 -16 c 0
 110 -14 27 81 64 201 c 0
 102 321 217 388 333 414 c 1
 372 508 l 1
 477 508 l 1
 438 331 l 1
 412 331 l 1
 330 327 220 285 190 200 c 0
552 644 m 0
 542 606 490 571 452 573 c 0
 412 575 384 608 394 648 c 0
 404 686 455 722 493 720 c 0
 533 718 562 684 552 644 c 0
EndSplineSet
EndChar

StartChar: multiply
Encoding: 215 215 123
GlifName: multiply
Width: 560
VWidth: 0
Flags: HMW
LayerCount: 2
Fore
SplineSet
80 8 m 1
 26 98 l 1
 241 261 l 1
 137 426 l 1
 238 502 l 1
 334 336 l 1
 546 502 l 1
 600 412 l 1
 385 249 l 1
 489 84 l 1
 388 8 l 1
 292 174 l 1
 80 8 l 1
EndSplineSet
EndChar

StartChar: Oslash
Encoding: 216 216 124
GlifName: O_slash
Width: 743
VWidth: 0
Flags: HMW
LayerCount: 2
Fore
SplineSet
244 350 m 0
 206 248 231 123 360 121 c 0
 492 119 607 233 650 350 c 0
 688 452 663 577 534 579 c 0
 402 581 287 467 244 350 c 0
96 350 m 0
 158 546 350 715 562 714 c 0
 765 713 855 531 798 350 c 0
 736 154 542 -19 330 -18 c 0
 124 -17 39 170 96 350 c 0
850 753 m 1
 905 700 l 1
 39 -54 l 1
 -14 -4 l 1
 850 753 l 1
EndSplineSet
EndChar

StartChar: Thorn
Encoding: 222 222 125
GlifName: T_horn
Width: 557
VWidth: 0
Flags: HMW
LayerCount: 2
Fore
SplineSet
257 700 m 1
 384 700 l 1
 144 0 l 1
 20 0 l 1
 257 700 l 1
248 456 m 1
 290 574 l 1
 414 574 l 0
 544 570 638 487 596 351 c 0
 554 212 419 136 280 132 c 0
 138 132 l 1
 179 248 l 1
 304 248 l 1
 374 252 444 284 470 353 c 0
 494 419 452 451 390 455 c 1
 248 456 l 1
EndSplineSet
EndChar

StartChar: divide
Encoding: 247 247 126
GlifName: divide
Width: 596
VWidth: 0
Flags: HMW
LayerCount: 2
Fore
SplineSet
342 524 m 0
 353 564 402 604 444 602 c 0
 487 600 513 560 502 520 c 0
 491 480 442 440 400 442 c 0
 357 444 331 484 342 524 c 0
195 92 m 0
 206 132 255 172 297 170 c 0
 340 168 364 128 353 88 c 0
 342 48 294 8 252 10 c 0
 209 12 184 52 195 92 c 0
63 250 m 1
 104 368 l 1
 638 368 l 1
 596 249 l 1
 63 250 l 1
EndSplineSet
EndChar

StartChar: oslash
Encoding: 248 248 127
GlifName: oslash
Width: 513
VWidth: 0
Flags: HMW
LayerCount: 2
Fore
SplineSet
52 230 m 0
 94 364 227 470 369 470 c 0
 505 470 577 357 538 230 c 0
 496 96 364 -10 222 -10 c 0
 86 -10 13 103 52 230 c 0
173 230 m 0
 150 170 168 99 242 97 c 0
 318 95 394 162 418 230 c 0
 440 289 421 361 348 363 c 0
 272 365 198 297 173 230 c 0
536 503 m 1
 585 470 l 1
 43 -47 l 1
 -5 -16 l 1
 536 503 l 1
EndSplineSet
EndChar

StartChar: circumflex
Encoding: 710 710 128
GlifName: circumflex
Width: 451
VWidth: 0
Flags: HMW
LayerCount: 2
Fore
SplineSet
394 632 m 1
 272 546 l 1
 203 612 l 1
 420 748 l 1
 555 604 l 1
 456 546 l 1
 394 632 l 1
EndSplineSet
EndChar

StartChar: ogonek
Encoding: 731 731 129
GlifName: ogonek
Width: 244
VWidth: 0
Flags: HMW
LayerCount: 2
Fore
SplineSet
110 -116 m 1
 126 -182 l 1
 96 -202 63 -220 26 -220 c 0
 -32 -220 -77 -178 -62 -118 c 0
 -44 -43 45 -6 107 24 c 1
 145 0 l 1
 108 -24 47 -49 35 -96 c 0
 31 -113 35 -132 55 -136 c 0
 73 -139 96 -124 110 -116 c 1
EndSplineSet
EndChar

StartChar: tilde
Encoding: 732 732 130
GlifName: tilde
Width: 498
VWidth: 0
Flags: HMW
LayerCount: 2
Fore
SplineSet
236 636 m 1
 266 678 311 727 367 724 c 0
 409 722 434 673 477 676 c 0
 507 678 532 706 553 725 c 1
 601 658 l 1
 568 620 516 576 462 580 c 0
 420 584 394 634 352 629 c 0
 322 625 305 602 289 580 c 1
 236 636 l 1
EndSplineSet
EndChar

StartChar: ring
Encoding: 730 730 131
GlifName: ring
Width: 293
VWidth: 0
Flags: HMW
LayerCount: 2
Fore
SplineSet
244 776 m 0
 261 834 326 884 388 884 c 0
 450 884 487 831 470 772 c 0
 453 714 387 664 325 664 c 0
 263 664 227 718 244 776 c 0
312 773 m 0
 306 755 314 728 335 726 c 0
 359 722 396 756 402 776 c 0
 408 794 399 820 378 822 c 0
 354 826 318 793 312 773 c 0
EndSplineSet
EndChar

StartChar: dotaccent
Encoding: 729 729 132
GlifName: dotaccent
Width: 282
VWidth: 0
Flags: HMW
LayerCount: 2
Fore
SplineSet
287 809 m 0
 293 849 334 880 374 880 c 0
 415 880 446 847 440 806 c 0
 434 766 392 734 352 734 c 0
 311 734 281 768 287 809 c 0
EndSplineSet
EndChar

StartChar: uni2010
Encoding: 8208 8208 133
GlifName: uni2010
Width: 204
VWidth: 0
Flags: HMW
LayerCount: 2
Fore
SplineSet
10 180 m 1
 50 294 l 1
 252 294 l 1
 212 180 l 1
 10 180 l 1
EndSplineSet
EndChar

StartChar: endash
Encoding: 8211 8211 134
GlifName: endash
Width: 724
VWidth: 0
Flags: HMW
LayerCount: 2
Fore
SplineSet
72 180 m 1
 110 294 l 1
 705 294 l 1
 666 180 l 1
 72 180 l 1
EndSplineSet
EndChar

StartChar: figuredash
Encoding: 8210 8210 135
GlifName: figuredash
Width: 579
VWidth: 0
Flags: HMW
LayerCount: 2
Fore
SplineSet
72 180 m 1
 110 294 l 1
 558 294 l 1
 518 180 l 1
 72 180 l 1
EndSplineSet
EndChar

StartChar: emdash
Encoding: 8212 8212 136
GlifName: emdash
Width: 869
VWidth: 0
Flags: HMW
LayerCount: 2
Fore
SplineSet
72 180 m 1
 110 294 l 1
 852 294 l 1
 813 180 l 1
 72 180 l 1
EndSplineSet
EndChar

StartChar: minus
Encoding: 8722 8722 137
GlifName: minus
Width: 556
VWidth: 0
Flags: HMW
LayerCount: 2
Fore
SplineSet
64 180 m 1
 102 294 l 1
 550 294 l 1
 510 180 l 1
 64 180 l 1
EndSplineSet
EndChar

StartChar: quoteright
Encoding: 8217 8217 138
GlifName: quoteright
Width: 295
VWidth: 0
Flags: HMW
LayerCount: 2
Fore
SplineSet
280 700 m 1
 422 699 l 1
 238 454 l 1
 144 454 l 1
 280 700 l 1
EndSplineSet
EndChar

StartChar: quoteleft
Encoding: 8216 8216 139
GlifName: quoteleft
Width: 295
VWidth: 0
Flags: HMW
LayerCount: 2
Fore
SplineSet
300 453 m 1
 159 454 l 1
 342 698 l 1
 437 698 l 1
 300 453 l 1
EndSplineSet
EndChar

StartChar: quotesinglbase
Encoding: 8218 8218 140
GlifName: quotesinglbase
Width: 295
VWidth: 0
Flags: HMW
LayerCount: 2
Fore
SplineSet
78 80 m 1
 219 79 l 1
 36 -166 l 1
 -58 -166 l 1
 78 80 l 1
EndSplineSet
EndChar

StartChar: quotedblleft
Encoding: 8220 8220 141
GlifName: quotedblleft
Width: 503
VWidth: 0
Flags: HMW
LayerCount: 2
Fore
SplineSet
300 453 m 1
 159 454 l 1
 342 698 l 1
 437 698 l 1
 300 453 l 1
509 453 m 1
 368 454 l 1
 551 698 l 1
 646 698 l 1
 509 453 l 1
EndSplineSet
EndChar

StartChar: quotedblright
Encoding: 8221 8221 142
GlifName: quotedblright
Width: 503
VWidth: 0
Flags: HMW
LayerCount: 2
Fore
SplineSet
280 700 m 1
 422 699 l 1
 238 454 l 1
 144 454 l 1
 280 700 l 1
489 700 m 1
 631 699 l 1
 447 454 l 1
 352 454 l 1
 489 700 l 1
EndSplineSet
EndChar

StartChar: perthousand
Encoding: 8240 8240 143
GlifName: perthousand
Width: 1224
VWidth: 0
Flags: HMW
LayerCount: 2
Fore
SplineSet
860 162 m 0
 888 255 984 338 1084 338 c 0
 1182 338 1230 248 1204 160 c 0
 1176 67 1079 -16 979 -16 c 0
 881 -16 834 74 860 162 c 0
964 160 m 0
 954 130 962 91 1000 88 c 0
 1039 85 1086 127 1098 162 c 0
 1108 192 1100 233 1062 236 c 0
 1023 239 976 195 964 160 c 0
152 540 m 0
 180 633 276 716 376 716 c 0
 474 716 522 626 496 538 c 0
 468 445 372 362 272 362 c 0
 174 362 126 452 152 540 c 0
256 538 m 0
 246 508 254 468 292 465 c 0
 331 462 378 505 390 540 c 0
 400 570 393 610 355 613 c 0
 316 616 268 573 256 538 c 0
453 162 m 0
 481 255 576 338 676 338 c 0
 774 338 822 248 796 160 c 0
 768 67 672 -16 572 -16 c 0
 474 -16 427 74 453 162 c 0
558 160 m 0
 548 130 556 91 594 88 c 0
 633 85 680 127 692 162 c 0
 702 192 694 233 656 236 c 0
 617 239 570 195 558 160 c 0
766 699 m 1
 904 699 l 1
 182 0 l 1
 47 0 l 1
 766 699 l 1
EndSplineSet
EndChar

StartChar: guilsinglleft
Encoding: 8249 8249 144
GlifName: guilsinglleft
Width: 329
VWidth: 0
Flags: HMW
LayerCount: 2
Fore
SplineSet
168 254 m 1
 244 60 l 1
 152 6 l 1
 62 263 l 1
 312 502 l 1
 375 439 l 1
 168 254 l 1
EndSplineSet
EndChar

StartChar: guilsinglright
Encoding: 8250 8250 145
GlifName: guilsinglright
Width: 329
VWidth: 0
Flags: HMW
LayerCount: 2
Fore
SplineSet
227 256 m 1
 151 450 l 1
 242 504 l 1
 332 247 l 1
 83 8 l 1
 20 71 l 1
 227 256 l 1
EndSplineSet
EndChar

StartChar: uni2031
Encoding: 8241 8241 146
GlifName: uni2031
Width: 1631
VWidth: 0
Flags: HMW
LayerCount: 2
Fore
SplineSet
1267 162 m 0
 1295 255 1390 338 1490 338 c 0
 1588 338 1636 248 1610 160 c 0
 1582 67 1486 -16 1386 -16 c 0
 1288 -16 1241 74 1267 162 c 0
1372 160 m 0
 1362 130 1369 91 1407 88 c 0
 1446 85 1494 127 1506 162 c 0
 1516 192 1508 233 1470 236 c 0
 1431 239 1384 195 1372 160 c 0
860 162 m 0
 888 255 984 338 1084 338 c 0
 1182 338 1230 248 1204 160 c 0
 1176 67 1079 -16 979 -16 c 0
 881 -16 834 74 860 162 c 0
964 160 m 0
 954 130 962 91 1000 88 c 0
 1039 85 1086 127 1098 162 c 0
 1108 192 1100 233 1062 236 c 0
 1023 239 976 195 964 160 c 0
152 540 m 0
 180 633 276 716 376 716 c 0
 474 716 522 626 496 538 c 0
 468 445 372 362 272 362 c 0
 174 362 126 452 152 540 c 0
256 538 m 0
 246 508 254 468 292 465 c 0
 331 462 378 505 390 540 c 0
 400 570 393 610 355 613 c 0
 316 616 268 573 256 538 c 0
453 162 m 0
 481 255 576 338 676 338 c 0
 774 338 822 248 796 160 c 0
 768 67 672 -16 572 -16 c 0
 474 -16 427 74 453 162 c 0
558 160 m 0
 548 130 556 91 594 88 c 0
 633 85 680 127 692 162 c 0
 702 192 694 233 656 236 c 0
 617 239 570 195 558 160 c 0
766 699 m 1
 904 699 l 1
 182 0 l 1
 47 0 l 1
 766 699 l 1
EndSplineSet
EndChar

StartChar: uni203D
Encoding: 8253 8253 147
GlifName: uni203D_
Width: 569
VWidth: 0
Flags: HMW
LayerCount: 2
Fore
SplineSet
514 488 m 0
 539 554 503 602 434 603 c 0
 366 605 310 564 264 520 c 1
 193 594 l 1
 267 664 363 718 469 716 c 0
 589 714 673 619 636 499 c 0
 594 361 449 294 315 282 c 1
 306 348 l 1
 391 360 482 402 514 488 c 0
315 506 m 1
 445 505 l 1
 312 192 l 1
 232 192 l 1
 315 506 l 1
148 58 m 0
 158 98 210 133 250 131 c 0
 291 129 318 94 308 54 c 0
 298 14 248 -22 208 -20 c 0
 167 -18 138 18 148 58 c 0
EndSplineSet
EndChar

StartChar: Euro
Encoding: 8364 8364 148
GlifName: E_uro
Width: 594
VWidth: 0
Flags: HMW
LayerCount: 2
Fore
SplineSet
116 390 m 1
 142 462 l 1
 611 462 l 1
 586 390 l 1
 116 390 l 1
64 262 m 1
 89 334 l 1
 547 334 l 1
 522 262 l 1
 64 262 l 1
274 350 m 0
 244 266 221 110 351 106 c 0
 411 104 469 135 519 165 c 1
 476 24 l 1
 428 2 379 -16 326 -16 c 0
 126 -16 102 198 150 350 c 0
 206 524 360 717 560 716 c 0
 610 716 653 700 695 676 c 1
 651 533 l 1
 619 570 584 595 534 595 c 0
 404 595 313 458 274 350 c 0
EndSplineSet
EndChar

StartChar: fraction
Encoding: 8260 8260 149
GlifName: fraction
Width: 679
VWidth: 0
Flags: HMW
LayerCount: 2
Fore
SplineSet
724 698 m 1
 834 698 l 1
 106 0 l 1
 -3 0 l 1
 724 698 l 1
EndSplineSet
EndChar

StartChar: onequarter
Encoding: 188 188 150
GlifName: onequarter
Width: 753
VWidth: 0
Flags: HMW
LayerCount: 2
Fore
SplineSet
768 698 m 1
 862 698 l 1
 134 0 l 1
 41 0 l 1
 768 698 l 1
167 584 m 1
 194 662 l 1
 388 703 l 1
 240 274 l 1
 156 274 l 1
 270 608 l 1
 167 584 l 1
347 79 m 1
 434 140 l 1
 606 142 l 1
 620 152 l 1
 724 150 l 1
 698 78 l 1
 347 79 l 1
448 100 m 1
 342 75 l 1
 690 418 l 1
 754 420 l 1
 610 0 l 1
 521 0 l 1
 555 99 l 1
 565 105 l 1
 623 268 l 1
 448 100 l 1
EndSplineSet
EndChar

StartChar: onehalf
Encoding: 189 189 151
GlifName: onehalf
Width: 819
VWidth: 0
Flags: HMW
LayerCount: 2
Fore
SplineSet
768 698 m 1
 862 698 l 1
 134 0 l 1
 41 0 l 1
 768 698 l 1
167 584 m 1
 194 662 l 1
 388 703 l 1
 240 274 l 1
 156 274 l 1
 270 608 l 1
 167 584 l 1
414 4 m 1
 660 202 l 2
 690 226 734 256 746 296 c 0
 754 322 745 349 714 353 c 0
 666 359 635 307 615 272 c 1
 530 272 l 1
 566 354 631 432 728 430 c 0
 802 430 854 370 832 296 c 0
 818 249 780 213 742 184 c 2
 608 82 l 1
 766 80 l 1
 738 2 l 1
 414 4 l 1
EndSplineSet
EndChar

StartChar: threequarters
Encoding: 190 190 152
GlifName: threequarters
Width: 809
VWidth: 0
Flags: HMW
LayerCount: 2
Fore
SplineSet
829 698 m 1
 922 698 l 1
 194 0 l 1
 102 0 l 1
 829 698 l 1
260 486 m 1
 272 526 l 1
 309 534 357 546 371 588 c 0
 379 610 369 634 344 636 c 0
 310 638 285 607 267 584 c 1
 186 586 l 1
 219 652 275 706 354 706 c 0
 419 706 475 659 454 591 c 0
 429 509 334 492 260 486 c 1
216 272 m 0
 132 272 100 330 108 407 c 1
 188 406 l 1
 188 374 190 346 228 344 c 0
 262 342 306 372 316 404 c 0
 332 452 287 461 251 468 c 1
 266 512 l 1
 337 506 424 482 398 392 c 0
 376 317 290 272 216 272 c 0
404 79 m 1
 490 140 l 1
 664 142 l 1
 678 152 l 1
 781 150 l 1
 756 78 l 1
 404 79 l 1
504 100 m 1
 399 75 l 1
 747 418 l 1
 811 420 l 1
 666 0 l 1
 578 0 l 1
 612 99 l 1
 622 105 l 1
 680 268 l 1
 504 100 l 1
EndSplineSet
EndChar

StartChar: uni2150
Encoding: 8528 8528 153
GlifName: uni2150
Width: 857
VWidth: 0
Flags: HMW
LayerCount: 2
Fore
SplineSet
738 698 m 1
 847 698 l 1
 120 0 l 1
 10 0 l 1
 738 698 l 1
167 584 m 1
 194 662 l 1
 388 703 l 1
 240 274 l 1
 156 274 l 1
 270 608 l 1
 167 584 l 1
586 340 m 1
 614 420 l 1
 931 419 l 1
 596 0 l 1
 500 0 l 1
 771 338 l 1
 586 340 l 1
EndSplineSet
EndChar

StartChar: uni2151
Encoding: 8529 8529 154
GlifName: uni2151
Width: 802
VWidth: 0
Flags: HMW
LayerCount: 2
Fore
SplineSet
733 698 m 1
 842 698 l 1
 116 0 l 1
 7 0 l 1
 733 698 l 1
167 584 m 1
 194 662 l 1
 388 703 l 1
 240 274 l 1
 156 274 l 1
 270 608 l 1
 167 584 l 1
744 278 m 0
 756 312 745 353 704 355 c 0
 661 359 611 314 598 276 c 0
 586 242 597 201 638 198 c 0
 681 194 731 240 744 278 c 0
578 4 m 1
 462 6 l 1
 644 158 l 1
 665 162 l 1
 644 152 622 142 598 142 c 0
 524 144 498 216 516 278 c 0
 540 363 628 430 716 430 c 0
 803 430 852 358 826 276 c 0
 813 234 784 200 754 170 c 1
 578 4 l 1
EndSplineSet
EndChar

StartChar: uni2152
Encoding: 8530 8530 155
GlifName: uni2152
Width: 1102
VWidth: 0
Flags: HMW
LayerCount: 2
Fore
SplineSet
733 698 m 1
 842 698 l 1
 116 0 l 1
 7 0 l 1
 733 698 l 1
167 584 m 1
 194 662 l 1
 388 703 l 1
 240 274 l 1
 156 274 l 1
 270 608 l 1
 167 584 l 1
550 310 m 1
 577 390 l 1
 770 430 l 1
 622 2 l 1
 539 2 l 1
 652 334 l 1
 550 310 l 1
852 210 m 0
 838 172 810 73 876 69 c 0
 944 65 990 158 1010 210 c 0
 1024 248 1052 347 986 351 c 0
 918 355 872 262 852 210 c 0
769 210 m 0
 799 308 882 427 996 427 c 0
 1114 427 1119 297 1092 210 c 0
 1061 112 980 -7 864 -7 c 0
 746 -7 742 124 769 210 c 0
EndSplineSet
EndChar

StartChar: onethird
Encoding: 8531 8531 156
GlifName: onethird
Width: 787
VWidth: 0
Flags: HMW
LayerCount: 2
Fore
SplineSet
733 698 m 1
 842 698 l 1
 116 0 l 1
 6 0 l 1
 733 698 l 1
167 584 m 1
 194 662 l 1
 388 703 l 1
 240 274 l 1
 156 274 l 1
 270 608 l 1
 167 584 l 1
612 206 m 1
 626 246 l 1
 663 254 711 266 725 308 c 0
 733 330 723 354 698 356 c 0
 664 358 639 327 621 304 c 1
 540 306 l 1
 573 372 629 426 708 426 c 0
 773 426 829 379 808 311 c 0
 783 229 686 212 612 206 c 1
570 -8 m 0
 486 -8 454 50 462 127 c 1
 542 126 l 1
 542 94 544 66 582 64 c 0
 616 62 660 92 670 124 c 0
 686 172 640 181 604 188 c 1
 620 232 l 1
 691 226 777 202 751 112 c 0
 729 37 644 -8 570 -8 c 0
EndSplineSet
EndChar

StartChar: twothirds
Encoding: 8532 8532 157
GlifName: twothirds
Width: 911
VWidth: 0
Flags: HMW
LayerCount: 2
Fore
SplineSet
866 698 m 1
 975 698 l 1
 247 0 l 1
 138 0 l 1
 866 698 l 1
65 284 m 1
 312 482 l 2
 342 506 386 536 398 576 c 0
 406 602 397 629 366 633 c 0
 318 639 286 587 266 552 c 1
 181 552 l 1
 217 634 283 712 380 710 c 0
 454 710 506 650 484 576 c 0
 470 529 432 493 394 464 c 2
 259 362 l 1
 418 360 l 1
 390 282 l 1
 65 284 l 1
736 206 m 1
 750 246 l 1
 787 254 834 266 848 308 c 0
 856 330 845 354 820 356 c 0
 786 358 762 327 744 304 c 1
 663 306 l 1
 696 372 752 426 831 426 c 0
 896 426 952 379 931 311 c 0
 906 229 810 212 736 206 c 1
694 -8 m 0
 610 -8 576 50 584 127 c 1
 665 126 l 1
 665 94 668 66 706 64 c 0
 740 62 783 92 793 124 c 0
 809 172 764 181 728 188 c 1
 742 232 l 1
 813 226 902 202 876 112 c 0
 854 37 768 -8 694 -8 c 0
EndSplineSet
EndChar

StartChar: uni2155
Encoding: 8533 8533 158
GlifName: uni2155
Width: 777
VWidth: 0
Flags: HMW
LayerCount: 2
Fore
SplineSet
733 698 m 1
 842 698 l 1
 116 0 l 1
 7 0 l 1
 733 698 l 1
167 584 m 1
 194 662 l 1
 388 703 l 1
 240 274 l 1
 156 274 l 1
 270 608 l 1
 167 584 l 1
748 132 m 0
 724 48 637 -8 552 -8 c 0
 492 -8 448 18 412 58 c 1
 468 122 l 1
 488 95 511 71 550 71 c 0
 592 71 649 99 661 142 c 0
 671 180 646 206 610 210 c 0
 568 214 525 197 487 184 c 1
 551 228 l 1
 584 252 624 274 666 272 c 0
 742 270 768 197 748 132 c 0
662 342 m 1
 589 230 l 1
 476 174 l 1
 618 417 l 1
 840 418 l 1
 814 343 l 1
 662 342 l 1
EndSplineSet
EndChar

StartChar: uni2156
Encoding: 8534 8534 159
GlifName: uni2156
Width: 907
VWidth: 0
Flags: HMW
LayerCount: 2
Fore
SplineSet
866 698 m 1
 975 698 l 1
 247 0 l 1
 138 0 l 1
 866 698 l 1
65 284 m 1
 312 482 l 2
 342 506 386 536 398 576 c 0
 406 602 397 629 366 633 c 0
 318 639 286 587 266 552 c 1
 181 552 l 1
 217 634 283 712 380 710 c 0
 454 710 506 650 484 576 c 0
 470 529 432 493 394 464 c 2
 259 362 l 1
 418 360 l 1
 390 282 l 1
 65 284 l 1
872 132 m 0
 848 48 760 -8 675 -8 c 0
 615 -8 572 18 536 58 c 1
 592 122 l 1
 612 95 634 71 673 71 c 0
 715 71 772 99 784 142 c 0
 794 180 771 206 735 210 c 0
 693 214 648 197 610 184 c 1
 674 228 l 1
 707 252 748 274 790 272 c 0
 866 270 892 197 872 132 c 0
786 342 m 1
 712 230 l 1
 598 174 l 1
 742 417 l 1
 964 418 l 1
 937 343 l 1
 786 342 l 1
EndSplineSet
EndChar

StartChar: uni2157
Encoding: 8535 8535 160
GlifName: uni2157
Width: 846
VWidth: 0
Flags: HMW
LayerCount: 2
Fore
SplineSet
807 698 m 1
 916 698 l 1
 190 0 l 1
 80 0 l 1
 807 698 l 1
258 486 m 1
 270 526 l 1
 307 534 355 546 369 588 c 0
 377 610 367 634 342 636 c 0
 308 638 282 607 264 584 c 1
 184 586 l 1
 217 652 273 706 352 706 c 0
 417 706 473 659 452 591 c 0
 427 509 332 492 258 486 c 1
214 272 m 0
 130 272 98 330 106 407 c 1
 186 406 l 1
 186 374 188 346 226 344 c 0
 260 342 304 372 314 404 c 0
 330 452 285 461 249 468 c 1
 264 512 l 1
 335 506 422 482 396 392 c 0
 374 317 288 272 214 272 c 0
810 132 m 0
 786 48 699 -8 614 -8 c 0
 554 -8 510 18 474 58 c 1
 530 122 l 1
 550 95 571 71 610 71 c 0
 652 71 710 99 722 142 c 0
 732 180 708 206 672 210 c 0
 630 214 586 197 548 184 c 1
 612 228 l 1
 645 252 686 274 728 272 c 0
 804 270 830 197 810 132 c 0
724 342 m 1
 650 230 l 1
 536 174 l 1
 679 417 l 1
 901 418 l 1
 874 343 l 1
 724 342 l 1
EndSplineSet
EndChar

StartChar: uni2158
Encoding: 8536 8536 161
GlifName: uni2158
Width: 912
VWidth: 0
Flags: HMW
LayerCount: 2
Fore
SplineSet
856 698 m 1
 966 698 l 1
 239 0 l 1
 130 0 l 1
 856 698 l 1
86 359 m 1
 172 420 l 1
 345 422 l 1
 358 432 l 1
 462 430 l 1
 436 358 l 1
 86 359 l 1
186 380 m 1
 80 355 l 1
 428 698 l 1
 492 700 l 1
 348 280 l 1
 260 280 l 1
 294 379 l 1
 302 385 l 1
 362 548 l 1
 186 380 l 1
880 132 m 0
 856 48 768 -9 683 -9 c 0
 623 -9 580 17 544 57 c 1
 600 122 l 1
 620 95 641 70 680 70 c 0
 722 70 780 99 792 142 c 0
 802 180 778 206 742 210 c 0
 700 214 656 197 618 184 c 1
 682 228 l 1
 715 252 756 274 798 272 c 0
 874 270 900 197 880 132 c 0
793 342 m 1
 720 229 l 1
 606 172 l 1
 749 416 l 1
 971 417 l 1
 944 343 l 1
 793 342 l 1
EndSplineSet
EndChar

StartChar: uni2159
Encoding: 8537 8537 162
GlifName: uni2159
Width: 780
VWidth: 0
Flags: HMW
LayerCount: 2
Fore
SplineSet
746 698 m 1
 855 698 l 1
 128 0 l 1
 18 0 l 1
 746 698 l 1
167 584 m 1
 194 662 l 1
 388 703 l 1
 240 274 l 1
 156 274 l 1
 270 608 l 1
 167 584 l 1
524 142 m 0
 512 108 523 67 564 65 c 0
 607 61 657 106 670 144 c 0
 682 178 671 218 630 222 c 0
 587 226 537 180 524 142 c 0
691 416 m 1
 806 414 l 1
 626 262 l 1
 604 258 l 1
 625 268 646 278 670 278 c 0
 744 278 770 204 752 142 c 0
 728 57 642 -10 554 -10 c 0
 467 -10 416 62 442 144 c 0
 455 186 485 220 515 250 c 1
 691 416 l 1
EndSplineSet
EndChar

StartChar: uni215A
Encoding: 8538 8538 163
GlifName: uni215A_
Width: 854
VWidth: 0
Flags: HMW
LayerCount: 2
Fore
SplineSet
832 698 m 1
 941 698 l 1
 214 0 l 1
 105 0 l 1
 832 698 l 1
422 412 m 0
 398 328 311 272 226 272 c 0
 166 272 124 298 88 338 c 1
 144 402 l 1
 164 375 185 351 224 351 c 0
 266 351 324 379 336 422 c 0
 346 460 322 486 286 490 c 0
 244 494 200 477 162 464 c 1
 226 508 l 1
 259 532 299 554 341 552 c 0
 417 550 442 477 422 412 c 0
337 622 m 1
 264 510 l 1
 150 454 l 1
 293 697 l 1
 515 698 l 1
 488 623 l 1
 337 622 l 1
598 142 m 0
 586 108 597 67 638 65 c 0
 681 61 731 106 744 144 c 0
 756 178 745 218 704 222 c 0
 661 226 611 180 598 142 c 0
764 416 m 1
 880 414 l 1
 700 262 l 1
 678 258 l 1
 699 268 720 278 744 278 c 0
 818 278 844 204 826 142 c 0
 802 57 715 -10 627 -10 c 0
 540 -10 490 62 516 144 c 0
 529 186 558 220 588 250 c 1
 764 416 l 1
EndSplineSet
EndChar

StartChar: oneeighth
Encoding: 8539 8539 164
GlifName: oneeighth
Width: 801
VWidth: 0
Flags: HMW
LayerCount: 2
Fore
SplineSet
746 698 m 1
 855 698 l 1
 128 0 l 1
 18 0 l 1
 746 698 l 1
167 584 m 1
 194 662 l 1
 388 703 l 1
 240 274 l 1
 156 274 l 1
 270 608 l 1
 167 584 l 1
558 320 m 0
 576 384 652 428 717 428 c 0
 779 428 835 384 816 318 c 0
 798 252 722 208 656 208 c 0
 592 208 540 254 558 320 c 0
635 309 m 0
 628 287 635 259 661 257 c 0
 689 255 725 288 733 312 c 0
 740 334 734 361 708 363 c 0
 680 365 644 335 635 309 c 0
474 116 m 0
 494 189 578 236 651 236 c 0
 721 236 782 186 760 112 c 0
 740 40 654 -8 582 -8 c 0
 513 -8 453 44 474 116 c 0
561 126 m 0
 551 99 562 65 594 63 c 0
 628 61 671 97 681 128 c 0
 690 154 679 187 648 189 c 0
 614 191 572 155 561 126 c 0
EndSplineSet
EndChar

StartChar: threeeighths
Encoding: 8540 8540 165
GlifName: threeeighths
Width: 866
VWidth: 0
Flags: HMW
LayerCount: 2
Fore
SplineSet
812 698 m 1
 921 698 l 1
 194 0 l 1
 84 0 l 1
 812 698 l 1
258 486 m 1
 270 526 l 1
 307 534 355 546 369 588 c 0
 377 610 367 634 342 636 c 0
 308 638 282 607 264 584 c 1
 184 586 l 1
 217 652 273 706 352 706 c 0
 417 706 473 659 452 591 c 0
 427 509 332 492 258 486 c 1
214 272 m 0
 130 272 98 330 106 407 c 1
 186 406 l 1
 186 374 188 346 226 344 c 0
 260 342 304 372 314 404 c 0
 330 452 285 461 249 468 c 1
 264 512 l 1
 335 506 422 482 396 392 c 0
 374 317 288 272 214 272 c 0
624 320 m 0
 642 384 717 428 782 428 c 0
 844 428 900 384 881 318 c 0
 863 252 787 208 721 208 c 0
 657 208 606 254 624 320 c 0
700 309 m 0
 693 287 700 259 726 257 c 0
 754 255 791 288 799 312 c 0
 806 334 798 361 772 363 c 0
 744 365 709 335 700 309 c 0
540 116 m 0
 560 189 643 236 716 236 c 0
 786 236 847 186 825 112 c 0
 805 40 720 -8 648 -8 c 0
 579 -8 519 44 540 116 c 0
627 126 m 0
 617 99 628 65 660 63 c 0
 694 61 737 97 747 128 c 0
 756 154 745 187 714 189 c 0
 680 191 638 155 627 126 c 0
EndSplineSet
EndChar

StartChar: fiveeighths
Encoding: 8541 8541 166
GlifName: fiveeighths
Width: 886
VWidth: 0
Flags: HMW
LayerCount: 2
Fore
SplineSet
832 698 m 1
 941 698 l 1
 214 0 l 1
 105 0 l 1
 832 698 l 1
418 412 m 0
 394 328 307 272 222 272 c 0
 162 272 120 298 84 338 c 1
 140 402 l 1
 160 375 181 351 220 351 c 0
 262 351 320 379 332 422 c 0
 342 460 318 486 282 490 c 0
 240 494 196 477 158 464 c 1
 222 508 l 1
 255 532 295 554 337 552 c 0
 413 550 438 477 418 412 c 0
333 622 m 1
 260 510 l 1
 146 454 l 1
 288 697 l 1
 510 698 l 1
 484 623 l 1
 333 622 l 1
644 320 m 0
 662 384 738 428 803 428 c 0
 865 428 921 384 902 318 c 0
 884 252 808 208 742 208 c 0
 678 208 626 254 644 320 c 0
720 309 m 0
 713 287 720 259 746 257 c 0
 774 255 811 288 819 312 c 0
 826 334 819 361 793 363 c 0
 765 365 729 335 720 309 c 0
560 116 m 0
 580 189 664 236 737 236 c 0
 807 236 868 186 846 112 c 0
 826 40 740 -8 668 -8 c 0
 599 -8 539 44 560 116 c 0
648 126 m 0
 638 99 648 65 680 63 c 0
 714 61 757 97 767 128 c 0
 776 154 765 187 734 189 c 0
 700 191 659 155 648 126 c 0
EndSplineSet
EndChar

StartChar: seveneighths
Encoding: 8542 8542 167
GlifName: seveneighths
Width: 783
VWidth: 0
Flags: HMW
LayerCount: 2
Fore
SplineSet
724 698 m 1
 834 698 l 1
 106 0 l 1
 -3 0 l 1
 724 698 l 1
178 620 m 1
 206 700 l 1
 524 699 l 1
 188 282 l 1
 92 282 l 1
 364 618 l 1
 178 620 l 1
542 320 m 0
 560 384 635 428 700 428 c 0
 762 428 817 384 798 318 c 0
 780 252 704 208 638 208 c 0
 574 208 524 254 542 320 c 0
617 309 m 0
 610 287 616 259 642 257 c 0
 670 255 708 288 716 312 c 0
 723 334 716 361 690 363 c 0
 662 365 626 335 617 309 c 0
456 116 m 0
 476 189 561 236 634 236 c 0
 704 236 764 186 742 112 c 0
 722 40 637 -8 565 -8 c 0
 496 -8 435 44 456 116 c 0
544 126 m 0
 534 99 544 65 576 63 c 0
 610 61 654 97 664 128 c 0
 673 154 661 187 630 189 c 0
 596 191 555 155 544 126 c 0
EndSplineSet
EndChar

StartChar: uni2074
Encoding: 8308 8308 168
GlifName: uni2074
Width: 389
VWidth: 0
Flags: HMW
LayerCount: 2
Fore
SplineSet
81 359 m 1
 168 420 l 1
 340 422 l 1
 354 432 l 1
 458 430 l 1
 433 358 l 1
 81 359 l 1
182 380 m 1
 76 355 l 1
 425 698 l 1
 488 700 l 1
 344 280 l 1
 256 280 l 1
 290 379 l 1
 298 385 l 1
 357 548 l 1
 182 380 l 1
EndSplineSet
EndChar

StartChar: uni2075
Encoding: 8309 8309 169
GlifName: uni2075
Width: 355
VWidth: 0
Flags: HMW
LayerCount: 2
Fore
SplineSet
418 412 m 0
 394 328 307 272 222 272 c 0
 162 272 120 298 84 338 c 1
 140 402 l 1
 160 375 181 351 220 351 c 0
 262 351 320 379 332 422 c 0
 342 460 318 486 282 490 c 0
 240 494 196 477 158 464 c 1
 222 508 l 1
 255 532 295 554 337 552 c 0
 413 550 438 477 418 412 c 0
333 622 m 1
 260 510 l 1
 146 454 l 1
 288 697 l 1
 510 698 l 1
 484 623 l 1
 333 622 l 1
EndSplineSet
EndChar

StartChar: uni2076
Encoding: 8310 8310 170
GlifName: uni2076
Width: 349
VWidth: 0
Flags: HMW
LayerCount: 2
Fore
SplineSet
194 422 m 0
 182 388 195 347 236 345 c 0
 279 341 328 386 341 424 c 0
 353 458 343 498 302 502 c 0
 259 506 207 460 194 422 c 0
362 696 m 1
 476 694 l 1
 296 542 l 1
 274 538 l 1
 295 548 316 558 340 558 c 0
 414 558 441 484 423 422 c 0
 399 337 311 270 223 270 c 0
 136 270 86 342 112 424 c 0
 125 466 155 500 185 530 c 1
 362 696 l 1
EndSplineSet
EndChar

StartChar: uni2077
Encoding: 8311 8311 171
GlifName: uni2077
Width: 349
VWidth: 0
Flags: HMW
LayerCount: 2
Fore
SplineSet
178 620 m 1
 206 700 l 1
 524 699 l 1
 188 282 l 1
 92 282 l 1
 364 618 l 1
 178 620 l 1
EndSplineSet
EndChar

StartChar: uni2078
Encoding: 8312 8312 172
GlifName: uni2078
Width: 328
VWidth: 0
Flags: HMW
LayerCount: 2
Fore
SplineSet
186 600 m 0
 204 664 279 708 344 708 c 0
 406 708 461 664 442 598 c 0
 424 532 350 488 284 488 c 0
 220 488 168 534 186 600 c 0
261 589 m 0
 254 567 262 539 288 537 c 0
 316 535 353 568 361 592 c 0
 368 614 360 641 334 643 c 0
 306 645 270 615 261 589 c 0
102 396 m 0
 122 469 205 516 278 516 c 0
 348 516 409 466 387 392 c 0
 367 320 282 272 210 272 c 0
 141 272 81 324 102 396 c 0
189 406 m 0
 179 379 190 345 222 343 c 0
 256 341 298 377 308 408 c 0
 317 434 306 467 275 469 c 0
 241 471 200 435 189 406 c 0
EndSplineSet
EndChar

StartChar: uni2079
Encoding: 8313 8313 173
GlifName: uni2079
Width: 347
VWidth: 0
Flags: HMW
LayerCount: 2
Fore
SplineSet
389 558 m 0
 401 592 390 633 349 635 c 0
 306 639 257 594 244 556 c 0
 232 522 243 481 284 478 c 0
 327 474 376 520 389 558 c 0
222 284 m 1
 108 286 l 1
 288 438 l 1
 310 442 l 1
 289 432 268 422 244 422 c 0
 170 424 144 496 162 558 c 0
 186 643 272 710 360 710 c 0
 447 710 498 638 472 556 c 0
 459 514 428 480 398 450 c 1
 222 284 l 1
EndSplineSet
EndChar

StartChar: uni2070
Encoding: 8304 8304 174
GlifName: uni2070
Width: 361
VWidth: 0
Flags: HMW
LayerCount: 2
Fore
SplineSet
215 490 m 0
 201 452 173 353 239 349 c 0
 307 345 354 438 374 490 c 0
 388 528 416 627 350 631 c 0
 282 635 235 542 215 490 c 0
132 490 m 0
 162 588 246 707 360 707 c 0
 478 707 483 577 456 490 c 0
 425 392 344 273 228 273 c 0
 110 273 105 404 132 490 c 0
EndSplineSet
EndChar

StartChar: uni2080
Encoding: 8320 8320 175
GlifName: uni2080
Width: 361
VWidth: 0
Flags: HMW
LayerCount: 2
Fore
SplineSet
119 210 m 0
 105 172 77 73 143 69 c 0
 211 65 258 158 278 210 c 0
 292 248 320 347 254 351 c 0
 186 355 139 262 119 210 c 0
37 210 m 0
 67 308 151 427 265 427 c 0
 383 427 387 297 360 210 c 0
 329 112 248 -7 132 -7 c 0
 14 -7 10 124 37 210 c 0
EndSplineSet
EndChar

StartChar: uni2084
Encoding: 8324 8324 176
GlifName: uni2084
Width: 392
VWidth: 0
Flags: HMW
LayerCount: 2
Fore
SplineSet
-15 79 m 1
 72 140 l 1
 244 142 l 1
 258 152 l 1
 362 150 l 1
 336 78 l 1
 -15 79 l 1
86 100 m 1
 -20 75 l 1
 328 418 l 1
 392 420 l 1
 248 0 l 1
 159 0 l 1
 193 99 l 1
 202 105 l 1
 262 268 l 1
 86 100 l 1
EndSplineSet
EndChar

StartChar: uni2085
Encoding: 8325 8325 177
GlifName: uni2085
Width: 360
VWidth: 0
Flags: HMW
LayerCount: 2
Fore
SplineSet
326 132 m 0
 302 48 214 -8 129 -8 c 0
 69 -8 26 18 -10 58 c 1
 46 122 l 1
 66 95 87 71 126 71 c 0
 168 71 226 99 238 142 c 0
 248 180 224 206 188 210 c 0
 146 214 102 197 64 184 c 1
 128 228 l 1
 161 252 202 274 244 272 c 0
 320 270 346 197 326 132 c 0
240 342 m 1
 166 230 l 1
 52 174 l 1
 195 417 l 1
 416 418 l 1
 390 343 l 1
 240 342 l 1
EndSplineSet
EndChar

StartChar: uni2086
Encoding: 8326 8326 178
GlifName: uni2086
Width: 356
VWidth: 0
Flags: HMW
LayerCount: 2
Fore
SplineSet
101 142 m 0
 89 108 101 67 142 65 c 0
 185 61 235 106 248 144 c 0
 260 178 248 218 207 222 c 0
 164 226 114 180 101 142 c 0
268 416 m 1
 384 414 l 1
 202 262 l 1
 181 258 l 1
 202 268 222 278 246 278 c 0
 320 278 348 204 330 142 c 0
 306 57 218 -10 130 -10 c 0
 43 -10 -7 62 19 144 c 0
 32 186 62 220 92 250 c 1
 268 416 l 1
EndSplineSet
EndChar

StartChar: uni2087
Encoding: 8327 8327 179
GlifName: uni2087
Width: 352
VWidth: 0
Flags: HMW
LayerCount: 2
Fore
SplineSet
86 340 m 1
 113 420 l 1
 430 419 l 1
 95 0 l 1
 -1 0 l 1
 271 338 l 1
 86 340 l 1
EndSplineSet
EndChar

StartChar: uni2088
Encoding: 8328 8328 180
GlifName: uni2088
Width: 332
VWidth: 0
Flags: HMW
LayerCount: 2
Fore
SplineSet
93 320 m 0
 111 384 187 428 252 428 c 0
 314 428 369 384 350 318 c 0
 332 252 256 208 190 208 c 0
 126 208 75 254 93 320 c 0
169 309 m 0
 162 287 169 259 195 257 c 0
 223 255 260 288 268 312 c 0
 275 334 268 361 242 363 c 0
 214 365 178 335 169 309 c 0
9 116 m 0
 29 189 113 236 186 236 c 0
 256 236 316 186 294 112 c 0
 274 40 189 -8 117 -8 c 0
 48 -8 -12 44 9 116 c 0
96 126 m 0
 86 99 96 65 128 63 c 0
 162 61 206 97 216 128 c 0
 225 154 214 187 183 189 c 0
 149 191 107 155 96 126 c 0
EndSplineSet
EndChar

StartChar: uni2089
Encoding: 8329 8329 181
GlifName: uni2089
Width: 359
VWidth: 0
Flags: HMW
LayerCount: 2
Fore
SplineSet
290 278 m 0
 302 312 291 353 250 355 c 0
 207 359 157 314 144 276 c 0
 132 242 143 201 184 198 c 0
 227 194 277 240 290 278 c 0
124 4 m 1
 8 6 l 1
 189 158 l 1
 211 162 l 1
 190 152 168 142 144 142 c 0
 70 144 44 216 62 278 c 0
 86 363 174 430 262 430 c 0
 349 430 398 358 372 276 c 0
 359 234 330 200 300 170 c 1
 124 4 l 1
EndSplineSet
EndChar

StartChar: uni2081
Encoding: 8321 8321 182
GlifName: uni2081
Width: 325
VWidth: 0
Flags: HMW
LayerCount: 2
Fore
SplineSet
134 310 m 1
 162 390 l 1
 355 430 l 1
 206 2 l 1
 124 2 l 1
 236 334 l 1
 134 310 l 1
EndSplineSet
EndChar

StartChar: uni2082
Encoding: 8322 8322 183
GlifName: uni2082
Width: 367
VWidth: 0
Flags: HMW
LayerCount: 2
Fore
SplineSet
-33 4 m 1
 213 202 l 2
 243 226 288 256 300 296 c 0
 308 322 299 350 268 354 c 0
 220 360 188 307 168 272 c 1
 83 272 l 1
 119 354 185 432 282 430 c 0
 356 430 408 370 386 296 c 0
 372 249 334 213 296 184 c 2
 160 82 l 1
 319 80 l 1
 292 2 l 1
 -33 4 l 1
EndSplineSet
EndChar

StartChar: uni2083
Encoding: 8323 8323 184
GlifName: uni2083
Width: 332
VWidth: 0
Flags: HMW
LayerCount: 2
Fore
SplineSet
159 206 m 1
 172 246 l 1
 209 254 258 266 272 308 c 0
 280 330 269 354 244 356 c 0
 210 358 186 327 168 304 c 1
 86 306 l 1
 119 372 175 426 254 426 c 0
 319 426 375 379 354 311 c 0
 329 229 233 212 159 206 c 1
116 -8 m 0
 32 -8 0 50 8 127 c 1
 88 126 l 1
 88 94 90 66 128 64 c 0
 162 62 206 92 216 124 c 0
 232 172 186 181 150 188 c 1
 166 232 l 1
 237 226 324 202 298 112 c 0
 276 37 190 -8 116 -8 c 0
EndSplineSet
EndChar

StartChar: Agrave
Encoding: 192 192 185
GlifName: A_grave
Width: 669
VWidth: 0
Flags: HMW
LayerCount: 2
Fore
SplineSet
161 159 m 1
 216 271 l 1
 536 272 l 1
 513 158 l 1
 161 159 l 1
448 472 m 1
 266 230 l 1
 259 198 l 1
 104 0 l 1
 -60 0 l 1
 533 746 l 1
 614 0 l 1
 464 0 l 1
 444 193 l 1
 459 229 l 1
 448 472 l 1
462 956 m 1
 572 1001 l 1
 664 836 l 1
 588 802 l 1
 462 956 l 1
EndSplineSet
EndChar

StartChar: Aacute
Encoding: 193 193 186
GlifName: A_acute
Width: 669
VWidth: 0
Flags: HMW
LayerCount: 2
Fore
SplineSet
161 159 m 1
 216 271 l 1
 536 272 l 1
 513 158 l 1
 161 159 l 1
448 472 m 1
 266 230 l 1
 259 198 l 1
 104 0 l 1
 -60 0 l 1
 533 746 l 1
 614 0 l 1
 464 0 l 1
 444 193 l 1
 459 229 l 1
 448 472 l 1
749 946 m 1
 534 804 l 1
 468 845 l 1
 660 998 l 1
 749 946 l 1
EndSplineSet
EndChar

StartChar: Acircumflex
Encoding: 194 194 187
GlifName: A_circumflex
Width: 669
VWidth: 0
Flags: HMW
LayerCount: 2
Fore
SplineSet
161 159 m 1
 216 271 l 1
 536 272 l 1
 513 158 l 1
 161 159 l 1
448 472 m 1
 266 230 l 1
 259 198 l 1
 104 0 l 1
 -60 0 l 1
 533 746 l 1
 614 0 l 1
 464 0 l 1
 444 193 l 1
 459 229 l 1
 448 472 l 1
584 866 m 1
 462 780 l 1
 392 846 l 1
 610 981 l 1
 744 837 l 1
 644 778 l 1
 584 866 l 1
EndSplineSet
EndChar

StartChar: Atilde
Encoding: 195 195 188
GlifName: A_tilde
Width: 669
VWidth: 0
Flags: HMW
LayerCount: 2
Fore
SplineSet
161 159 m 1
 216 271 l 1
 536 272 l 1
 513 158 l 1
 161 159 l 1
448 472 m 1
 266 230 l 1
 259 198 l 1
 104 0 l 1
 -60 0 l 1
 533 746 l 1
 614 0 l 1
 464 0 l 1
 444 193 l 1
 459 229 l 1
 448 472 l 1
392 850 m 1
 423 892 468 940 526 937 c 0
 568 935 592 887 634 890 c 0
 665 892 690 920 712 939 c 1
 757 870 l 1
 723 834 672 790 618 794 c 0
 577 798 551 847 509 842 c 0
 479 838 461 815 444 794 c 1
 392 850 l 1
EndSplineSet
EndChar

StartChar: Adieresis
Encoding: 196 196 189
GlifName: A_dieresis
Width: 669
VWidth: 0
Flags: HMW
LayerCount: 2
Fore
SplineSet
161 159 m 1
 216 271 l 1
 536 272 l 1
 513 158 l 1
 161 159 l 1
448 472 m 1
 266 230 l 1
 259 198 l 1
 104 0 l 1
 -60 0 l 1
 533 746 l 1
 614 0 l 1
 464 0 l 1
 444 193 l 1
 459 229 l 1
 448 472 l 1
612 838 m 0
 622 874 670 911 708 909 c 0
 747 907 772 872 762 834 c 0
 752 798 704 761 666 763 c 0
 627 765 602 800 612 838 c 0
368 843 m 0
 378 879 426 915 464 913 c 0
 503 911 528 876 518 838 c 0
 508 802 460 766 422 768 c 0
 383 770 358 805 368 843 c 0
EndSplineSet
EndChar

StartChar: Aring
Encoding: 197 197 190
GlifName: A_ring
Width: 669
VWidth: 0
Flags: HMW
LayerCount: 2
Fore
SplineSet
161 159 m 1
 216 271 l 1
 536 272 l 1
 513 158 l 1
 161 159 l 1
448 472 m 1
 266 230 l 1
 259 198 l 1
 104 0 l 1
 -60 0 l 1
 533 746 l 1
 614 0 l 1
 464 0 l 1
 444 193 l 1
 459 229 l 1
 448 472 l 1
441 802 m 0
 458 860 523 910 585 910 c 0
 647 910 685 857 668 798 c 0
 651 740 584 690 522 690 c 0
 460 690 424 744 441 802 c 0
508 798 m 0
 502 780 511 754 532 752 c 0
 556 748 592 781 598 801 c 0
 604 819 596 846 575 848 c 0
 551 852 514 818 508 798 c 0
EndSplineSet
EndChar

StartChar: AE
Encoding: 198 198 191
GlifName: A_E_
Width: 984
VWidth: 0
Flags: HMW
LayerCount: 2
Fore
SplineSet
240 169 m 1
 290 301 l 1
 578 301 l 1
 532 168 l 1
 240 169 l 1
602 700 m 1
 713 656 l 1
 130 0 l 1
 -48 0 l 1
 602 700 l 1
512 0 m 1
 553 122 l 1
 910 122 l 1
 868 0 l 1
 512 0 l 1
725 578 m 1
 602 700 l 1
 1108 700 l 1
 1066 578 l 1
 725 578 l 1
618 312 m 1
 658 431 l 1
 998 431 l 1
 956 312 l 1
 618 312 l 1
682 700 m 1
 832 700 l 1
 592 0 l 1
 444 0 l 1
 682 700 l 1
EndSplineSet
EndChar

StartChar: Ccedilla
Encoding: 199 199 192
GlifName: C_cedilla
Width: 654
VWidth: 0
Flags: HMW
LayerCount: 2
Fore
SplineSet
248 350 m 0
 209 245 246 128 372 125 c 0
 460 123 542 170 612 218 c 1
 564 58 l 1
 494 15 419 -14 336 -14 c 0
 132 -12 38 168 96 350 c 0
 159 548 354 714 566 714 c 0
 640 714 702 689 758 640 c 1
 708 480 l 1
 670 542 617 575 543 575 c 0
 413 574 292 468 248 350 c 0
300 50 m 1
 400 47 l 1
 278 -70 l 1
 286 -68 293 -68 301 -68 c 0
 348 -74 372 -115 359 -160 c 0
 342 -220 272 -260 212 -262 c 0
 167 -264 133 -244 97 -220 c 1
 152 -165 l 1
 170 -177 188 -188 211 -188 c 0
 231 -188 276 -172 280 -150 c 0
 284 -129 257 -119 242 -118 c 0
 216 -116 186 -127 160 -133 c 1
 300 50 l 1
EndSplineSet
EndChar

StartChar: Egrave
Encoding: 200 200 193
GlifName: E_grave
Width: 552
VWidth: 0
Flags: HMW
LayerCount: 2
Fore
SplineSet
102 0 m 1
 144 122 l 1
 482 122 l 1
 440 0 l 1
 102 0 l 1
300 579 m 1
 342 700 l 1
 679 700 l 1
 637 578 l 1
 300 579 l 1
210 312 m 1
 250 431 l 1
 568 431 l 1
 526 312 l 1
 210 312 l 1
253 700 m 1
 390 700 l 1
 150 0 l 1
 16 0 l 1
 253 700 l 1
400 932 m 1
 510 978 l 1
 601 814 l 1
 526 778 l 1
 400 932 l 1
EndSplineSet
EndChar

StartChar: Eacute
Encoding: 201 201 194
GlifName: E_acute
Width: 552
VWidth: 0
Flags: HMW
LayerCount: 2
Fore
SplineSet
102 0 m 1
 144 122 l 1
 482 122 l 1
 440 0 l 1
 102 0 l 1
300 579 m 1
 342 700 l 1
 679 700 l 1
 637 578 l 1
 300 579 l 1
210 312 m 1
 250 431 l 1
 568 431 l 1
 526 312 l 1
 210 312 l 1
253 700 m 1
 390 700 l 1
 150 0 l 1
 16 0 l 1
 253 700 l 1
687 922 m 1
 471 780 l 1
 406 822 l 1
 598 976 l 1
 687 922 l 1
EndSplineSet
EndChar

StartChar: Ecircumflex
Encoding: 202 202 195
GlifName: E_circumflex
Width: 552
VWidth: 0
Flags: HMW
LayerCount: 2
Fore
SplineSet
102 0 m 1
 144 122 l 1
 482 122 l 1
 440 0 l 1
 102 0 l 1
300 579 m 1
 342 700 l 1
 679 700 l 1
 637 578 l 1
 300 579 l 1
210 312 m 1
 250 431 l 1
 568 431 l 1
 526 312 l 1
 210 312 l 1
253 700 m 1
 390 700 l 1
 150 0 l 1
 16 0 l 1
 253 700 l 1
540 876 m 1
 402 784 l 1
 360 828 l 1
 555 964 l 1
 665 820 l 1
 610 784 l 1
 540 876 l 1
EndSplineSet
EndChar

StartChar: Edieresis
Encoding: 203 203 196
GlifName: E_dieresis
Width: 552
VWidth: 0
Flags: HMW
LayerCount: 2
Fore
SplineSet
102 0 m 1
 144 122 l 1
 482 122 l 1
 440 0 l 1
 102 0 l 1
300 579 m 1
 342 700 l 1
 679 700 l 1
 637 578 l 1
 300 579 l 1
210 312 m 1
 250 431 l 1
 568 431 l 1
 526 312 l 1
 210 312 l 1
253 700 m 1
 390 700 l 1
 150 0 l 1
 16 0 l 1
 253 700 l 1
558 862 m 0
 568 898 616 934 654 932 c 0
 693 930 720 895 710 857 c 0
 700 821 652 785 614 787 c 0
 575 789 548 824 558 862 c 0
342 862 m 0
 352 898 398 934 436 932 c 0
 475 930 502 895 492 857 c 0
 482 821 435 785 397 787 c 0
 358 789 332 824 342 862 c 0
EndSplineSet
EndChar

StartChar: Igrave
Encoding: 204 204 197
GlifName: I_grave
Width: 279
VWidth: 0
Flags: HMW
LayerCount: 2
Fore
SplineSet
253 700 m 1
 397 700 l 1
 156 0 l 1
 16 0 l 1
 253 700 l 1
255 932 m 1
 365 978 l 1
 456 814 l 1
 380 778 l 1
 255 932 l 1
EndSplineSet
EndChar

StartChar: Iacute
Encoding: 205 205 198
GlifName: I_acute
Width: 279
VWidth: 0
Flags: HMW
LayerCount: 2
Fore
SplineSet
253 700 m 1
 397 700 l 1
 156 0 l 1
 16 0 l 1
 253 700 l 1
542 922 m 1
 326 780 l 1
 261 822 l 1
 453 976 l 1
 542 922 l 1
EndSplineSet
EndChar

StartChar: Icircumflex
Encoding: 206 206 199
GlifName: I_circumflex
Width: 279
VWidth: 0
Flags: HMW
LayerCount: 2
Fore
SplineSet
253 700 m 1
 397 700 l 1
 156 0 l 1
 16 0 l 1
 253 700 l 1
388 876 m 1
 250 784 l 1
 210 828 l 1
 404 964 l 1
 514 820 l 1
 460 784 l 1
 388 876 l 1
EndSplineSet
EndChar

StartChar: Idieresis
Encoding: 207 207 200
GlifName: I_dieresis
Width: 279
VWidth: 0
Flags: HMW
LayerCount: 2
Fore
SplineSet
253 700 m 1
 397 700 l 1
 156 0 l 1
 16 0 l 1
 253 700 l 1
409 851 m 0
 419 887 466 923 504 921 c 0
 543 919 570 884 560 846 c 0
 550 810 502 773 464 775 c 0
 424 777 399 813 409 851 c 0
192 851 m 0
 202 887 248 923 286 921 c 0
 325 919 352 884 342 846 c 0
 332 810 284 773 246 775 c 0
 206 777 182 813 192 851 c 0
EndSplineSet
EndChar

StartChar: Ntilde
Encoding: 209 209 201
GlifName: N_tilde
Width: 740
VWidth: 0
Flags: HMW
LayerCount: 2
Fore
SplineSet
722 700 m 1
 858 700 l 1
 607 -32 l 1
 300 434 l 1
 150 0 l 1
 14 0 l 1
 264 732 l 1
 572 266 l 1
 722 700 l 1
398 824 m 1
 429 866 472 914 530 911 c 0
 572 909 596 859 638 862 c 0
 669 864 696 893 718 912 c 1
 762 844 l 1
 728 808 676 763 622 767 c 0
 581 771 556 821 514 816 c 0
 484 812 465 788 448 767 c 1
 398 824 l 1
EndSplineSet
EndChar

StartChar: Eth
Encoding: 208 208 202
GlifName: E_th
Width: 674
VWidth: 0
Flags: HMW
LayerCount: 2
Fore
SplineSet
54 306 m 1
 86 397 l 1
 405 397 l 1
 373 304 l 1
 54 306 l 1
253 700 m 1
 398 700 l 1
 158 0 l 1
 16 0 l 1
 253 700 l 1
250 0 m 0
 101 0 l 1
 147 131 l 1
 274 131 l 0
 408 137 519 226 565 350 c 0
 607 463 568 563 440 569 c 1
 296 570 l 1
 342 700 l 1
 472 700 l 0
 672 694 769 537 709 350 c 0
 645 150 460 6 250 0 c 0
EndSplineSet
EndChar

StartChar: Ograve
Encoding: 210 210 203
GlifName: O_grave
Width: 763
VWidth: 0
Flags: HMW
LayerCount: 2
Fore
SplineSet
244 350 m 0
 207 248 232 123 360 121 c 0
 492 119 607 234 650 350 c 0
 688 452 663 577 534 579 c 0
 402 581 286 466 244 350 c 0
96 350 m 0
 158 546 352 714 562 714 c 0
 766 714 855 531 798 350 c 0
 736 154 542 -19 330 -18 c 0
 124 -17 39 169 96 350 c 0
514 932 m 1
 622 978 l 1
 714 814 l 1
 638 778 l 1
 514 932 l 1
EndSplineSet
EndChar

StartChar: Oacute
Encoding: 211 211 204
GlifName: O_acute
Width: 763
VWidth: 0
Flags: HMW
LayerCount: 2
Fore
SplineSet
244 350 m 0
 207 248 232 123 360 121 c 0
 492 119 607 234 650 350 c 0
 688 452 663 577 534 579 c 0
 402 581 286 466 244 350 c 0
96 350 m 0
 158 546 352 714 562 714 c 0
 766 714 855 531 798 350 c 0
 736 154 542 -19 330 -18 c 0
 124 -17 39 169 96 350 c 0
788 922 m 1
 573 780 l 1
 508 822 l 1
 699 976 l 1
 788 922 l 1
EndSplineSet
EndChar

StartChar: Ocircumflex
Encoding: 212 212 205
GlifName: O_circumflex
Width: 763
VWidth: 0
Flags: HMW
LayerCount: 2
Fore
SplineSet
244 350 m 0
 207 248 232 123 360 121 c 0
 492 119 607 234 650 350 c 0
 688 452 663 577 534 579 c 0
 402 581 286 466 244 350 c 0
96 350 m 0
 158 546 352 714 562 714 c 0
 766 714 855 531 798 350 c 0
 736 154 542 -19 330 -18 c 0
 124 -17 39 169 96 350 c 0
641 876 m 1
 503 784 l 1
 462 828 l 1
 658 964 l 1
 768 820 l 1
 712 784 l 1
 641 876 l 1
EndSplineSet
EndChar

StartChar: Otilde
Encoding: 213 213 206
GlifName: O_tilde
Width: 763
VWidth: 0
Flags: HMW
LayerCount: 2
Fore
SplineSet
244 350 m 0
 207 248 232 123 360 121 c 0
 492 119 607 234 650 350 c 0
 688 452 663 577 534 579 c 0
 402 581 286 466 244 350 c 0
96 350 m 0
 158 546 352 714 562 714 c 0
 766 714 855 531 798 350 c 0
 736 154 542 -19 330 -18 c 0
 124 -17 39 169 96 350 c 0
456 835 m 1
 446 875 548 913 576 912 c 0
 615 910 637 865 677 868 c 0
 705 870 729 897 749 914 c 1
 784 868 l 1
 754 837 714 796 666 800 c 0
 628 803 606 846 568 844 c 0
 538 842 517 816 500 795 c 1
 456 835 l 1
EndSplineSet
EndChar

StartChar: Odieresis
Encoding: 214 214 207
GlifName: O_dieresis
Width: 763
VWidth: 0
Flags: HMW
LayerCount: 2
Fore
SplineSet
244 350 m 0
 207 248 232 123 360 121 c 0
 492 119 607 234 650 350 c 0
 688 452 663 577 534 579 c 0
 402 581 286 466 244 350 c 0
96 350 m 0
 158 546 352 714 562 714 c 0
 766 714 855 531 798 350 c 0
 736 154 542 -19 330 -18 c 0
 124 -17 39 169 96 350 c 0
650 851 m 0
 660 887 708 923 746 921 c 0
 785 919 812 884 802 846 c 0
 792 810 744 773 706 775 c 0
 667 777 640 813 650 851 c 0
434 851 m 0
 444 887 490 923 528 921 c 0
 567 919 594 884 584 846 c 0
 574 810 527 773 489 775 c 0
 450 777 424 813 434 851 c 0
EndSplineSet
EndChar

StartChar: Ugrave
Encoding: 217 217 208
GlifName: U_grave
Width: 638
VWidth: 0
Flags: HMW
LayerCount: 2
Fore
SplineSet
250 700 m 1
 390 700 l 1
 229 238 l 2
 211 178 218 110 294 108 c 0
 372 106 432 172 460 239 c 1
 620 700 l 1
 760 700 l 1
 600 230 l 2
 548 88 422 -22 266 -22 c 0
 118 -22 50 93 90 230 c 0
 250 700 l 1
438 928 m 1
 546 974 l 1
 638 809 l 1
 562 774 l 1
 438 928 l 1
EndSplineSet
EndChar

StartChar: Uacute
Encoding: 218 218 209
GlifName: U_acute
Width: 638
VWidth: 0
Flags: HMW
LayerCount: 2
Fore
SplineSet
250 700 m 1
 390 700 l 1
 229 238 l 2
 211 178 218 110 294 108 c 0
 372 106 432 172 460 239 c 1
 620 700 l 1
 760 700 l 1
 600 230 l 2
 548 88 422 -22 266 -22 c 0
 118 -22 50 93 90 230 c 0
 250 700 l 1
726 918 m 1
 510 776 l 1
 444 818 l 1
 636 972 l 1
 726 918 l 1
EndSplineSet
EndChar

StartChar: Ucircumflex
Encoding: 219 219 210
GlifName: U_circumflex
Width: 638
VWidth: 0
Flags: HMW
LayerCount: 2
Fore
SplineSet
250 700 m 1
 390 700 l 1
 229 238 l 2
 211 178 218 110 294 108 c 0
 372 106 432 172 460 239 c 1
 620 700 l 1
 760 700 l 1
 600 230 l 2
 548 88 422 -22 266 -22 c 0
 118 -22 50 93 90 230 c 0
 250 700 l 1
566 861 m 1
 444 775 l 1
 375 841 l 1
 592 976 l 1
 726 832 l 1
 626 774 l 1
 566 861 l 1
EndSplineSet
EndChar

StartChar: Udieresis
Encoding: 220 220 211
GlifName: U_dieresis
Width: 638
VWidth: 0
Flags: HMW
LayerCount: 2
Fore
SplineSet
250 700 m 1
 390 700 l 1
 229 238 l 2
 211 178 218 110 294 108 c 0
 372 106 432 172 460 239 c 1
 620 700 l 1
 760 700 l 1
 600 230 l 2
 548 88 422 -22 266 -22 c 0
 118 -22 50 93 90 230 c 0
 250 700 l 1
600 851 m 0
 610 887 658 923 696 921 c 0
 735 919 761 884 751 846 c 0
 741 810 694 773 656 775 c 0
 617 777 590 813 600 851 c 0
358 851 m 0
 368 887 416 923 454 921 c 0
 493 919 519 884 509 846 c 0
 499 810 451 773 413 775 c 0
 374 777 348 813 358 851 c 0
EndSplineSet
EndChar

StartChar: Yacute
Encoding: 221 221 212
GlifName: Y_acute
Width: 592
VWidth: 0
Flags: HMW
LayerCount: 2
Fore
SplineSet
702 918 m 1
 487 775 l 1
 422 818 l 1
 614 972 l 1
 702 918 l 1
617 699 m 1
 784 699 l 1
 411 283 l 1
 313 0 l 1
 170 0 l 1
 274 297 l 1
 188 700 l 1
 340 700 l 1
 382 424 l 1
 617 699 l 1
EndSplineSet
EndChar

StartChar: agrave
Encoding: 224 224 213
GlifName: agrave
Width: 494
VWidth: 0
Flags: HMW
LayerCount: 2
Fore
SplineSet
140 136 m 0
 130 102 154 84 186 82 c 0
 254 78 300 129 332 183 c 1
 332 128 l 1
 293 48 223 -9 129 -9 c 0
 48 -9 -13 44 11 128 c 0
 39 226 147 280 244 280 c 0
 298 280 342 264 380 227 c 1
 362 166 l 1
 331 191 300 206 258 204 c 0
 214 202 154 182 140 136 c 0
170 328 m 1
 150 420 l 1
 214 448 281 472 351 472 c 0
 439 472 526 426 501 326 c 1
 390 0 l 1
 266 0 l 1
 376 305 l 1
 380 345 364 364 322 368 c 0
 270 372 216 348 170 328 c 1
272 686 m 1
 381 731 l 1
 472 566 l 1
 396 532 l 1
 272 686 l 1
EndSplineSet
Substitution2: "alt a" agrave.alt
EndChar

StartChar: aacute
Encoding: 225 225 214
GlifName: aacute
Width: 494
VWidth: 0
Flags: HMW
LayerCount: 2
Fore
SplineSet
140 136 m 0
 130 102 154 84 186 82 c 0
 254 78 300 129 332 183 c 1
 332 128 l 1
 293 48 223 -9 129 -9 c 0
 48 -9 -13 44 11 128 c 0
 39 226 147 280 244 280 c 0
 298 280 342 264 380 227 c 1
 362 166 l 1
 331 191 300 206 258 204 c 0
 214 202 154 182 140 136 c 0
170 328 m 1
 150 420 l 1
 214 448 281 472 351 472 c 0
 439 472 526 426 501 326 c 1
 390 0 l 1
 266 0 l 1
 376 305 l 1
 380 345 364 364 322 368 c 0
 270 372 216 348 170 328 c 1
591 676 m 1
 375 534 l 1
 310 576 l 1
 502 730 l 1
 591 676 l 1
EndSplineSet
Substitution2: "alt a" aacute.alt
EndChar

StartChar: acircumflex
Encoding: 226 226 215
GlifName: acircumflex
Width: 494
VWidth: 0
Flags: HMW
LayerCount: 2
Fore
SplineSet
140 136 m 0
 130 102 154 84 186 82 c 0
 254 78 300 129 332 183 c 1
 332 128 l 1
 293 48 223 -9 129 -9 c 0
 48 -9 -13 44 11 128 c 0
 39 226 147 280 244 280 c 0
 298 280 342 264 380 227 c 1
 362 166 l 1
 331 191 300 206 258 204 c 0
 214 202 154 182 140 136 c 0
170 328 m 1
 150 420 l 1
 214 448 281 472 351 472 c 0
 439 472 526 426 501 326 c 1
 390 0 l 1
 266 0 l 1
 376 305 l 1
 380 345 364 364 322 368 c 0
 270 372 216 348 170 328 c 1
416 618 m 1
 294 533 l 1
 224 599 l 1
 442 734 l 1
 576 590 l 1
 476 532 l 1
 416 618 l 1
EndSplineSet
Substitution2: "alt a" acircumflex.alt
EndChar

StartChar: atilde
Encoding: 227 227 216
GlifName: atilde
Width: 494
VWidth: 0
Flags: HMW
LayerCount: 2
Fore
SplineSet
140 136 m 0
 130 102 154 84 186 82 c 0
 254 78 300 129 332 183 c 1
 332 128 l 1
 293 48 223 -9 129 -9 c 0
 48 -9 -13 44 11 128 c 0
 39 226 147 280 244 280 c 0
 298 280 342 264 380 227 c 1
 362 166 l 1
 331 191 300 206 258 204 c 0
 214 202 154 182 140 136 c 0
170 328 m 1
 150 420 l 1
 214 448 281 472 351 472 c 0
 439 472 526 426 501 326 c 1
 390 0 l 1
 266 0 l 1
 376 305 l 1
 380 345 364 364 322 368 c 0
 270 372 216 348 170 328 c 1
222 592 m 1
 253 634 296 682 354 679 c 0
 396 677 420 628 462 631 c 0
 493 633 519 661 541 680 c 1
 586 612 l 1
 552 576 500 532 446 536 c 0
 405 540 379 589 337 584 c 0
 307 580 289 556 272 535 c 1
 222 592 l 1
EndSplineSet
Substitution2: "alt a" atilde.alt
EndChar

StartChar: adieresis
Encoding: 228 228 217
GlifName: adieresis
Width: 494
VWidth: 0
Flags: HMW
LayerCount: 2
Fore
SplineSet
140 136 m 0
 130 102 154 84 186 82 c 0
 254 78 300 129 332 183 c 1
 332 128 l 1
 293 48 223 -9 129 -9 c 0
 48 -9 -13 44 11 128 c 0
 39 226 147 280 244 280 c 0
 298 280 342 264 380 227 c 1
 362 166 l 1
 331 191 300 206 258 204 c 0
 214 202 154 182 140 136 c 0
170 328 m 1
 150 420 l 1
 214 448 281 472 351 472 c 0
 439 472 526 426 501 326 c 1
 390 0 l 1
 266 0 l 1
 376 305 l 1
 380 345 364 364 322 368 c 0
 270 372 216 348 170 328 c 1
438 608 m 0
 448 644 495 681 533 679 c 0
 572 677 598 642 588 604 c 0
 578 568 530 531 492 533 c 0
 453 535 428 570 438 608 c 0
221 608 m 0
 231 644 278 681 316 679 c 0
 355 677 380 642 370 604 c 0
 360 568 314 531 276 533 c 0
 237 535 211 570 221 608 c 0
EndSplineSet
Substitution2: "alt a" adieresis.alt
EndChar

StartChar: aring
Encoding: 229 229 218
GlifName: aring
Width: 494
VWidth: 0
Flags: HMW
LayerCount: 2
Fore
SplineSet
140 136 m 0
 130 102 154 84 186 82 c 0
 254 78 300 129 332 183 c 1
 332 128 l 1
 293 48 223 -9 129 -9 c 0
 48 -9 -13 44 11 128 c 0
 39 226 147 280 244 280 c 0
 298 280 342 264 380 227 c 1
 362 166 l 1
 331 191 300 206 258 204 c 0
 214 202 154 182 140 136 c 0
170 328 m 1
 150 420 l 1
 214 448 281 472 351 472 c 0
 439 472 526 426 501 326 c 1
 390 0 l 1
 266 0 l 1
 376 305 l 1
 380 345 364 364 322 368 c 0
 270 372 216 348 170 328 c 1
304 646 m 0
 321 704 386 753 448 753 c 0
 510 753 547 701 530 642 c 0
 513 584 448 533 386 533 c 0
 324 533 287 588 304 646 c 0
372 642 m 0
 366 624 374 597 395 595 c 0
 419 591 456 624 462 644 c 0
 468 662 459 690 438 692 c 0
 414 696 378 662 372 642 c 0
EndSplineSet
Substitution2: "alt a" aring.alt
EndChar

StartChar: germandbls
Encoding: 223 223 219
GlifName: germandbls
Width: 591
VWidth: 0
Flags: HMW
LayerCount: 2
Fore
SplineSet
381 -12 m 0
 325 -12 250 8 216 36 c 1
 252 136 l 1
 280 112 318 96 352 96 c 0
 406 96 444 136 444 186 c 0
 444 288 330 294 330 386 c 0
 330 490 522 510 522 618 c 0
 522 660 497 680 457 680 c 0
 391 680 348 636 324 562 c 2
 135 -2 l 1
 4 -2 l 1
 194 569 l 2
 237 697 307 796 482 796 c 0
 584 796 658 726 658 640 c 0
 658 490 469 458 469 392 c 0
 469 326 578 334 578 190 c 0
 578 78 497 -12 381 -12 c 0
EndSplineSet
EndChar

StartChar: ae
Encoding: 230 230 220
GlifName: ae
Width: 846
VWidth: 0
Flags: HMW
LayerCount: 2
Fore
SplineSet
158 -10 m 0
 40 -10 -7 48 7 122 c 0
 19 208 114 281 238 281 c 0
 295 281 339 268 413 226 c 1
 355 226 l 1
 378 299 l 2
 392 348 366 370 321 370 c 0
 277 370 214 352 172 328 c 1
 142 418 l 1
 214 454 284 472 350 472 c 0
 446 472 495 435 476 359 c 1
 454 342 l 1
 504 414 588 470 696 470 c 0
 810 470 868 403 846 276 c 0
 843 245 834 219 826 202 c 1
 464 202 l 1
 488 220 l 1
 464 152 480 89 554 89 c 0
 608 89 659 112 688 156 c 1
 799 120 l 1
 733 33 636 -10 538 -10 c 0
 438 -10 382 26 368 105 c 1
 385 104 l 1
 339 32 265 -10 158 -10 c 0
210 80 m 0
 272 80 320 116 351 188 c 1
 339 128 l 1
 346 203 l 1
 359 176 l 1
 329 196 290 206 250 206 c 0
 194 206 144 178 140 132 c 0
 137 94 158 80 210 80 c 0
490 237 m 1
 478 281 l 1
 738 281 l 1
 710 250 l 1
 714 257 714 258 714 266 c 0
 722 337 716 378 651 378 c 0
 579 378 530 327 490 237 c 1
EndSplineSet
EndChar

StartChar: ccedilla
Encoding: 231 231 221
GlifName: ccedilla
Width: 459
VWidth: 0
Flags: HMW
LayerCount: 2
Fore
SplineSet
178 230 m 0
 155 168 177 101 250 98 c 0
 312 96 369 132 415 168 c 1
 376 36 l 1
 329 8 278 -10 222 -10 c 0
 87 -10 11 103 50 230 c 0
 92 366 227 470 369 470 c 0
 421 470 463 454 503 424 c 1
 462 290 l 1
 442 336 409 363 357 362 c 0
 281 361 204 300 178 230 c 0
190 58 m 1
 288 56 l 1
 168 -62 l 1
 176 -60 182 -60 190 -60 c 0
 237 -66 261 -107 248 -152 c 0
 231 -212 161 -251 101 -253 c 0
 56 -255 22 -236 -14 -212 c 1
 41 -156 l 1
 59 -168 77 -180 100 -180 c 0
 120 -180 165 -162 169 -140 c 0
 173 -119 146 -111 131 -110 c 0
 105 -108 76 -118 50 -124 c 1
 190 58 l 1
EndSplineSet
EndChar

StartChar: egrave
Encoding: 232 232 222
GlifName: egrave
Width: 522
VWidth: 0
Flags: HMW
LayerCount: 2
Fore
SplineSet
117 202 m 1
 142 280 l 1
 398 281 l 1
 405 327 402 376 345 378 c 0
 273 382 219 313 191 255 c 2
 179 230 l 1
 157 172 158 95 234 90 c 0
 287 86 336 122 374 154 c 1
 478 116 l 1
 408 42 320 -12 216 -10 c 0
 78 -8 16 104 53 230 c 0
 58 247 64 263 72 279 c 0
 125 389 240 470 364 470 c 0
 503 470 554 360 520 236 c 0
 518 224 513 214 509 202 c 1
 117 202 l 1
298 690 m 1
 406 736 l 1
 498 571 l 1
 423 536 l 1
 298 690 l 1
EndSplineSet
EndChar

StartChar: eacute
Encoding: 233 233 223
GlifName: eacute
Width: 522
VWidth: 0
Flags: HMW
LayerCount: 2
Fore
SplineSet
117 202 m 1
 142 280 l 1
 398 281 l 1
 405 327 402 376 345 378 c 0
 273 382 219 313 191 255 c 2
 179 230 l 1
 157 172 158 95 234 90 c 0
 287 86 336 122 374 154 c 1
 478 116 l 1
 408 42 320 -12 216 -10 c 0
 78 -8 16 104 53 230 c 0
 58 247 64 263 72 279 c 0
 125 389 240 470 364 470 c 0
 503 470 554 360 520 236 c 0
 518 224 513 214 509 202 c 1
 117 202 l 1
607 680 m 1
 391 538 l 1
 326 580 l 1
 518 733 l 1
 607 680 l 1
EndSplineSet
EndChar

StartChar: ecircumflex
Encoding: 234 234 224
GlifName: ecircumflex
Width: 522
VWidth: 0
Flags: HMW
LayerCount: 2
Fore
SplineSet
117 202 m 1
 142 280 l 1
 398 281 l 1
 405 327 402 376 345 378 c 0
 273 382 219 313 191 255 c 2
 179 230 l 1
 157 172 158 95 234 90 c 0
 287 86 336 122 374 154 c 1
 478 116 l 1
 408 42 320 -12 216 -10 c 0
 78 -8 16 104 53 230 c 0
 58 247 64 263 72 279 c 0
 125 389 240 470 364 470 c 0
 503 470 554 360 520 236 c 0
 518 224 513 214 509 202 c 1
 117 202 l 1
430 617 m 1
 308 531 l 1
 238 597 l 1
 455 732 l 1
 590 588 l 1
 490 530 l 1
 430 617 l 1
EndSplineSet
EndChar

StartChar: edieresis
Encoding: 235 235 225
GlifName: edieresis
Width: 522
VWidth: 0
Flags: HMW
LayerCount: 2
Fore
SplineSet
117 202 m 1
 142 280 l 1
 398 281 l 1
 405 327 402 376 345 378 c 0
 273 382 219 313 191 255 c 2
 179 230 l 1
 157 172 158 95 234 90 c 0
 287 86 336 122 374 154 c 1
 478 116 l 1
 408 42 320 -12 216 -10 c 0
 78 -8 16 104 53 230 c 0
 58 247 64 263 72 279 c 0
 125 389 240 470 364 470 c 0
 503 470 554 360 520 236 c 0
 518 224 513 214 509 202 c 1
 117 202 l 1
451 606 m 0
 461 642 508 679 546 677 c 0
 585 675 612 640 602 602 c 0
 592 566 544 530 506 532 c 0
 467 534 441 568 451 606 c 0
234 606 m 0
 244 642 292 679 330 677 c 0
 369 675 395 640 385 602 c 0
 375 566 327 530 289 532 c 0
 250 534 224 568 234 606 c 0
EndSplineSet
EndChar

StartChar: igrave
Encoding: 236 236 226
GlifName: igrave
Width: 254
VWidth: 0
Flags: HMW
LayerCount: 2
Fore
SplineSet
167 460 m 1
 294 460 l 1
 134 0 l 1
 12 0 l 1
 167 460 l 1
145 696 m 1
 255 740 l 1
 346 576 l 1
 270 542 l 1
 145 696 l 1
EndSplineSet
EndChar

StartChar: dotlessi
Encoding: 305 305 227
GlifName: dotlessi
Width: 254
VWidth: 0
Flags: HMW
LayerCount: 2
Fore
SplineSet
167 460 m 1
 294 460 l 1
 134 0 l 1
 12 0 l 1
 167 460 l 1
EndSplineSet
EndChar

StartChar: kgreenlandic
Encoding: 312 312 228
GlifName: kgreenlandic
Width: 503
VWidth: 0
Flags: HMW
LayerCount: 2
Fore
SplineSet
158 460 m 1
 282 460 l 1
 124 0 l 1
 2 0 l 1
 158 460 l 1
430 459 m 1
 593 459 l 1
 332 264 l 1
 442 0 l 1
 304 0 l 1
 186 277 l 1
 430 459 l 1
EndSplineSet
EndChar

StartChar: iacute
Encoding: 237 237 229
GlifName: iacute
Width: 254
VWidth: 0
Flags: HMW
LayerCount: 2
Fore
SplineSet
167 460 m 1
 294 460 l 1
 134 0 l 1
 12 0 l 1
 167 460 l 1
470 686 m 1
 254 544 l 1
 189 585 l 1
 381 739 l 1
 470 686 l 1
EndSplineSet
EndChar

StartChar: icircumflex
Encoding: 238 238 230
GlifName: icircumflex
Width: 254
VWidth: 0
Flags: HMW
LayerCount: 2
Fore
SplineSet
167 460 m 1
 294 460 l 1
 134 0 l 1
 12 0 l 1
 167 460 l 1
293 623 m 1
 171 537 l 1
 102 602 l 1
 318 738 l 1
 453 594 l 1
 354 536 l 1
 293 623 l 1
EndSplineSet
EndChar

StartChar: idieresis
Encoding: 239 239 231
GlifName: idieresis
Width: 254
VWidth: 0
Flags: HMW
LayerCount: 2
Fore
SplineSet
167 460 m 1
 294 460 l 1
 134 0 l 1
 12 0 l 1
 167 460 l 1
318 624 m 0
 328 660 376 696 414 694 c 0
 453 692 479 656 469 618 c 0
 459 582 412 546 374 548 c 0
 335 550 308 586 318 624 c 0
102 624 m 0
 112 660 159 696 197 694 c 0
 236 692 262 656 252 618 c 0
 242 582 195 546 157 548 c 0
 118 550 92 586 102 624 c 0
EndSplineSet
EndChar

StartChar: ntilde
Encoding: 241 241 232
GlifName: ntilde
Width: 525
VWidth: 0
Flags: HMW
LayerCount: 2
Fore
SplineSet
289 460 m 1
 130 0 l 1
 2 0 l 1
 162 460 l 1
 289 460 l 1
382 280 m 1
 393 317 400 367 348 372 c 0
 292 377 251 323 226 282 c 1
 192 278 l 1
 230 371 300 470 412 470 c 0
 518 470 538 382 514 294 c 1
 414 0 l 1
 284 0 l 1
 382 280 l 1
233 591 m 1
 264 633 308 681 366 678 c 0
 408 676 432 626 474 629 c 0
 505 631 530 660 552 679 c 1
 597 611 l 1
 563 575 510 530 456 534 c 0
 415 538 391 588 349 583 c 0
 319 579 300 555 283 534 c 1
 233 591 l 1
EndSplineSet
EndChar

StartChar: ograve
Encoding: 242 242 233
GlifName: ograve
Width: 541
VWidth: 0
Flags: HMW
LayerCount: 2
Fore
SplineSet
52 230 m 0
 92 362 228 470 369 470 c 0
 504 470 577 356 538 230 c 0
 498 98 362 -10 222 -10 c 0
 87 -10 13 104 52 230 c 0
182 230 m 0
 162 174 174 103 244 101 c 0
 316 99 386 166 410 230 c 0
 430 286 417 358 347 360 c 0
 275 362 206 294 182 230 c 0
302 696 m 1
 411 740 l 1
 503 576 l 1
 428 542 l 1
 302 696 l 1
EndSplineSet
EndChar

StartChar: oacute
Encoding: 243 243 234
GlifName: oacute
Width: 541
VWidth: 0
Flags: HMW
LayerCount: 2
Fore
SplineSet
52 230 m 0
 92 362 228 470 369 470 c 0
 504 470 577 356 538 230 c 0
 498 98 362 -10 222 -10 c 0
 87 -10 13 104 52 230 c 0
182 230 m 0
 162 174 174 103 244 101 c 0
 316 99 386 166 410 230 c 0
 430 286 417 358 347 360 c 0
 275 362 206 294 182 230 c 0
605 686 m 1
 390 544 l 1
 324 585 l 1
 516 739 l 1
 605 686 l 1
EndSplineSet
EndChar

StartChar: ocircumflex
Encoding: 244 244 235
GlifName: ocircumflex
Width: 541
VWidth: 0
Flags: HMW
LayerCount: 2
Fore
SplineSet
52 230 m 0
 92 362 228 470 369 470 c 0
 504 470 577 356 538 230 c 0
 498 98 362 -10 222 -10 c 0
 87 -10 13 104 52 230 c 0
182 230 m 0
 162 174 174 103 244 101 c 0
 316 99 386 166 410 230 c 0
 430 286 417 358 347 360 c 0
 275 362 206 294 182 230 c 0
438 628 m 1
 316 542 l 1
 247 608 l 1
 464 744 l 1
 598 599 l 1
 500 541 l 1
 438 628 l 1
EndSplineSet
EndChar

StartChar: otilde
Encoding: 245 245 236
GlifName: otilde
Width: 541
VWidth: 0
Flags: HMW
LayerCount: 2
Fore
SplineSet
52 230 m 0
 92 362 228 470 369 470 c 0
 504 470 577 356 538 230 c 0
 498 98 362 -10 222 -10 c 0
 87 -10 13 104 52 230 c 0
182 230 m 0
 162 174 174 103 244 101 c 0
 316 99 386 166 410 230 c 0
 430 286 417 358 347 360 c 0
 275 362 206 294 182 230 c 0
240 590 m 1
 230 636 340 679 373 678 c 0
 415 676 437 626 480 629 c 0
 511 631 537 660 559 679 c 1
 605 611 l 1
 571 575 519 530 465 534 c 0
 424 538 398 588 356 583 c 0
 326 579 308 555 291 534 c 1
 240 590 l 1
EndSplineSet
EndChar

StartChar: odieresis
Encoding: 246 246 237
GlifName: odieresis
Width: 541
VWidth: 0
Flags: HMW
LayerCount: 2
Fore
SplineSet
52 230 m 0
 92 362 228 470 369 470 c 0
 504 470 577 356 538 230 c 0
 498 98 362 -10 222 -10 c 0
 87 -10 13 104 52 230 c 0
182 230 m 0
 162 174 174 103 244 101 c 0
 316 99 386 166 410 230 c 0
 430 286 417 358 347 360 c 0
 275 362 206 294 182 230 c 0
462 624 m 0
 472 660 520 696 558 694 c 0
 597 692 622 656 612 618 c 0
 602 582 556 546 518 548 c 0
 479 550 452 586 462 624 c 0
246 624 m 0
 256 660 302 696 340 694 c 0
 379 692 406 656 396 618 c 0
 386 582 338 546 300 548 c 0
 261 550 236 586 246 624 c 0
EndSplineSet
EndChar

StartChar: ugrave
Encoding: 249 249 238
GlifName: ugrave
Width: 525
VWidth: 0
Flags: HMW
LayerCount: 2
Fore
SplineSet
286 0 m 1
 445 460 l 1
 573 460 l 1
 414 0 l 1
 286 0 l 1
194 180 m 1
 183 143 174 93 226 88 c 0
 282 83 324 137 349 178 c 1
 384 182 l 1
 346 89 275 -10 163 -10 c 0
 57 -10 37 78 61 166 c 1
 162 460 l 1
 292 460 l 1
 194 180 l 1
316 696 m 1
 425 740 l 1
 516 576 l 1
 440 542 l 1
 316 696 l 1
EndSplineSet
EndChar

StartChar: uacute
Encoding: 250 250 239
GlifName: uacute
Width: 525
VWidth: 0
Flags: HMW
LayerCount: 2
Fore
SplineSet
286 0 m 1
 445 460 l 1
 573 460 l 1
 414 0 l 1
 286 0 l 1
194 180 m 1
 183 143 174 93 226 88 c 0
 282 83 324 137 349 178 c 1
 384 182 l 1
 346 89 275 -10 163 -10 c 0
 57 -10 37 78 61 166 c 1
 162 460 l 1
 292 460 l 1
 194 180 l 1
576 686 m 1
 361 542 l 1
 296 585 l 1
 488 739 l 1
 576 686 l 1
EndSplineSet
EndChar

StartChar: ucircumflex
Encoding: 251 251 240
GlifName: ucircumflex
Width: 525
VWidth: 0
Flags: HMW
LayerCount: 2
Fore
SplineSet
286 0 m 1
 445 460 l 1
 573 460 l 1
 414 0 l 1
 286 0 l 1
194 180 m 1
 183 143 174 93 226 88 c 0
 282 83 324 137 349 178 c 1
 384 182 l 1
 346 89 275 -10 163 -10 c 0
 57 -10 37 78 61 166 c 1
 162 460 l 1
 292 460 l 1
 194 180 l 1
430 628 m 1
 308 542 l 1
 238 608 l 1
 456 744 l 1
 591 599 l 1
 491 541 l 1
 430 628 l 1
EndSplineSet
EndChar

StartChar: udieresis
Encoding: 252 252 241
GlifName: udieresis
Width: 525
VWidth: 0
Flags: HMW
LayerCount: 2
Fore
SplineSet
286 0 m 1
 445 460 l 1
 573 460 l 1
 414 0 l 1
 286 0 l 1
194 180 m 1
 183 143 174 93 226 88 c 0
 282 83 324 137 349 178 c 1
 384 182 l 1
 346 89 275 -10 163 -10 c 0
 57 -10 37 78 61 166 c 1
 162 460 l 1
 292 460 l 1
 194 180 l 1
453 618 m 0
 463 654 510 690 548 688 c 0
 587 686 614 651 604 613 c 0
 594 577 546 540 508 542 c 0
 468 544 443 580 453 618 c 0
236 618 m 0
 246 654 293 690 331 688 c 0
 370 686 396 651 386 613 c 0
 376 577 329 540 291 542 c 0
 251 544 226 580 236 618 c 0
EndSplineSet
EndChar

StartChar: yacute
Encoding: 253 253 242
GlifName: yacute
Width: 466
VWidth: 0
Flags: HMW
LayerCount: 2
Fore
SplineSet
584 459 m 1
 66 -219 l 1
 -70 -219 l 1
 138 53 l 1
 98 460 l 1
 232 460 l 1
 246 94 l 1
 182 96 l 1
 444 459 l 1
 584 459 l 1
560 686 m 1
 344 544 l 1
 280 585 l 1
 471 739 l 1
 560 686 l 1
EndSplineSet
EndChar

StartChar: thorn
Encoding: 254 254 243
GlifName: thorn
Width: 566
VWidth: 0
Flags: HMW
LayerCount: 2
Fore
SplineSet
54 -220 m 1
 -76 -220 l 1
 268 780 l 1
 394 780 l 1
 54 -220 l 1
562 230 m 0
 525 110 412 -12 279 -10 c 0
 147 -8 132 130 164 230 c 0
 200 344 296 469 426 469 c 0
 560 469 596 339 562 230 c 0
433 230 m 0
 453 286 440 359 368 361 c 0
 296 363 229 292 205 230 c 0
 186 176 195 103 264 99 c 0
 338 95 409 166 433 230 c 0
EndSplineSet
EndChar

StartChar: ydieresis
Encoding: 255 255 244
GlifName: ydieresis
Width: 466
VWidth: 0
Flags: HMW
LayerCount: 2
Fore
SplineSet
584 459 m 1
 66 -219 l 1
 -70 -219 l 1
 138 53 l 1
 98 460 l 1
 232 460 l 1
 246 94 l 1
 182 96 l 1
 444 459 l 1
 584 459 l 1
419 606 m 0
 429 642 477 679 515 677 c 0
 554 675 580 640 570 602 c 0
 560 566 512 530 474 532 c 0
 435 534 409 568 419 606 c 0
202 606 m 0
 212 642 260 679 298 677 c 0
 337 675 362 640 352 602 c 0
 342 566 296 530 258 532 c 0
 219 534 192 568 202 606 c 0
EndSplineSet
EndChar

StartChar: Amacron
Encoding: 256 256 245
GlifName: A_macron
Width: 669
VWidth: 0
Flags: HMW
LayerCount: 2
Fore
SplineSet
161 159 m 1
 216 271 l 1
 536 272 l 1
 513 158 l 1
 161 159 l 1
448 472 m 1
 266 230 l 1
 259 198 l 1
 104 0 l 1
 -60 0 l 1
 533 746 l 1
 614 0 l 1
 464 0 l 1
 444 193 l 1
 459 229 l 1
 448 472 l 1
382 802 m 1
 420 916 l 1
 768 916 l 1
 730 802 l 1
 382 802 l 1
EndSplineSet
EndChar

StartChar: amacron
Encoding: 257 257 246
GlifName: amacron
Width: 494
VWidth: 0
Flags: HMW
LayerCount: 2
Fore
SplineSet
140 136 m 0
 130 102 154 84 186 82 c 0
 254 78 300 129 332 183 c 1
 332 128 l 1
 293 48 223 -9 129 -9 c 0
 48 -9 -13 44 11 128 c 0
 39 226 147 280 244 280 c 0
 298 280 342 264 380 227 c 1
 362 166 l 1
 331 191 300 206 258 204 c 0
 214 202 154 182 140 136 c 0
170 328 m 1
 150 420 l 1
 214 448 281 472 351 472 c 0
 439 472 526 426 501 326 c 1
 390 0 l 1
 266 0 l 1
 376 305 l 1
 380 345 364 364 322 368 c 0
 270 372 216 348 170 328 c 1
210 544 m 1
 249 658 l 1
 598 658 l 1
 558 544 l 1
 210 544 l 1
EndSplineSet
Substitution2: "alt a" amacron.alt
EndChar

StartChar: breve
Encoding: 728 728 247
GlifName: breve
Width: 513
VWidth: 0
Flags: HMW
LayerCount: 2
Fore
SplineSet
328 850 m 1
 413 850 l 1
 413 818 418 789 456 787 c 0
 497 785 526 819 547 849 c 1
 638 848 l 1
 604 768 538 707 446 707 c 0
 356 707 319 767 328 850 c 1
EndSplineSet
EndChar

StartChar: Abreve
Encoding: 258 258 248
GlifName: A_breve
Width: 669
VWidth: 0
Flags: HMW
LayerCount: 2
Fore
SplineSet
161 159 m 1
 216 271 l 1
 536 272 l 1
 513 158 l 1
 161 159 l 1
448 472 m 1
 266 230 l 1
 259 198 l 1
 104 0 l 1
 -60 0 l 1
 533 746 l 1
 614 0 l 1
 464 0 l 1
 444 193 l 1
 459 229 l 1
 448 472 l 1
448 946 m 1
 532 945 l 1
 531 913 536 884 574 882 c 0
 615 880 644 915 666 945 c 1
 757 944 l 1
 721 864 654 802 562 802 c 0
 472 802 437 864 448 946 c 1
EndSplineSet
EndChar

StartChar: abreve
Encoding: 259 259 249
GlifName: abreve
Width: 494
VWidth: 0
Flags: HMW
LayerCount: 2
Fore
SplineSet
140 136 m 0
 130 102 154 84 186 82 c 0
 254 78 300 129 332 183 c 1
 332 128 l 1
 293 48 223 -9 129 -9 c 0
 48 -9 -13 44 11 128 c 0
 39 226 147 280 244 280 c 0
 298 280 342 264 380 227 c 1
 362 166 l 1
 331 191 300 206 258 204 c 0
 214 202 154 182 140 136 c 0
170 328 m 1
 150 420 l 1
 214 448 281 472 351 472 c 0
 439 472 526 426 501 326 c 1
 390 0 l 1
 266 0 l 1
 376 305 l 1
 380 345 364 364 322 368 c 0
 270 372 216 348 170 328 c 1
273 676 m 1
 358 676 l 1
 357 644 360 616 398 614 c 0
 439 612 468 646 490 676 c 1
 582 674 l 1
 546 595 478 533 386 533 c 0
 296 533 262 594 273 676 c 1
EndSplineSet
Substitution2: "alt a" abreve.alt
EndChar

StartChar: Aogonek
Encoding: 260 260 250
GlifName: A_ogonek
Width: 669
VWidth: 0
Flags: HMW
LayerCount: 2
Fore
SplineSet
161 159 m 1
 216 271 l 1
 536 272 l 1
 513 158 l 1
 161 159 l 1
448 472 m 1
 266 230 l 1
 259 198 l 1
 104 0 l 1
 -60 0 l 1
 533 746 l 1
 614 0 l 1
 464 0 l 1
 444 193 l 1
 459 229 l 1
 448 472 l 1
545 -116 m 1
 558 -183 l 1
 527 -203 495 -220 458 -220 c 0
 400 -220 357 -178 373 -118 c 0
 395 -43 482 -6 546 24 c 1
 584 0 l 1
 546 -24 485 -48 471 -96 c 0
 467 -113 469 -132 489 -136 c 0
 507 -139 530 -124 545 -116 c 1
EndSplineSet
EndChar

StartChar: aogonek
Encoding: 261 261 251
GlifName: aogonek
Width: 494
VWidth: 0
Flags: HMW
LayerCount: 2
Fore
SplineSet
140 136 m 0
 130 102 156 84 186 82 c 0
 254 78 300 130 332 183 c 1
 332 128 l 1
 293 48 223 -9 129 -9 c 0
 47 -9 -12 48 12 132 c 0
 42 230 148 280 244 280 c 0
 298 280 342 264 380 227 c 1
 362 166 l 1
 331 191 300 206 258 204 c 0
 214 202 153 182 140 136 c 0
170 328 m 1
 150 420 l 1
 214 448 281 472 351 472 c 0
 439 472 526 426 501 326 c 1
 390 0 l 1
 266 0 l 1
 376 305 l 1
 380 345 364 364 322 368 c 0
 270 372 216 348 170 328 c 1
330 -116 m 1
 344 -183 l 1
 313 -203 281 -220 244 -220 c 0
 186 -220 142 -178 158 -118 c 0
 180 -43 268 -6 332 24 c 1
 370 0 l 1
 332 -24 271 -48 257 -96 c 0
 253 -113 255 -132 275 -136 c 0
 293 -139 315 -124 330 -116 c 1
EndSplineSet
Substitution2: "alt a" aogonek.alt
EndChar

StartChar: Cacute
Encoding: 262 262 252
GlifName: C_acute
Width: 654
VWidth: 0
Flags: HMW
LayerCount: 2
Fore
SplineSet
248 350 m 0
 209 245 246 128 372 125 c 0
 460 123 542 170 612 218 c 1
 564 58 l 1
 494 15 419 -14 336 -14 c 0
 132 -12 38 168 96 350 c 0
 159 548 354 714 566 714 c 0
 640 714 702 689 758 640 c 1
 708 480 l 1
 670 542 617 575 543 575 c 0
 413 574 292 468 248 350 c 0
770 918 m 1
 556 776 l 1
 491 818 l 1
 682 972 l 1
 770 918 l 1
EndSplineSet
EndChar

StartChar: cacute
Encoding: 263 263 253
GlifName: cacute
Width: 459
VWidth: 0
Flags: HMW
LayerCount: 2
Fore
SplineSet
178 230 m 0
 155 168 177 101 250 98 c 0
 312 96 369 132 415 168 c 1
 376 36 l 1
 329 8 278 -10 222 -10 c 0
 87 -10 11 103 50 230 c 0
 92 366 227 470 369 470 c 0
 421 470 463 454 503 424 c 1
 462 290 l 1
 442 336 409 363 357 362 c 0
 281 361 204 300 178 230 c 0
574 674 m 1
 358 532 l 1
 292 574 l 1
 484 728 l 1
 574 674 l 1
EndSplineSet
EndChar

StartChar: Ccircumflex
Encoding: 264 264 254
GlifName: C_circumflex
Width: 654
VWidth: 0
Flags: HMW
LayerCount: 2
Fore
SplineSet
248 350 m 0
 209 245 246 128 372 125 c 0
 460 123 542 170 612 218 c 1
 564 58 l 1
 494 15 419 -14 336 -14 c 0
 132 -12 38 168 96 350 c 0
 159 548 354 714 566 714 c 0
 640 714 702 689 758 640 c 1
 708 480 l 1
 670 542 617 575 543 575 c 0
 413 574 292 468 248 350 c 0
632 861 m 1
 510 775 l 1
 440 841 l 1
 658 976 l 1
 793 832 l 1
 692 774 l 1
 632 861 l 1
EndSplineSet
EndChar

StartChar: ccircumflex
Encoding: 265 265 255
GlifName: ccircumflex
Width: 459
VWidth: 0
Flags: HMW
LayerCount: 2
Fore
SplineSet
178 230 m 0
 155 168 177 101 250 98 c 0
 312 96 369 132 415 168 c 1
 376 36 l 1
 329 8 278 -10 222 -10 c 0
 87 -10 11 103 50 230 c 0
 92 366 227 470 369 470 c 0
 421 470 463 454 503 424 c 1
 462 290 l 1
 442 336 409 363 357 362 c 0
 281 361 204 300 178 230 c 0
414 617 m 1
 292 531 l 1
 222 597 l 1
 439 732 l 1
 574 588 l 1
 474 530 l 1
 414 617 l 1
EndSplineSet
EndChar

StartChar: Cdotaccent
Encoding: 266 266 256
GlifName: C_dotaccent
Width: 654
VWidth: 0
Flags: HMW
LayerCount: 2
Fore
SplineSet
248 350 m 0
 209 245 246 128 372 125 c 0
 460 123 542 170 612 218 c 1
 564 58 l 1
 494 15 419 -14 336 -14 c 0
 132 -12 38 168 96 350 c 0
 159 548 354 714 566 714 c 0
 640 714 702 689 758 640 c 1
 708 480 l 1
 670 542 617 575 543 575 c 0
 413 574 292 468 248 350 c 0
530 851 m 0
 540 887 586 923 624 921 c 0
 663 919 689 884 679 846 c 0
 669 810 622 773 584 775 c 0
 545 777 520 813 530 851 c 0
EndSplineSet
EndChar

StartChar: cdotaccent
Encoding: 267 267 257
GlifName: cdotaccent
Width: 459
VWidth: 0
Flags: HMW
LayerCount: 2
Fore
SplineSet
178 230 m 0
 155 168 177 101 250 98 c 0
 312 96 369 132 415 168 c 1
 376 36 l 1
 329 8 278 -10 222 -10 c 0
 87 -10 11 103 50 230 c 0
 92 366 227 470 369 470 c 0
 421 470 463 454 503 424 c 1
 462 290 l 1
 442 336 409 363 357 362 c 0
 281 361 204 300 178 230 c 0
333 611 m 0
 343 647 390 684 428 682 c 0
 467 680 493 644 483 606 c 0
 473 570 426 534 388 536 c 0
 349 538 323 573 333 611 c 0
EndSplineSet
EndChar

StartChar: Ccaron
Encoding: 268 268 258
GlifName: C_caron
Width: 654
VWidth: 0
Flags: HMW
LayerCount: 2
Fore
SplineSet
248 350 m 0
 209 245 246 128 372 125 c 0
 460 123 542 170 612 218 c 1
 564 58 l 1
 494 15 419 -14 336 -14 c 0
 132 -12 38 168 96 350 c 0
 159 548 354 714 566 714 c 0
 640 714 702 689 758 640 c 1
 708 480 l 1
 670 542 617 575 543 575 c 0
 413 574 292 468 248 350 c 0
628 890 m 1
 750 976 l 1
 819 910 l 1
 602 774 l 1
 467 918 l 1
 568 976 l 1
 628 890 l 1
EndSplineSet
EndChar

StartChar: ccaron
Encoding: 269 269 259
GlifName: ccaron
Width: 459
VWidth: 0
Flags: HMW
LayerCount: 2
Fore
SplineSet
178 230 m 0
 155 168 177 101 250 98 c 0
 312 96 369 132 415 168 c 1
 376 36 l 1
 329 8 278 -10 222 -10 c 0
 87 -10 11 103 50 230 c 0
 92 366 227 470 369 470 c 0
 421 470 463 454 503 424 c 1
 462 290 l 1
 442 336 409 363 357 362 c 0
 281 361 204 300 178 230 c 0
410 646 m 1
 531 732 l 1
 600 666 l 1
 384 530 l 1
 248 675 l 1
 349 733 l 1
 410 646 l 1
EndSplineSet
EndChar

StartChar: Dcaron
Encoding: 270 270 260
GlifName: D_caron
Width: 674
VWidth: 0
Flags: HMW
LayerCount: 2
Fore
SplineSet
253 700 m 1
 398 700 l 1
 158 0 l 1
 16 0 l 1
 253 700 l 1
250 0 m 0
 101 0 l 1
 147 131 l 1
 274 131 l 0
 408 137 519 226 565 350 c 0
 607 463 568 563 440 569 c 1
 296 570 l 1
 342 700 l 1
 472 700 l 0
 672 694 769 537 709 350 c 0
 645 150 460 6 250 0 c 0
583 890 m 1
 704 976 l 1
 774 910 l 1
 558 774 l 1
 422 918 l 1
 522 976 l 1
 583 890 l 1
EndSplineSet
EndChar

StartChar: dcaron
Encoding: 271 271 261
GlifName: dcaron
Width: 566
VWidth: 0
Flags: HMW
LayerCount: 2
Fore
SplineSet
596 780 m 1
 725 780 l 1
 456 0 l 1
 331 0 l 1
 596 780 l 1
52 230 m 0
 89 350 204 472 337 470 c 0
 469 468 484 330 452 230 c 0
 416 116 320 -9 190 -9 c 0
 56 -9 18 121 52 230 c 0
184 230 m 0
 164 174 176 101 248 99 c 0
 320 97 386 168 410 230 c 0
 429 284 421 357 352 361 c 0
 278 365 208 294 184 230 c 0
828 778 m 1
 949 744 l 1
 750 500 l 1
 658 524 l 1
 828 778 l 1
EndSplineSet
EndChar

StartChar: Dcroat
Encoding: 272 272 262
GlifName: D_croat
Width: 674
VWidth: 0
Flags: HMW
LayerCount: 2
Fore
SplineSet
52 302 m 1
 84 394 l 1
 399 394 l 1
 367 302 l 1
 52 302 l 1
253 700 m 1
 398 700 l 1
 158 0 l 1
 16 0 l 1
 253 700 l 1
250 0 m 0
 101 0 l 1
 147 131 l 1
 274 131 l 0
 408 137 519 226 565 350 c 0
 607 463 568 563 440 569 c 1
 296 570 l 1
 342 700 l 1
 472 700 l 0
 672 694 769 537 709 350 c 0
 645 150 460 6 250 0 c 0
EndSplineSet
EndChar

StartChar: dcroat
Encoding: 273 273 263
GlifName: dcroat
Width: 566
VWidth: 0
Flags: HMW
LayerCount: 2
Fore
SplineSet
418 573 m 1
 450 665 l 1
 774 665 l 1
 741 572 l 1
 418 573 l 1
596 780 m 1
 725 780 l 1
 456 0 l 1
 331 0 l 1
 596 780 l 1
52 230 m 0
 89 350 204 472 337 470 c 0
 469 468 484 330 452 230 c 0
 416 116 320 -9 190 -9 c 0
 56 -9 18 121 52 230 c 0
184 230 m 0
 164 174 176 101 248 99 c 0
 320 97 386 168 410 230 c 0
 429 284 421 357 352 361 c 0
 278 365 208 294 184 230 c 0
EndSplineSet
EndChar

StartChar: Emacron
Encoding: 274 274 264
GlifName: E_macron
Width: 552
VWidth: 0
Flags: HMW
LayerCount: 2
Fore
SplineSet
102 0 m 1
 144 122 l 1
 482 122 l 1
 440 0 l 1
 102 0 l 1
300 579 m 1
 342 700 l 1
 679 700 l 1
 637 578 l 1
 300 579 l 1
210 312 m 1
 250 431 l 1
 568 431 l 1
 526 312 l 1
 210 312 l 1
253 700 m 1
 390 700 l 1
 150 0 l 1
 16 0 l 1
 253 700 l 1
318 775 m 1
 357 889 l 1
 705 889 l 1
 666 774 l 1
 318 775 l 1
EndSplineSet
EndChar

StartChar: emacron
Encoding: 275 275 265
GlifName: emacron
Width: 522
VWidth: 0
Flags: HMW
LayerCount: 2
Fore
SplineSet
117 202 m 1
 142 280 l 1
 398 281 l 1
 405 327 402 376 345 378 c 0
 273 382 219 313 191 255 c 2
 179 230 l 1
 157 172 158 95 234 90 c 0
 287 86 336 122 374 154 c 1
 478 116 l 1
 408 42 320 -12 216 -10 c 0
 78 -8 16 104 53 230 c 0
 58 247 64 263 72 279 c 0
 125 389 240 470 364 470 c 0
 503 470 554 360 520 236 c 0
 518 224 513 214 509 202 c 1
 117 202 l 1
219 531 m 1
 259 645 l 1
 607 645 l 1
 567 530 l 1
 219 531 l 1
EndSplineSet
EndChar

StartChar: Ebreve
Encoding: 276 276 266
GlifName: E_breve
Width: 552
VWidth: 0
Flags: HMW
LayerCount: 2
Fore
SplineSet
102 0 m 1
 144 122 l 1
 482 122 l 1
 440 0 l 1
 102 0 l 1
300 579 m 1
 342 700 l 1
 679 700 l 1
 637 578 l 1
 300 579 l 1
210 312 m 1
 250 431 l 1
 568 431 l 1
 526 312 l 1
 210 312 l 1
253 700 m 1
 390 700 l 1
 150 0 l 1
 16 0 l 1
 253 700 l 1
384 918 m 1
 469 918 l 1
 468 886 472 858 510 856 c 0
 551 854 580 888 602 918 c 1
 694 916 l 1
 658 836 590 775 498 775 c 0
 408 775 373 836 384 918 c 1
EndSplineSet
EndChar

StartChar: ebreve
Encoding: 277 277 267
GlifName: ebreve
Width: 522
VWidth: 0
Flags: HMW
LayerCount: 2
Fore
SplineSet
117 202 m 1
 142 280 l 1
 398 281 l 1
 405 327 402 376 345 378 c 0
 273 382 219 313 191 255 c 2
 179 230 l 1
 157 172 158 95 234 90 c 0
 287 86 336 122 374 154 c 1
 478 116 l 1
 408 42 320 -12 216 -10 c 0
 78 -8 16 104 53 230 c 0
 58 247 64 263 72 279 c 0
 125 389 240 470 364 470 c 0
 503 470 554 360 520 236 c 0
 518 224 513 214 509 202 c 1
 117 202 l 1
286 675 m 1
 371 674 l 1
 370 642 374 614 412 612 c 0
 453 610 482 644 504 674 c 1
 596 672 l 1
 560 593 492 532 400 532 c 0
 310 532 275 593 286 675 c 1
EndSplineSet
EndChar

StartChar: Edotaccent
Encoding: 278 278 268
GlifName: E_dotaccent
Width: 552
VWidth: 0
Flags: HMW
LayerCount: 2
Fore
SplineSet
102 0 m 1
 144 122 l 1
 482 122 l 1
 440 0 l 1
 102 0 l 1
300 579 m 1
 342 700 l 1
 679 700 l 1
 637 578 l 1
 300 579 l 1
210 312 m 1
 250 431 l 1
 568 431 l 1
 526 312 l 1
 210 312 l 1
253 700 m 1
 390 700 l 1
 150 0 l 1
 16 0 l 1
 253 700 l 1
441 851 m 0
 451 887 498 923 536 921 c 0
 575 919 602 884 592 846 c 0
 582 810 534 773 496 775 c 0
 457 777 431 813 441 851 c 0
EndSplineSet
EndChar

StartChar: edotaccent
Encoding: 279 279 269
GlifName: edotaccent
Width: 522
VWidth: 0
Flags: HMW
LayerCount: 2
Fore
SplineSet
117 202 m 1
 142 280 l 1
 398 281 l 1
 405 327 402 376 345 378 c 0
 273 382 219 313 191 255 c 2
 179 230 l 1
 157 172 158 95 234 90 c 0
 287 86 336 122 374 154 c 1
 478 116 l 1
 408 42 320 -12 216 -10 c 0
 78 -8 16 104 53 230 c 0
 58 247 64 263 72 279 c 0
 125 389 240 470 364 470 c 0
 503 470 554 360 520 236 c 0
 518 224 513 214 509 202 c 1
 117 202 l 1
343 606 m 0
 353 642 400 679 438 677 c 0
 477 675 504 640 494 602 c 0
 484 566 436 530 398 532 c 0
 359 534 333 568 343 606 c 0
EndSplineSet
EndChar

StartChar: Eogonek
Encoding: 280 280 270
GlifName: E_ogonek
Width: 552
VWidth: 0
Flags: HMW
LayerCount: 2
Fore
SplineSet
102 0 m 1
 144 122 l 1
 482 122 l 1
 440 0 l 1
 102 0 l 1
300 579 m 1
 342 700 l 1
 679 700 l 1
 637 578 l 1
 300 579 l 1
210 312 m 1
 250 431 l 1
 568 431 l 1
 526 312 l 1
 210 312 l 1
253 700 m 1
 390 700 l 1
 150 0 l 1
 16 0 l 1
 253 700 l 1
270 -116 m 1
 282 -183 l 1
 251 -203 220 -220 183 -220 c 0
 125 -220 81 -178 97 -118 c 0
 119 -43 206 -6 270 24 c 1
 308 0 l 1
 270 -24 210 -48 196 -96 c 0
 192 -113 194 -132 214 -136 c 0
 232 -139 255 -124 270 -116 c 1
EndSplineSet
EndChar

StartChar: eogonek
Encoding: 281 281 271
GlifName: eogonek
Width: 522
VWidth: 0
Flags: HMW
LayerCount: 2
Fore
SplineSet
117 202 m 1
 142 280 l 1
 398 281 l 1
 405 327 402 376 345 378 c 0
 273 382 219 313 191 255 c 2
 179 230 l 1
 157 172 158 95 234 90 c 0
 287 86 336 122 374 154 c 1
 478 116 l 1
 408 42 320 -12 216 -10 c 0
 78 -8 16 104 53 230 c 0
 58 247 64 263 72 279 c 0
 125 389 240 470 364 470 c 0
 503 470 554 360 520 236 c 0
 518 224 513 214 509 202 c 1
 117 202 l 1
205 -112 m 1
 218 -178 l 1
 188 -198 155 -214 118 -214 c 0
 60 -214 17 -174 33 -114 c 0
 55 -39 142 0 206 30 c 1
 244 0 l 1
 205 -20 145 -44 131 -90 c 0
 125 -107 129 -126 149 -130 c 0
 167 -133 190 -120 205 -112 c 1
EndSplineSet
EndChar

StartChar: Ecaron
Encoding: 282 282 272
GlifName: E_caron
Width: 552
VWidth: 0
Flags: HMW
LayerCount: 2
Fore
SplineSet
102 0 m 1
 144 122 l 1
 482 122 l 1
 440 0 l 1
 102 0 l 1
300 579 m 1
 342 700 l 1
 679 700 l 1
 637 578 l 1
 300 579 l 1
210 312 m 1
 250 431 l 1
 568 431 l 1
 526 312 l 1
 210 312 l 1
253 700 m 1
 390 700 l 1
 150 0 l 1
 16 0 l 1
 253 700 l 1
524 890 m 1
 645 976 l 1
 714 910 l 1
 498 774 l 1
 362 918 l 1
 462 976 l 1
 524 890 l 1
EndSplineSet
EndChar

StartChar: ecaron
Encoding: 283 283 273
GlifName: ecaron
Width: 522
VWidth: 0
Flags: HMW
LayerCount: 2
Fore
SplineSet
117 202 m 1
 142 280 l 1
 398 281 l 1
 405 327 402 376 345 378 c 0
 273 382 219 313 191 255 c 2
 179 230 l 1
 157 172 158 95 234 90 c 0
 287 86 336 122 374 154 c 1
 478 116 l 1
 408 42 320 -12 216 -10 c 0
 78 -8 16 104 53 230 c 0
 58 247 64 263 72 279 c 0
 125 389 240 470 364 470 c 0
 503 470 554 360 520 236 c 0
 518 224 513 214 509 202 c 1
 117 202 l 1
426 646 m 1
 546 732 l 1
 616 666 l 1
 400 530 l 1
 264 675 l 1
 364 733 l 1
 426 646 l 1
EndSplineSet
EndChar

StartChar: Gcircumflex
Encoding: 284 284 274
GlifName: G_circumflex
Width: 754
VWidth: 0
Flags: HMW
LayerCount: 2
Fore
SplineSet
422 260 m 1
 463 374 l 1
 788 374 l 1
 726 174 558 -18 334 -18 c 0
 127 -18 37 167 96 350 c 0
 160 550 357 714 571 714 c 0
 687 714 772 656 818 552 c 1
 681 483 l 1
 659 547 614 585 544 585 c 0
 408 587 287 471 243 350 c 0
 204 243 231 113 365 111 c 0
 472 109 553 182 615 260 c 1
 422 260 l 1
637 861 m 1
 515 775 l 1
 446 841 l 1
 663 976 l 1
 797 832 l 1
 698 774 l 1
 637 861 l 1
EndSplineSet
EndChar

StartChar: gcircumflex
Encoding: 285 285 275
GlifName: gcircumflex
Width: 562
VWidth: 0
Flags: HMW
LayerCount: 2
Fore
SplineSet
-29 -32 m 1
 90 -33 l 1
 86 -87 103 -127 164 -128 c 0
 244 -130 304 -58 332 10 c 1
 488 460 l 1
 612 460 l 1
 458 10 l 2
 410 -124 297 -235 148 -236 c 0
 19 -237 -45 -156 -29 -32 c 1
54 235 m 0
 91 355 205 472 337 470 c 0
 469 468 485 335 453 234 c 0
 417 120 323 0 193 -0 c 0
 61 -0 20 125 54 235 c 0
184 234 m 0
 164 177 180 110 250 108 c 0
 320 106 390 174 412 236 c 0
 431 290 420 357 352 361 c 0
 280 365 207 298 184 234 c 0
448 617 m 1
 326 531 l 1
 256 597 l 1
 474 732 l 1
 608 588 l 1
 508 530 l 1
 448 617 l 1
EndSplineSet
EndChar

StartChar: Gbreve
Encoding: 286 286 276
GlifName: G_breve
Width: 754
VWidth: 0
Flags: HMW
LayerCount: 2
Fore
SplineSet
422 260 m 1
 463 374 l 1
 788 374 l 1
 726 174 558 -18 334 -18 c 0
 127 -18 37 167 96 350 c 0
 160 550 357 714 571 714 c 0
 687 714 772 656 818 552 c 1
 681 483 l 1
 659 547 614 585 544 585 c 0
 408 587 287 471 243 350 c 0
 204 243 231 113 365 111 c 0
 472 109 553 182 615 260 c 1
 422 260 l 1
494 918 m 1
 578 918 l 1
 577 886 582 858 620 856 c 0
 661 854 690 888 712 918 c 1
 803 916 l 1
 767 836 700 775 608 775 c 0
 518 775 483 836 494 918 c 1
EndSplineSet
EndChar

StartChar: gbreve
Encoding: 287 287 277
GlifName: gbreve
Width: 562
VWidth: 0
Flags: HMW
LayerCount: 2
Fore
SplineSet
-29 -32 m 1
 90 -33 l 1
 86 -87 103 -127 164 -128 c 0
 244 -130 304 -58 332 10 c 1
 488 460 l 1
 612 460 l 1
 458 10 l 2
 410 -124 297 -235 148 -236 c 0
 19 -237 -45 -156 -29 -32 c 1
54 235 m 0
 91 355 205 472 337 470 c 0
 469 468 485 335 453 234 c 0
 417 120 323 0 193 -0 c 0
 61 -0 20 125 54 235 c 0
184 234 m 0
 164 177 180 110 250 108 c 0
 320 106 390 174 412 236 c 0
 431 290 420 357 352 361 c 0
 280 365 207 298 184 234 c 0
306 675 m 1
 390 674 l 1
 389 642 393 614 431 612 c 0
 472 610 500 644 522 674 c 1
 614 672 l 1
 578 593 511 532 419 532 c 0
 329 532 295 593 306 675 c 1
EndSplineSet
EndChar

StartChar: Gdotaccent
Encoding: 288 288 278
GlifName: G_dotaccent
Width: 754
VWidth: 0
Flags: HMW
LayerCount: 2
Fore
SplineSet
422 260 m 1
 463 374 l 1
 788 374 l 1
 726 174 558 -18 334 -18 c 0
 127 -18 37 167 96 350 c 0
 160 550 357 714 571 714 c 0
 687 714 772 656 818 552 c 1
 681 483 l 1
 659 547 614 585 544 585 c 0
 408 587 287 471 243 350 c 0
 204 243 231 113 365 111 c 0
 472 109 553 182 615 260 c 1
 422 260 l 1
550 851 m 0
 560 887 607 923 645 921 c 0
 684 919 710 884 700 846 c 0
 690 810 644 773 606 775 c 0
 567 777 540 813 550 851 c 0
EndSplineSet
EndChar

StartChar: gdotaccent
Encoding: 289 289 279
GlifName: gdotaccent
Width: 562
VWidth: 0
Flags: HMW
LayerCount: 2
Fore
SplineSet
-29 -32 m 1
 90 -33 l 1
 86 -87 103 -127 164 -128 c 0
 244 -130 304 -58 332 10 c 1
 488 460 l 1
 612 460 l 1
 458 10 l 2
 410 -124 297 -235 148 -236 c 0
 19 -237 -45 -156 -29 -32 c 1
54 235 m 0
 91 355 205 472 337 470 c 0
 469 468 485 335 453 234 c 0
 417 120 323 0 193 -0 c 0
 61 -0 20 125 54 235 c 0
184 234 m 0
 164 177 180 110 250 108 c 0
 320 106 390 174 412 236 c 0
 431 290 420 357 352 361 c 0
 280 365 207 298 184 234 c 0
368 629 m 0
 378 665 424 702 462 700 c 0
 501 698 527 662 517 624 c 0
 507 588 460 552 422 554 c 0
 383 556 358 591 368 629 c 0
EndSplineSet
EndChar

StartChar: uni0122
Encoding: 290 290 280
GlifName: uni0122
Width: 754
VWidth: 0
Flags: HMW
LayerCount: 2
Fore
SplineSet
422 260 m 1
 463 374 l 1
 788 374 l 1
 726 174 558 -18 334 -18 c 0
 127 -18 37 167 96 350 c 0
 160 550 357 714 571 714 c 0
 687 714 772 656 818 552 c 1
 681 483 l 1
 659 547 614 585 544 585 c 0
 408 587 287 471 243 350 c 0
 204 243 231 113 365 111 c 0
 472 109 553 182 615 260 c 1
 422 260 l 1
260 -80 m 1
 382 -114 l 1
 182 -358 l 1
 90 -334 l 1
 260 -80 l 1
EndSplineSet
EndChar

StartChar: Hcircumflex
Encoding: 292 292 281
GlifName: H_circumflex
Width: 718
VWidth: 0
Flags: HMW
LayerCount: 2
Fore
SplineSet
164 308 m 1
 208 438 l 1
 698 438 l 1
 654 307 l 1
 164 308 l 1
695 700 m 1
 838 700 l 1
 596 0 l 1
 458 0 l 1
 695 700 l 1
253 700 m 1
 395 700 l 1
 154 0 l 1
 16 0 l 1
 253 700 l 1
607 861 m 1
 485 775 l 1
 416 841 l 1
 633 976 l 1
 768 832 l 1
 668 774 l 1
 607 861 l 1
EndSplineSet
EndChar

StartChar: hcircumflex
Encoding: 293 293 282
GlifName: hcircumflex
Width: 521
VWidth: 0
Flags: HMW
LayerCount: 2
Fore
SplineSet
399 780 m 1
 130 0 l 1
 3 0 l 1
 271 780 l 1
 399 780 l 1
382 280 m 1
 393 317 400 367 348 372 c 0
 292 377 251 323 226 282 c 1
 194 282 l 1
 232 375 302 474 414 474 c 0
 521 474 536 384 512 298 c 0
 409 0 l 1
 284 0 l 1
 382 280 l 1
456 926 m 1
 334 840 l 1
 265 907 l 1
 482 1042 l 1
 616 898 l 1
 518 840 l 1
 456 926 l 1
EndSplineSet
EndChar

StartChar: Itilde
Encoding: 296 296 283
GlifName: I_tilde
Width: 279
VWidth: 0
Flags: HMW
LayerCount: 2
Fore
SplineSet
253 700 m 1
 397 700 l 1
 156 0 l 1
 16 0 l 1
 253 700 l 1
192 835 m 1
 223 877 266 925 324 922 c 0
 366 920 391 870 433 873 c 0
 464 875 490 903 512 922 c 1
 556 855 l 1
 522 819 471 774 417 778 c 0
 376 782 350 831 308 826 c 0
 278 822 259 799 242 778 c 1
 192 835 l 1
EndSplineSet
EndChar

StartChar: itilde
Encoding: 297 297 284
GlifName: itilde
Width: 254
VWidth: 0
Flags: HMW
LayerCount: 2
Fore
SplineSet
167 460 m 1
 294 460 l 1
 134 0 l 1
 12 0 l 1
 167 460 l 1
96 591 m 1
 127 633 171 681 229 678 c 0
 271 676 294 626 336 629 c 0
 367 631 394 660 416 679 c 1
 460 611 l 1
 426 575 374 530 320 534 c 0
 279 538 254 588 212 583 c 0
 182 579 164 555 147 534 c 1
 96 591 l 1
EndSplineSet
EndChar

StartChar: Imacron
Encoding: 298 298 285
GlifName: I_macron
Width: 279
VWidth: 0
Flags: HMW
LayerCount: 2
Fore
SplineSet
253 700 m 1
 397 700 l 1
 156 0 l 1
 16 0 l 1
 253 700 l 1
177 775 m 1
 216 889 l 1
 565 889 l 1
 525 774 l 1
 177 775 l 1
EndSplineSet
EndChar

StartChar: imacron
Encoding: 299 299 286
GlifName: imacron
Width: 254
VWidth: 0
Flags: HMW
LayerCount: 2
Fore
SplineSet
167 460 m 1
 294 460 l 1
 134 0 l 1
 12 0 l 1
 167 460 l 1
81 531 m 1
 120 645 l 1
 468 645 l 1
 429 530 l 1
 81 531 l 1
EndSplineSet
EndChar

StartChar: Ibreve
Encoding: 300 300 287
GlifName: I_breve
Width: 279
VWidth: 0
Flags: HMW
LayerCount: 2
Fore
SplineSet
253 700 m 1
 397 700 l 1
 156 0 l 1
 16 0 l 1
 253 700 l 1
244 918 m 1
 328 918 l 1
 327 886 332 858 370 856 c 0
 411 854 440 888 462 918 c 1
 553 916 l 1
 517 837 450 775 358 775 c 0
 268 775 233 836 244 918 c 1
EndSplineSet
EndChar

StartChar: ibreve
Encoding: 301 301 288
GlifName: ibreve
Width: 254
VWidth: 0
Flags: HMW
LayerCount: 2
Fore
SplineSet
167 460 m 1
 294 460 l 1
 134 0 l 1
 12 0 l 1
 167 460 l 1
148 675 m 1
 232 674 l 1
 231 642 234 614 272 612 c 0
 313 610 344 644 366 674 c 1
 456 672 l 1
 420 593 354 532 262 532 c 0
 172 532 137 593 148 675 c 1
EndSplineSet
EndChar

StartChar: Iogonek
Encoding: 302 302 289
GlifName: I_ogonek
Width: 279
VWidth: 0
Flags: HMW
LayerCount: 2
Fore
SplineSet
253 700 m 1
 397 700 l 1
 156 0 l 1
 16 0 l 1
 253 700 l 1
100 -116 m 1
 114 -182 l 1
 83 -202 51 -218 14 -218 c 0
 -44 -218 -88 -177 -72 -117 c 0
 -52 -42 38 -4 102 26 c 1
 140 -0 l 1
 101 -22 40 -47 26 -94 c 0
 20 -111 24 -130 44 -134 c 0
 62 -137 85 -124 100 -116 c 1
EndSplineSet
EndChar

StartChar: iogonek
Encoding: 303 303 290
GlifName: iogonek
Width: 254
VWidth: 0
Flags: HMW
LayerCount: 2
Fore
SplineSet
216 640 m 0
 226 676 273 712 311 710 c 0
 350 708 377 674 367 636 c 0
 357 600 309 563 271 565 c 0
 232 567 206 602 216 640 c 0
167 460 m 1
 294 460 l 1
 134 0 l 1
 12 0 l 1
 167 460 l 1
78 -116 m 1
 92 -183 l 1
 61 -203 29 -220 -8 -220 c 0
 -66 -220 -110 -178 -94 -118 c 0
 -72 -43 16 -6 80 24 c 1
 118 0 l 1
 80 -24 18 -48 4 -96 c 0
 0 -113 3 -132 23 -136 c 0
 41 -139 63 -124 78 -116 c 1
EndSplineSet
EndChar

StartChar: Idotaccent
Encoding: 304 304 291
GlifName: I_dotaccent
Width: 279
VWidth: 0
Flags: HMW
LayerCount: 2
Fore
SplineSet
253 700 m 1
 397 700 l 1
 156 0 l 1
 16 0 l 1
 253 700 l 1
300 851 m 0
 310 887 358 923 396 921 c 0
 435 919 460 884 450 846 c 0
 440 810 392 773 354 775 c 0
 315 777 290 813 300 851 c 0
EndSplineSet
EndChar

StartChar: uni0136
Encoding: 310 310 292
GlifName: uni0136
Width: 619
VWidth: 0
Flags: HMW
LayerCount: 2
Fore
SplineSet
253 700 m 1
 399 700 l 1
 158 0 l 1
 16 0 l 1
 253 700 l 1
622 699 m 1
 798 699 l 1
 404 366 l 1
 562 0 l 1
 404 0 l 1
 243 375 l 1
 622 699 l 1
229 -62 m 1
 352 -96 l 1
 152 -340 l 1
 59 -316 l 1
 229 -62 l 1
EndSplineSet
EndChar

StartChar: uni0137
Encoding: 311 311 293
GlifName: uni0137
Width: 503
VWidth: 0
Flags: HMW
LayerCount: 2
Fore
SplineSet
266 780 m 1
 392 780 l 1
 124 0 l 1
 2 0 l 1
 266 780 l 1
430 459 m 1
 593 459 l 1
 332 264 l 1
 442 0 l 1
 304 0 l 1
 186 277 l 1
 430 459 l 1
163 -62 m 1
 285 -96 l 1
 86 -340 l 1
 -7 -316 l 1
 163 -62 l 1
EndSplineSet
EndChar

StartChar: Lacute
Encoding: 313 313 294
GlifName: L_acute
Width: 474
VWidth: 0
Flags: HMW
LayerCount: 2
Fore
SplineSet
254 700 m 1
 395 700 l 1
 198 126 l 1
 461 126 l 1
 417 0 l 1
 14 0 l 1
 254 700 l 1
676 918 m 1
 460 776 l 1
 396 818 l 1
 588 972 l 1
 676 918 l 1
EndSplineSet
EndChar

StartChar: lacute
Encoding: 314 314 295
GlifName: lacute
Width: 242
VWidth: 0
Flags: HMW
LayerCount: 2
Fore
SplineSet
270 780 m 1
 399 780 l 1
 130 0 l 1
 5 0 l 1
 270 780 l 1
550 984 m 1
 334 842 l 1
 270 884 l 1
 460 1038 l 1
 550 984 l 1
EndSplineSet
EndChar

StartChar: uni013B
Encoding: 315 315 296
GlifName: uni013B_
Width: 474
VWidth: 0
Flags: HMW
LayerCount: 2
Fore
SplineSet
254 700 m 1
 395 700 l 1
 198 126 l 1
 461 126 l 1
 417 0 l 1
 14 0 l 1
 254 700 l 1
170 -62 m 1
 292 -96 l 1
 94 -340 l 1
 0 -316 l 1
 170 -62 l 1
EndSplineSet
EndChar

StartChar: uni013C
Encoding: 316 316 297
GlifName: uni013C_
Width: 242
VWidth: 0
Flags: HMW
LayerCount: 2
Fore
SplineSet
270 780 m 1
 399 780 l 1
 130 0 l 1
 5 0 l 1
 270 780 l 1
22 -62 m 1
 144 -96 l 1
 -56 -340 l 1
 -148 -316 l 1
 22 -62 l 1
EndSplineSet
EndChar

StartChar: Lcaron
Encoding: 317 317 298
GlifName: L_caron
Width: 474
VWidth: 0
Flags: HMW
LayerCount: 2
Fore
SplineSet
254 700 m 1
 395 700 l 1
 198 126 l 1
 461 126 l 1
 417 0 l 1
 14 0 l 1
 254 700 l 1
549 712 m 1
 670 679 l 1
 472 435 l 1
 380 458 l 1
 549 712 l 1
EndSplineSet
EndChar

StartChar: lcaron
Encoding: 318 318 299
GlifName: lcaron
Width: 242
VWidth: 0
Flags: HMW
LayerCount: 2
Fore
SplineSet
270 780 m 1
 399 780 l 1
 130 0 l 1
 5 0 l 1
 270 780 l 1
520 778 m 1
 642 744 l 1
 442 500 l 1
 350 524 l 1
 520 778 l 1
EndSplineSet
EndChar

StartChar: Ldot
Encoding: 319 319 300
GlifName: L_dot
Width: 474
VWidth: 0
Flags: HMW
LayerCount: 2
Fore
SplineSet
254 700 m 1
 395 700 l 1
 198 126 l 1
 461 126 l 1
 417 0 l 1
 14 0 l 1
 254 700 l 1
374 428 m 0
 385 468 434 508 476 506 c 0
 519 504 545 464 534 424 c 0
 523 384 474 344 432 346 c 0
 389 348 363 388 374 428 c 0
EndSplineSet
EndChar

StartChar: ldot
Encoding: 320 320 301
GlifName: ldot
Width: 418
VWidth: 0
Flags: HMW
LayerCount: 2
Fore
SplineSet
270 780 m 1
 399 780 l 1
 130 0 l 1
 5 0 l 1
 270 780 l 1
312 413 m 0
 323 453 372 492 414 490 c 0
 457 488 481 449 470 409 c 0
 459 369 410 328 368 330 c 0
 325 332 301 373 312 413 c 0
EndSplineSet
EndChar

StartChar: eth
Encoding: 240 240 302
GlifName: eth
Width: 611
VWidth: 0
Flags: HMW
LayerCount: 2
Fore
SplineSet
266 -14 m 0
 142 -14 54 57 54 182 c 0
 54 342 203 468 340 468 c 0
 414 468 460 430 514 356 c 1
 475 358 l 1
 441 506 385 584 255 680 c 1
 348 750 l 1
 542 582 592 474 592 314 c 0
 592 152 465 -14 266 -14 c 0
282 106 m 0
 380 106 446 198 446 272 c 0
 446 333 414 365 360 365 c 0
 281 365 192 284 192 198 c 0
 192 144 227 106 282 106 c 0
271 506 m 1
 254 558 l 1
 582 669 l 1
 600 616 l 1
 271 506 l 1
EndSplineSet
EndChar

StartChar: racute
Encoding: 341 341 303
GlifName: racute
Width: 367
VWidth: 0
Flags: HMW
LayerCount: 2
Fore
SplineSet
286 460 m 1
 128 0 l 1
 2 0 l 1
 162 460 l 1
 286 460 l 1
371 324 m 1
 357 336 344 348 324 349 c 0
 266 351 234 287 212 244 c 1
 186 282 l 1
 220 361 284 472 384 470 c 0
 416 470 437 453 459 431 c 1
 371 324 l 1
534 675 m 1
 318 532 l 1
 254 574 l 1
 446 728 l 1
 534 675 l 1
EndSplineSet
EndChar

StartChar: rcaron
Encoding: 345 345 304
GlifName: rcaron
Width: 367
VWidth: 0
Flags: HMW
LayerCount: 2
Fore
SplineSet
286 460 m 1
 128 0 l 1
 2 0 l 1
 162 460 l 1
 286 460 l 1
371 324 m 1
 357 336 344 348 324 349 c 0
 266 351 234 287 212 244 c 1
 186 282 l 1
 220 361 284 472 384 470 c 0
 416 470 437 453 459 431 c 1
 371 324 l 1
370 646 m 1
 492 732 l 1
 562 666 l 1
 345 530 l 1
 210 675 l 1
 310 733 l 1
 370 646 l 1
EndSplineSet
EndChar

StartChar: Rcaron
Encoding: 344 344 305
GlifName: R_caron
Width: 583
VWidth: 0
Flags: HMW
LayerCount: 2
Fore
SplineSet
280 326 m 1
 419 326 l 1
 522 0 l 1
 368 0 l 1
 280 326 l 1
253 700 m 1
 395 700 l 1
 154 0 l 1
 16 0 l 1
 253 700 l 1
296 578 m 1
 338 700 l 1
 470 700 l 0
 600 696 692 610 651 476 c 0
 609 338 473 258 334 254 c 0
 183 254 l 1
 224 368 l 1
 348 368 l 1
 414 372 482 408 506 473 c 0
 528 533 495 572 435 576 c 1
 296 578 l 1
520 890 m 1
 642 976 l 1
 712 910 l 1
 494 774 l 1
 360 918 l 1
 460 976 l 1
 520 890 l 1
EndSplineSet
EndChar

StartChar: uni0213
Encoding: 531 531 306
GlifName: uni0213
Width: 367
VWidth: 0
Flags: HMW
LayerCount: 2
Fore
SplineSet
286 460 m 1
 128 0 l 1
 2 0 l 1
 162 460 l 1
 286 460 l 1
371 324 m 1
 357 336 344 348 324 349 c 0
 266 351 234 287 212 244 c 1
 186 282 l 1
 220 361 284 472 384 470 c 0
 416 470 437 453 459 431 c 1
 371 324 l 1
184 530 m 1
 270 532 l 1
 291 562 319 596 360 594 c 0
 402 592 407 566 408 530 c 1
 488 530 l 1
 507 607 486 672 396 674 c 0
 300 676 229 608 184 530 c 1
EndSplineSet
EndChar

StartChar: uni0212
Encoding: 530 530 307
GlifName: uni0212
Width: 583
VWidth: 0
Flags: HMW
LayerCount: 2
Fore
SplineSet
280 326 m 1
 419 326 l 1
 522 0 l 1
 368 0 l 1
 280 326 l 1
253 700 m 1
 395 700 l 1
 154 0 l 1
 16 0 l 1
 253 700 l 1
296 578 m 1
 338 700 l 1
 470 700 l 0
 600 696 692 610 651 476 c 0
 609 338 473 258 334 254 c 0
 183 254 l 1
 224 368 l 1
 348 368 l 1
 414 372 482 408 506 473 c 0
 528 533 495 572 435 576 c 1
 296 578 l 1
348 774 m 1
 434 775 l 1
 455 805 483 840 524 838 c 0
 566 836 571 809 572 773 c 1
 652 774 l 1
 671 851 650 916 560 918 c 0
 464 920 393 852 348 774 c 1
EndSplineSet
EndChar

StartChar: OE
Encoding: 338 338 308
GlifName: O_E_
Width: 926
VWidth: 0
Flags: HMW
LayerCount: 2
Fore
SplineSet
579 312 m 1
 621 431 l 1
 962 431 l 1
 920 312 l 1
 579 312 l 1
636 670 m 1
 774 670 l 1
 552 30 l 1
 418 30 l 1
 636 670 l 1
870 120 m 1
 832 0 l 1
 322 0 l 0
 126 7 40 173 96 350 c 0
 158 542 338 694 542 700 c 0
 1072 700 l 1
 1028 578 l 1
 687 578 l 1
 668 572 l 1
 538 572 l 0
 402 566 286 476 240 350 c 0
 197 236 238 134 368 128 c 0
 497 128 l 1
 517 122 l 1
 870 120 l 1
EndSplineSet
EndChar

StartChar: oe
Encoding: 339 339 309
GlifName: oe
Width: 846
VWidth: 0
Flags: HMW
LayerCount: 2
Fore
SplineSet
716 250 m 2
 732 299 741 371 672 376 c 0
 602 381 546 316 518 260 c 2
 504 230 l 1
 483 174 480 92 558 88 c 0
 612 86 660 122 698 154 c 1
 800 116 l 1
 736 50 652 -11 556 -10 c 0
 424 -8 394 124 426 230 c 0
 431 247 438 263 446 279 c 0
 496 380 598 472 716 470 c 0
 846 468 871 336 842 234 c 0
 840 223 835 213 831 202 c 1
 710 232 l 1
 716 250 l 2
468 202 m 1
 492 280 l 1
 837 280 l 1
 830 202 l 1
 468 202 l 1
54 230 m 0
 92 352 210 471 345 470 c 0
 480 469 498 336 466 230 c 0
 428 113 332 -8 199 -9 c 0
 65 -10 18 118 54 230 c 0
180 230 m 0
 160 174 170 103 242 101 c 0
 313 99 375 168 397 230 c 0
 416 282 415 355 345 359 c 0
 271 363 204 294 180 230 c 0
EndSplineSet
EndChar

StartChar: a.alt
Encoding: 65536 -1 310
GlifName: a.alt
Width: 566
VWidth: 0
Flags: HMW
LayerCount: 2
Fore
SplineSet
490 460 m 1
 616 460 l 1
 457 0 l 1
 334 0 l 1
 490 460 l 1
52 230 m 0
 89 350 204 472 337 470 c 0
 469 468 482 330 450 230 c 0
 414 116 320 -9 190 -9 c 0
 56 -9 18 121 52 230 c 0
184 230 m 0
 164 174 176 101 248 99 c 0
 320 97 385 168 409 230 c 0
 428 284 421 357 352 361 c 0
 278 365 208 294 184 230 c 0
EndSplineSet
EndChar

StartChar: Jcircumflex
Encoding: 308 308 312
GlifName: J_circumflex
Width: 284
VWidth: 0
Flags: HMW
LayerCount: 2
Fore
SplineSet
-154 -76 m 1
 -136 -94 -117 -112 -90 -110 c 0
 -45 -108 -11 -64 5 -26 c 1
 254 700 l 1
 402 700 l 1
 145 -57 l 2
 105 -163 8 -234 -107 -232 c 0
 -165 -232 -211 -210 -256 -176 c 1
 -154 -76 l 1
389 861 m 1
 268 775 l 1
 198 841 l 1
 414 976 l 1
 550 832 l 1
 450 774 l 1
 389 861 l 1
EndSplineSet
EndChar

StartChar: jcircumflex
Encoding: 309 309 313
GlifName: jcircumflex
Width: 249
VWidth: 0
Flags: HMW
LayerCount: 2
Fore
SplineSet
-117 -89 m 1
 -109 -101 -100 -115 -82 -115 c 0
 -44 -115 -20 -68 -8 -39 c 1
 164 460 l 1
 288 460 l 1
 108 -70 l 2
 76 -157 4 -234 -96 -232 c 0
 -139 -232 -168 -212 -198 -182 c 1
 -117 -89 l 1
286 617 m 1
 164 531 l 1
 94 597 l 1
 311 732 l 1
 446 588 l 1
 346 530 l 1
 286 617 l 1
EndSplineSet
EndChar

StartChar: Nacute
Encoding: 323 323 314
GlifName: N_acute
Width: 740
VWidth: 0
Flags: HMW
LayerCount: 2
Fore
SplineSet
722 700 m 1
 858 700 l 1
 607 -32 l 1
 300 434 l 1
 150 0 l 1
 14 0 l 1
 264 732 l 1
 572 266 l 1
 722 700 l 1
776 904 m 1
 561 761 l 1
 496 802 l 1
 688 956 l 1
 776 904 l 1
EndSplineSet
EndChar

StartChar: nacute
Encoding: 324 324 315
GlifName: nacute
Width: 525
VWidth: 0
Flags: HMW
LayerCount: 2
Fore
SplineSet
289 460 m 1
 130 0 l 1
 2 0 l 1
 162 460 l 1
 289 460 l 1
382 280 m 1
 393 317 400 367 348 372 c 0
 292 377 251 323 226 282 c 1
 198 278 l 1
 234 370 301 470 412 470 c 0
 518 470 538 382 514 294 c 1
 414 0 l 1
 284 0 l 1
 382 280 l 1
590 674 m 1
 376 532 l 1
 312 574 l 1
 502 728 l 1
 590 674 l 1
EndSplineSet
EndChar

StartChar: uni0145
Encoding: 325 325 316
GlifName: uni0145
Width: 740
VWidth: 0
Flags: HMW
LayerCount: 2
Fore
SplineSet
276 -50 m 1
 398 -84 l 1
 199 -328 l 1
 106 -304 l 1
 276 -50 l 1
722 700 m 1
 858 700 l 1
 607 -32 l 1
 300 434 l 1
 150 0 l 1
 14 0 l 1
 264 732 l 1
 572 266 l 1
 722 700 l 1
EndSplineSet
EndChar

StartChar: uni0146
Encoding: 326 326 317
GlifName: uni0146
Width: 525
VWidth: 0
Flags: HMW
LayerCount: 2
Fore
SplineSet
289 460 m 1
 130 0 l 1
 2 0 l 1
 162 460 l 1
 289 460 l 1
382 280 m 1
 393 317 400 367 348 372 c 0
 292 377 251 323 226 282 c 1
 192 278 l 1
 230 371 300 470 412 470 c 0
 518 470 538 382 514 294 c 1
 414 0 l 1
 284 0 l 1
 382 280 l 1
164 -62 m 1
 286 -96 l 1
 86 -340 l 1
 -6 -316 l 1
 164 -62 l 1
EndSplineSet
EndChar

StartChar: Ncaron
Encoding: 327 327 318
GlifName: N_caron
Width: 740
VWidth: 0
Flags: HMW
LayerCount: 2
Fore
SplineSet
605 897 m 1
 726 983 l 1
 796 918 l 1
 579 782 l 1
 444 926 l 1
 544 984 l 1
 605 897 l 1
722 700 m 1
 858 700 l 1
 607 -32 l 1
 300 434 l 1
 150 0 l 1
 14 0 l 1
 264 732 l 1
 572 266 l 1
 722 700 l 1
EndSplineSet
EndChar

StartChar: ncaron
Encoding: 328 328 319
GlifName: ncaron
Width: 525
VWidth: 0
Flags: HMW
LayerCount: 2
Fore
SplineSet
289 460 m 1
 130 0 l 1
 2 0 l 1
 162 460 l 1
 289 460 l 1
382 280 m 1
 393 317 400 367 348 372 c 0
 292 377 251 323 226 282 c 1
 192 278 l 1
 230 371 300 470 412 470 c 0
 518 470 538 382 514 294 c 1
 414 0 l 1
 284 0 l 1
 382 280 l 1
422 646 m 1
 544 732 l 1
 614 666 l 1
 396 530 l 1
 262 675 l 1
 361 733 l 1
 422 646 l 1
EndSplineSet
EndChar

StartChar: Omacron
Encoding: 332 332 320
GlifName: O_macron
Width: 763
VWidth: 0
Flags: HMW
LayerCount: 2
Fore
SplineSet
244 350 m 0
 207 248 232 123 360 121 c 0
 492 119 607 234 650 350 c 0
 688 452 663 577 534 579 c 0
 402 581 286 466 244 350 c 0
96 350 m 0
 158 546 352 714 562 714 c 0
 766 714 855 531 798 350 c 0
 736 154 542 -19 330 -18 c 0
 124 -17 39 169 96 350 c 0
419 775 m 1
 458 889 l 1
 806 889 l 1
 766 774 l 1
 419 775 l 1
EndSplineSet
EndChar

StartChar: omacron
Encoding: 333 333 321
GlifName: omacron
Width: 541
VWidth: 0
Flags: HMW
LayerCount: 2
Fore
SplineSet
52 230 m 0
 92 362 228 470 369 470 c 0
 504 470 577 356 538 230 c 0
 498 98 362 -10 222 -10 c 0
 87 -10 13 104 52 230 c 0
182 230 m 0
 162 174 174 103 244 101 c 0
 316 99 386 166 410 230 c 0
 430 286 417 358 347 360 c 0
 275 362 206 294 182 230 c 0
226 531 m 1
 264 645 l 1
 612 645 l 1
 572 530 l 1
 226 531 l 1
EndSplineSet
EndChar

StartChar: Obreve
Encoding: 334 334 322
GlifName: O_breve
Width: 763
VWidth: 0
Flags: HMW
LayerCount: 2
Fore
SplineSet
244 350 m 0
 207 248 232 123 360 121 c 0
 492 119 607 234 650 350 c 0
 688 452 663 577 534 579 c 0
 402 581 286 466 244 350 c 0
96 350 m 0
 158 546 352 714 562 714 c 0
 766 714 855 531 798 350 c 0
 736 154 542 -19 330 -18 c 0
 124 -17 39 169 96 350 c 0
486 918 m 1
 570 918 l 1
 569 886 574 858 612 856 c 0
 653 854 682 888 704 918 c 1
 795 916 l 1
 759 837 692 775 600 775 c 0
 510 775 475 836 486 918 c 1
EndSplineSet
EndChar

StartChar: obreve
Encoding: 335 335 323
GlifName: obreve
Width: 541
VWidth: 0
Flags: HMW
LayerCount: 2
Fore
SplineSet
52 230 m 0
 92 362 228 470 369 470 c 0
 504 470 577 356 538 230 c 0
 498 98 362 -10 222 -10 c 0
 87 -10 13 104 52 230 c 0
182 230 m 0
 162 174 174 103 244 101 c 0
 316 99 386 166 410 230 c 0
 430 286 417 358 347 360 c 0
 275 362 206 294 182 230 c 0
292 675 m 1
 376 674 l 1
 375 642 379 614 417 612 c 0
 458 610 488 644 510 674 c 1
 600 672 l 1
 564 593 498 532 406 532 c 0
 316 532 281 593 292 675 c 1
EndSplineSet
EndChar

StartChar: Racute
Encoding: 340 340 324
GlifName: R_acute
Width: 583
VWidth: 0
Flags: HMW
LayerCount: 2
Fore
SplineSet
280 326 m 1
 419 326 l 1
 522 0 l 1
 368 0 l 1
 280 326 l 1
253 700 m 1
 395 700 l 1
 154 0 l 1
 16 0 l 1
 253 700 l 1
296 578 m 1
 338 700 l 1
 470 700 l 0
 600 696 692 610 651 476 c 0
 609 338 473 258 334 254 c 0
 183 254 l 1
 224 368 l 1
 348 368 l 1
 414 372 482 408 506 473 c 0
 528 533 495 572 435 576 c 1
 296 578 l 1
687 918 m 1
 471 776 l 1
 406 818 l 1
 598 972 l 1
 687 918 l 1
EndSplineSet
EndChar

StartChar: uni0156
Encoding: 342 342 325
GlifName: uni0156
Width: 583
VWidth: 0
Flags: HMW
LayerCount: 2
Fore
SplineSet
280 326 m 1
 419 326 l 1
 522 0 l 1
 368 0 l 1
 280 326 l 1
253 700 m 1
 395 700 l 1
 154 0 l 1
 16 0 l 1
 253 700 l 1
296 578 m 1
 338 700 l 1
 470 700 l 0
 600 696 692 610 651 476 c 0
 609 338 473 258 334 254 c 0
 183 254 l 1
 224 368 l 1
 348 368 l 1
 414 372 482 408 506 473 c 0
 528 533 495 572 435 576 c 1
 296 578 l 1
225 -62 m 1
 347 -96 l 1
 149 -340 l 1
 56 -316 l 1
 225 -62 l 1
EndSplineSet
EndChar

StartChar: uni0157
Encoding: 343 343 326
GlifName: uni0157
Width: 367
VWidth: 0
Flags: HMW
LayerCount: 2
Fore
SplineSet
286 460 m 1
 128 0 l 1
 2 0 l 1
 162 460 l 1
 286 460 l 1
371 324 m 1
 357 336 344 348 324 349 c 0
 266 351 234 287 212 244 c 1
 186 282 l 1
 220 361 284 472 384 470 c 0
 416 470 437 453 459 431 c 1
 371 324 l 1
21 -62 m 1
 142 -96 l 1
 -56 -340 l 1
 -148 -316 l 1
 21 -62 l 1
EndSplineSet
EndChar

StartChar: Scedilla
Encoding: 350 350 327
GlifName: S_cedilla
Width: 566
VWidth: 0
Flags: HMW
LayerCount: 2
Fore
SplineSet
156 244 m 1
 170 180 193 110 271 110 c 0
 323 110 377 140 396 190 c 0
 422 256 352 289 304 313 c 0
 218 354 162 423 192 522 c 0
 228 640 352 714 472 714 c 0
 574 714 637 656 659 560 c 1
 538 498 l 1
 523 545 500 589 444 589 c 0
 400 589 349 559 333 517 c 0
 309 455 399 428 440 408 c 0
 527 366 571 289 542 193 c 0
 503 63 372 -18 240 -18 c 0
 122 -18 54 64 36 174 c 1
 156 244 l 1
238 59 m 1
 337 56 l 1
 214 -62 l 1
 222 -60 229 -60 237 -60 c 0
 284 -66 307 -107 294 -152 c 0
 277 -212 208 -251 148 -253 c 0
 103 -255 68 -236 32 -212 c 1
 88 -156 l 1
 106 -168 125 -180 148 -180 c 0
 168 -180 212 -162 216 -140 c 0
 220 -119 193 -111 178 -110 c 0
 152 -108 123 -118 97 -124 c 1
 238 59 l 1
EndSplineSet
EndChar

StartChar: scedilla
Encoding: 351 351 328
GlifName: scedilla
Width: 414
VWidth: 0
Flags: HMW
LayerCount: 2
Fore
SplineSet
77 170 m 1
 101 132 134 84 186 86 c 0
 211 86 247 102 256 128 c 0
 270 168 221 186 193 200 c 0
 133 228 88 272 110 342 c 0
 135 424 224 470 304 470 c 0
 372 470 423 440 464 394 c 1
 388 316 l 1
 366 346 338 374 297 374 c 0
 273 374 235 362 226 338 c 0
 210 298 278 283 303 271 c 0
 361 245 400 196 382 130 c 0
 358 40 270 -15 180 -15 c 0
 95 -15 36 32 -6 92 c 1
 77 170 l 1
174 61 m 1
 274 58 l 1
 152 -59 l 1
 158 -57 166 -57 172 -57 c 0
 220 -63 244 -102 232 -148 c 0
 216 -210 144 -249 84 -250 c 0
 40 -251 6 -233 -30 -209 c 1
 24 -154 l 1
 42 -166 61 -177 84 -177 c 0
 104 -177 148 -160 152 -138 c 0
 156 -117 128 -108 113 -107 c 0
 87 -105 60 -116 34 -122 c 1
 174 61 l 1
EndSplineSet
EndChar

StartChar: Zcaron
Encoding: 381 381 329
GlifName: Z_caron
Width: 561
VWidth: 0
Flags: HMW
LayerCount: 2
Fore
SplineSet
184 570 m 1
 230 700 l 1
 738 699 l 1
 221 127 l 1
 510 126 l 1
 466 0 l 1
 -52 0 l 1
 464 568 l 1
 184 570 l 1
540 890 m 1
 661 976 l 1
 731 910 l 1
 514 774 l 1
 379 918 l 1
 479 976 l 1
 540 890 l 1
EndSplineSet
EndChar

StartChar: zcaron
Encoding: 382 382 330
GlifName: zcaron
Width: 469
VWidth: 0
Flags: HMW
LayerCount: 2
Fore
SplineSet
414 646 m 1
 536 732 l 1
 606 665 l 1
 388 530 l 1
 254 674 l 1
 354 732 l 1
 414 646 l 1
310 340 m 1
 110 342 l 1
 152 460 l 1
 570 459 l 1
 220 120 l 1
 422 119 l 1
 380 0 l 1
 -47 0 l 1
 310 340 l 1
EndSplineSet
EndChar

StartChar: Ydieresis
Encoding: 376 376 331
GlifName: Y_dieresis
Width: 592
VWidth: 0
Flags: HMW
LayerCount: 2
Fore
SplineSet
338 858 m 0
 348 894 396 930 434 928 c 0
 473 926 499 891 489 853 c 0
 479 817 432 781 394 783 c 0
 354 785 328 820 338 858 c 0
580 858 m 0
 590 894 637 930 675 928 c 0
 714 926 740 891 730 853 c 0
 720 817 672 781 634 783 c 0
 594 785 570 820 580 858 c 0
617 699 m 1
 784 699 l 1
 411 283 l 1
 313 0 l 1
 170 0 l 1
 274 297 l 1
 188 700 l 1
 340 700 l 1
 382 424 l 1
 617 699 l 1
EndSplineSet
EndChar

StartChar: Scaron
Encoding: 352 352 332
GlifName: S_caron
Width: 566
VWidth: 0
Flags: HMW
LayerCount: 2
Fore
SplineSet
156 244 m 1
 170 180 193 110 271 110 c 0
 323 110 377 140 396 190 c 0
 422 256 352 289 304 313 c 0
 220 355 163 428 193 525 c 0
 229 641 354 714 472 714 c 0
 572 714 639 656 659 560 c 1
 538 497 l 1
 524 543 506 587 450 589 c 0
 405 589 349 561 333 517 c 0
 309 456 399 428 440 408 c 0
 527 366 571 289 542 193 c 0
 503 62 374 -19 240 -18 c 0
 122 -17 54 64 36 174 c 1
 156 244 l 1
532 890 m 1
 654 976 l 1
 724 910 l 1
 506 774 l 1
 372 918 l 1
 472 976 l 1
 532 890 l 1
EndSplineSet
EndChar

StartChar: scaron
Encoding: 353 353 333
GlifName: scaron
Width: 414
VWidth: 0
Flags: HMW
LayerCount: 2
Fore
SplineSet
78 169 m 1
 98 127 129 88 184 88 c 0
 210 88 246 101 255 128 c 0
 268 166 202 188 176 202 c 0
 122 230 83 278 102 342 c 0
 127 425 223 468 304 469 c 0
 372 469 426 440 464 392 c 1
 388 316 l 1
 362 346 333 369 291 369 c 0
 269 369 228 357 221 333 c 0
 210 297 281 280 303 268 c 0
 359 242 400 194 382 129 c 0
 358 37 266 -16 174 -16 c 0
 89 -16 29 27 -6 91 c 1
 78 169 l 1
362 637 m 1
 483 723 l 1
 554 657 l 1
 336 522 l 1
 201 666 l 1
 301 724 l 1
 362 637 l 1
EndSplineSet
EndChar

StartChar: Lslash
Encoding: 321 321 334
GlifName: L_slash
Width: 478
VWidth: 0
Flags: HMW
LayerCount: 2
Fore
SplineSet
63 318 m 1
 52 392 l 1
 440 610 l 1
 453 538 l 1
 63 318 l 1
254 700 m 1
 395 700 l 1
 198 126 l 1
 461 126 l 1
 417 0 l 1
 14 0 l 1
 254 700 l 1
EndSplineSet
EndChar

StartChar: lslash
Encoding: 322 322 335
GlifName: lslash
Width: 242
VWidth: 0
Flags: HMW
LayerCount: 2
Fore
SplineSet
56 318 m 1
 44 392 l 1
 398 586 l 1
 410 514 l 1
 56 318 l 1
270 780 m 1
 399 780 l 1
 130 0 l 1
 5 0 l 1
 270 780 l 1
EndSplineSet
EndChar

StartChar: uni0218
Encoding: 536 536 336
GlifName: uni0218
Width: 566
VWidth: 0
Flags: HMW
LayerCount: 2
Fore
SplineSet
156 244 m 1
 170 180 193 110 271 110 c 0
 323 110 377 140 396 190 c 0
 422 256 352 289 304 313 c 0
 220 355 163 428 193 525 c 0
 229 641 354 714 472 714 c 0
 572 714 639 656 659 560 c 1
 538 497 l 1
 524 543 506 587 450 589 c 0
 405 589 349 561 333 517 c 0
 309 456 399 428 440 408 c 0
 527 366 571 289 542 193 c 0
 503 62 374 -19 240 -18 c 0
 122 -17 54 64 36 174 c 1
 156 244 l 1
172 -72 m 1
 294 -106 l 1
 95 -350 l 1
 2 -326 l 1
 172 -72 l 1
EndSplineSet
EndChar

StartChar: uni0219
Encoding: 537 537 337
GlifName: uni0219
Width: 414
VWidth: 0
Flags: HMW
LayerCount: 2
Fore
SplineSet
78 169 m 1
 98 127 127 88 182 88 c 0
 208 88 246 101 255 128 c 0
 268 166 202 188 176 202 c 0
 122 230 83 278 102 342 c 0
 127 425 223 468 304 469 c 0
 372 469 426 440 464 392 c 1
 388 316 l 1
 362 346 333 369 291 369 c 0
 269 369 228 357 221 333 c 0
 210 297 281 280 303 268 c 0
 359 242 400 194 382 129 c 0
 358 37 266 -16 174 -16 c 0
 89 -16 29 27 -6 91 c 1
 78 169 l 1
108 -70 m 1
 228 -104 l 1
 30 -348 l 1
 -62 -324 l 1
 108 -70 l 1
EndSplineSet
EndChar

StartChar: pi
Encoding: 960 960 338
GlifName: pi
Width: 548
VWidth: 0
Flags: HMW
LayerCount: 2
Fore
SplineSet
174 430 m 1
 298 430 l 1
 148 0 l 1
 29 0 l 1
 174 430 l 1
130 460 m 1
 618 460 l 1
 579 350 l 1
 90 350 l 1
 130 460 l 1
412 430 m 1
 532 430 l 1
 440 167 l 1
 428 127 428 112 466 97 c 1
 432 -8 l 1
 344 -3 279 19 306 121 c 1
 412 430 l 1
EndSplineSet
EndChar

StartChar: trademark
Encoding: 8482 8482 339
GlifName: trademark
Width: 678
VWidth: 0
Flags: HMW
LayerCount: 2
Fore
SplineSet
189 635 m 1
 211 700 l 1
 460 700 l 1
 439 635 l 1
 350 635 l 1
 252 350 l 1
 180 350 l 1
 276 635 l 1
 189 635 l 1
703 600 m 1
 800 730 l 1
 718 350 l 1
 646 350 l 1
 703 600 l 1
517 718 m 1
 526 586 l 1
 417 351 l 1
 340 352 l 1
 517 718 l 1
804 730 m 1
 758 604 l 1
 545 380 l 1
 482 620 l 1
 517 716 l 1
 574 496 l 1
 804 730 l 1
EndSplineSet
EndChar

StartChar: uni2219
Encoding: 8729 8729 340
GlifName: uni2219
Width: 296
VWidth: 0
Flags: HMW
LayerCount: 2
Fore
SplineSet
164 436 m 0
 175 476 224 517 266 515 c 0
 309 513 333 472 322 432 c 0
 311 392 262 352 220 354 c 0
 177 356 153 396 164 436 c 0
EndSplineSet
EndChar

StartChar: agrave.alt
Encoding: 65537 -1 341
GlifName: agrave.alt
Width: 566
VWidth: 0
Flags: HMW
LayerCount: 2
Fore
SplineSet
490 460 m 1
 616 460 l 1
 457 0 l 1
 334 0 l 1
 490 460 l 1
52 230 m 0
 89 350 204 472 337 470 c 0
 469 468 482 330 450 230 c 0
 414 116 320 -9 190 -9 c 0
 56 -9 18 121 52 230 c 0
184 230 m 0
 164 174 176 101 248 99 c 0
 320 97 385 168 409 230 c 0
 428 284 421 357 352 361 c 0
 278 365 208 294 184 230 c 0
297 684 m 1
 406 730 l 1
 496 565 l 1
 422 530 l 1
 297 684 l 1
EndSplineSet
EndChar

StartChar: aacute.alt
Encoding: 65538 -1 342
GlifName: aacute.alt
Width: 566
VWidth: 0
Flags: HMW
LayerCount: 2
Fore
SplineSet
490 460 m 1
 616 460 l 1
 457 0 l 1
 334 0 l 1
 490 460 l 1
52 230 m 0
 89 350 204 472 337 470 c 0
 469 468 482 330 450 230 c 0
 414 116 320 -9 190 -9 c 0
 56 -9 18 121 52 230 c 0
184 230 m 0
 164 174 176 101 248 99 c 0
 320 97 385 168 409 230 c 0
 428 284 421 357 352 361 c 0
 278 365 208 294 184 230 c 0
587 674 m 1
 371 532 l 1
 306 574 l 1
 498 728 l 1
 587 674 l 1
EndSplineSet
EndChar

StartChar: acircumflex.alt
Encoding: 65539 -1 343
GlifName: acircumflex.alt
Width: 566
VWidth: 0
Flags: HMW
LayerCount: 2
Fore
SplineSet
490 460 m 1
 616 460 l 1
 457 0 l 1
 334 0 l 1
 490 460 l 1
52 230 m 0
 89 350 204 472 337 470 c 0
 469 468 482 330 450 230 c 0
 414 116 320 -9 190 -9 c 0
 56 -9 18 121 52 230 c 0
184 230 m 0
 164 174 176 101 248 99 c 0
 320 97 385 168 409 230 c 0
 428 284 421 357 352 361 c 0
 278 365 208 294 184 230 c 0
450 617 m 1
 328 531 l 1
 258 597 l 1
 476 732 l 1
 611 588 l 1
 511 530 l 1
 450 617 l 1
EndSplineSet
EndChar

StartChar: atilde.alt
Encoding: 65540 -1 344
GlifName: atilde.alt
Width: 566
VWidth: 0
Flags: HMW
LayerCount: 2
Fore
SplineSet
490 460 m 1
 616 460 l 1
 457 0 l 1
 334 0 l 1
 490 460 l 1
52 230 m 0
 89 350 204 472 337 470 c 0
 469 468 482 330 450 230 c 0
 414 116 320 -9 190 -9 c 0
 56 -9 18 121 52 230 c 0
184 230 m 0
 164 174 176 101 248 99 c 0
 320 97 385 168 409 230 c 0
 428 284 421 357 352 361 c 0
 278 365 208 294 184 230 c 0
260 590 m 1
 290 636 335 678 392 678 c 0
 434 678 457 626 500 629 c 0
 531 631 558 660 580 679 c 1
 624 611 l 1
 590 575 538 530 484 534 c 0
 443 538 418 588 376 583 c 0
 346 579 327 555 310 534 c 1
 260 590 l 1
EndSplineSet
EndChar

StartChar: adieresis.alt
Encoding: 65541 -1 345
GlifName: adieresis.alt
Width: 566
VWidth: 0
Flags: HMW
LayerCount: 2
Fore
SplineSet
490 460 m 1
 616 460 l 1
 457 0 l 1
 334 0 l 1
 490 460 l 1
52 230 m 0
 89 350 204 472 337 470 c 0
 469 468 482 330 450 230 c 0
 414 116 320 -9 190 -9 c 0
 56 -9 18 121 52 230 c 0
184 230 m 0
 164 174 176 101 248 99 c 0
 320 97 385 168 409 230 c 0
 428 284 421 357 352 361 c 0
 278 365 208 294 184 230 c 0
468 606 m 0
 478 642 526 679 564 677 c 0
 603 675 628 640 618 602 c 0
 608 566 562 530 524 532 c 0
 485 534 458 568 468 606 c 0
251 606 m 0
 261 642 308 679 346 677 c 0
 385 675 411 640 401 602 c 0
 391 566 344 530 306 532 c 0
 267 534 241 568 251 606 c 0
EndSplineSet
EndChar

StartChar: aring.alt
Encoding: 65542 -1 346
GlifName: aring.alt
Width: 566
VWidth: 0
Flags: HMW
LayerCount: 2
Fore
SplineSet
490 460 m 1
 616 460 l 1
 457 0 l 1
 334 0 l 1
 490 460 l 1
52 230 m 0
 89 350 204 472 337 470 c 0
 469 468 482 330 450 230 c 0
 414 116 320 -9 190 -9 c 0
 56 -9 18 121 52 230 c 0
184 230 m 0
 164 174 176 101 248 99 c 0
 320 97 385 168 409 230 c 0
 428 284 421 357 352 361 c 0
 278 365 208 294 184 230 c 0
304 642 m 0
 321 700 386 750 448 750 c 0
 510 750 548 698 531 639 c 0
 514 581 448 530 386 530 c 0
 324 530 287 584 304 642 c 0
372 639 m 0
 366 621 374 593 396 593 c 0
 420 593 457 622 463 642 c 0
 469 660 460 688 438 688 c 0
 414 688 378 659 372 639 c 0
EndSplineSet
EndChar

StartChar: amacron.alt
Encoding: 65543 -1 347
GlifName: amacron.alt
Width: 566
VWidth: 0
Flags: HMW
LayerCount: 2
Fore
SplineSet
490 460 m 1
 616 460 l 1
 457 0 l 1
 334 0 l 1
 490 460 l 1
52 230 m 0
 89 350 204 472 337 470 c 0
 469 468 482 330 450 230 c 0
 414 116 320 -9 190 -9 c 0
 56 -9 18 121 52 230 c 0
184 230 m 0
 164 174 176 101 248 99 c 0
 320 97 385 168 409 230 c 0
 428 284 421 357 352 361 c 0
 278 365 208 294 184 230 c 0
236 542 m 1
 274 656 l 1
 623 656 l 1
 583 542 l 1
 236 542 l 1
EndSplineSet
EndChar

StartChar: abreve.alt
Encoding: 65544 -1 348
GlifName: abreve.alt
Width: 566
VWidth: 0
Flags: HMW
LayerCount: 2
Fore
SplineSet
490 460 m 1
 616 460 l 1
 457 0 l 1
 334 0 l 1
 490 460 l 1
52 230 m 0
 89 350 204 472 337 470 c 0
 469 468 482 330 450 230 c 0
 414 116 320 -9 190 -9 c 0
 56 -9 18 121 52 230 c 0
184 230 m 0
 164 174 176 101 248 99 c 0
 320 97 385 168 409 230 c 0
 428 284 421 357 352 361 c 0
 278 365 208 294 184 230 c 0
270 674 m 1
 354 674 l 1
 354 642 359 613 397 611 c 0
 438 609 467 644 488 674 c 1
 578 672 l 1
 543 592 478 530 386 530 c 0
 296 530 260 592 270 674 c 1
EndSplineSet
EndChar

StartChar: aogonek.alt
Encoding: 65545 -1 349
GlifName: aogonek.alt
Width: 566
VWidth: 0
Flags: HMW
LayerCount: 2
Fore
SplineSet
490 460 m 1
 616 460 l 1
 457 0 l 1
 334 0 l 1
 490 460 l 1
52 230 m 0
 89 350 204 472 337 470 c 0
 469 468 482 330 450 230 c 0
 414 116 320 -9 190 -9 c 0
 56 -9 18 121 52 230 c 0
184 230 m 0
 164 174 176 101 248 99 c 0
 320 97 385 168 409 230 c 0
 428 284 421 357 352 361 c 0
 278 365 208 294 184 230 c 0
398 -116 m 1
 410 -183 l 1
 379 -203 347 -220 310 -220 c 0
 252 -220 209 -178 225 -118 c 0
 247 -43 335 -6 399 24 c 1
 436 0 l 1
 398 -24 338 -48 324 -96 c 0
 320 -113 322 -132 342 -136 c 0
 360 -139 383 -124 398 -116 c 1
EndSplineSet
EndChar

StartChar: dagger
Encoding: 8224 8224 350
GlifName: dagger
Width: 576
VWidth: 0
Flags: HMW
LayerCount: 2
Fore
SplineSet
216 540 m 1
 628 540 l 1
 592 430 l 1
 180 430 l 1
 216 540 l 1
409 700 m 1
 532 700 l 1
 268 -150 l 1
 149 -150 l 1
 409 700 l 1
EndSplineSet
EndChar

StartChar: daggerdbl
Encoding: 8225 8225 351
GlifName: daggerdbl
Width: 576
VWidth: 0
Flags: HMW
LayerCount: 2
Fore
SplineSet
94 146 m 1
 506 146 l 1
 471 36 l 1
 58 36 l 1
 94 146 l 1
216 540 m 1
 628 540 l 1
 592 430 l 1
 180 430 l 1
 216 540 l 1
409 700 m 1
 532 700 l 1
 268 -150 l 1
 149 -150 l 1
 409 700 l 1
EndSplineSet
EndChar

StartChar: ellipsis
Encoding: 8230 8230 352
GlifName: ellipsis
Width: 862
VWidth: 0
Flags: HMW
LayerCount: 2
Fore
SplineSet
36 62 m 0
 47 102 96 142 138 140 c 0
 181 138 205 98 194 58 c 0
 183 18 134 -22 92 -20 c 0
 49 -18 25 22 36 62 c 0
318 62 m 0
 329 102 378 142 420 140 c 0
 463 138 487 98 476 58 c 0
 465 18 416 -22 374 -20 c 0
 331 -18 307 22 318 62 c 0
600 62 m 0
 611 102 660 142 702 140 c 0
 745 138 769 98 758 58 c 0
 747 18 698 -22 656 -20 c 0
 613 -18 589 22 600 62 c 0
EndSplineSet
EndChar

StartChar: uniFF10
Encoding: 65296 65296 353
GlifName: uniF_F_10
Width: 577
VWidth: 0
Flags: HMW
LayerCount: 2
Fore
SplineSet
222 350 m 0
 200 286 153 119 266 115 c 0
 380 111 454 260 486 350 c 0
 508 414 556 581 443 585 c 0
 329 589 254 440 222 350 c 0
86 350 m 0
 140 515 275 712 469 712 c 0
 667 712 667 492 622 350 c 0
 568 184 434 -13 239 -12 c 0
 43 -11 41 210 86 350 c 0
EndSplineSet
EndChar

StartChar: uniFF11
Encoding: 65297 65297 354
GlifName: uniF_F_11
Width: 577
VWidth: 0
Flags: HMW
LayerCount: 2
Fore
SplineSet
222 515 m 1
 270 648 l 1
 586 714 l 1
 341 0 l 1
 204 0 l 1
 396 558 l 1
 222 515 l 1
EndSplineSet
EndChar

StartChar: uniFF12
Encoding: 65298 65298 355
GlifName: uniF_F_12
Width: 577
VWidth: 0
Flags: HMW
LayerCount: 2
Fore
SplineSet
-44 0 m 1
 366 332 l 2
 418 374 485 422 507 488 c 0
 523 536 506 583 451 586 c 0
 371 590 316 511 285 448 c 1
 148 448 l 1
 201 588 321 715 482 713 c 0
 606 713 686 612 649 490 c 0
 625 412 562 351 498 303 c 2
 270 134 l 1
 540 132 l 1
 496 0 l 1
 -44 0 l 1
EndSplineSet
EndChar

StartChar: uniFF13
Encoding: 65299 65299 356
GlifName: uniF_F_13
Width: 577
VWidth: 0
Flags: HMW
LayerCount: 2
Fore
SplineSet
318 342 m 1
 340 410 l 1
 402 420 480 444 502 512 c 0
 514 552 502 592 456 594 c 0
 398 596 357 548 329 504 c 1
 198 506 l 1
 246 622 349 712 479 712 c 0
 587 712 677 633 642 520 c 0
 600 384 442 348 318 342 c 1
242 -14 m 0
 107 -14 42 84 66 211 c 1
 201 210 l 1
 193 154 205 108 270 106 c 0
 330 104 393 148 414 205 c 0
 443 283 369 305 307 312 c 1
 330 388 l 1
 448 382 592 336 548 188 c 0
 509 60 370 -14 242 -14 c 0
EndSplineSet
EndChar

StartChar: uniFF14
Encoding: 65300 65300 357
GlifName: uniF_F_14
Width: 577
VWidth: 0
Flags: HMW
LayerCount: 2
Fore
SplineSet
-6 130 m 1
 144 236 l 1
 410 238 l 1
 432 252 l 1
 593 252 l 1
 550 129 l 1
 -6 130 l 1
150 164 m 1
 -10 125 l 1
 550 698 l 1
 649 700 l 1
 410 0 l 1
 264 0 l 1
 322 165 l 1
 338 176 l 1
 436 456 l 1
 150 164 l 1
EndSplineSet
EndChar

StartChar: uniFF15
Encoding: 65301 65301 358
GlifName: uniF_F_15
Width: 577
VWidth: 0
Flags: HMW
LayerCount: 2
Fore
SplineSet
565 225 m 0
 521 85 379 -12 234 -12 c 0
 136 -12 61 31 6 98 c 1
 102 206 l 1
 132 158 174 121 238 120 c 0
 312 119 396 166 420 239 c 0
 442 304 400 351 334 354 c 0
 263 358 195 332 130 308 c 1
 240 384 l 1
 296 424 362 458 433 456 c 0
 559 454 598 331 565 225 c 0
418 574 m 1
 298 388 l 1
 117 298 l 1
 350 699 l 1
 717 700 l 1
 674 576 l 1
 418 574 l 1
EndSplineSet
EndChar

StartChar: uniFF16
Encoding: 65302 65302 359
GlifName: uniF_F_16
Width: 577
VWidth: 0
Flags: HMW
LayerCount: 2
Fore
SplineSet
196 240 m 0
 174 180 192 112 264 110 c 0
 339 108 414 174 438 241 c 0
 460 300 443 371 370 373 c 0
 294 375 220 307 196 240 c 0
477 697 m 1
 663 697 l 1
 360 436 l 1
 326 430 l 1
 362 452 398 467 440 467 c 0
 562 465 605 343 574 240 c 0
 531 96 388 -14 238 -14 c 0
 92 -14 18 106 60 241 c 0
 82 311 131 371 183 421 c 2
 477 697 l 1
EndSplineSet
EndChar

StartChar: uniFF17
Encoding: 65303 65303 360
GlifName: uniF_F_17
Width: 577
VWidth: 0
Flags: HMW
LayerCount: 2
Fore
SplineSet
178 566 m 1
 224 700 l 1
 748 699 l 1
 190 0 l 1
 32 0 l 1
 490 564 l 1
 178 566 l 1
EndSplineSet
EndChar

StartChar: uniFF18
Encoding: 65304 65304 361
GlifName: uniF_F_18
Width: 577
VWidth: 0
Flags: HMW
LayerCount: 2
Fore
SplineSet
212 532 m 0
 246 642 367 714 479 714 c 0
 583 714 669 639 637 530 c 0
 604 418 482 347 370 347 c 0
 264 347 179 422 212 532 c 0
337 516 m 0
 323 477 337 430 383 428 c 0
 431 424 486 474 502 518 c 0
 516 557 505 604 457 606 c 0
 407 608 353 560 337 516 c 0
72 191 m 0
 109 315 243 394 369 394 c 0
 485 394 581 311 544 189 c 0
 507 67 371 -14 247 -14 c 0
 133 -14 36 71 72 191 c 0
216 210 m 0
 198 162 216 107 273 105 c 0
 332 103 396 158 416 212 c 0
 432 258 413 312 358 314 c 0
 300 316 236 262 216 210 c 0
EndSplineSet
EndChar

StartChar: uniFF19
Encoding: 65305 65305 362
GlifName: uniF_F_19
Width: 577
VWidth: 0
Flags: HMW
LayerCount: 2
Fore
SplineSet
512 460 m 0
 534 520 516 588 444 590 c 0
 369 592 294 526 270 459 c 0
 248 400 265 329 338 327 c 0
 414 325 488 393 512 460 c 0
232 3 m 1
 46 3 l 1
 348 264 l 1
 382 270 l 1
 346 248 310 233 268 233 c 0
 146 235 103 357 134 460 c 0
 177 604 320 714 470 714 c 0
 616 714 691 594 649 459 c 0
 627 389 577 329 525 279 c 2
 232 3 l 1
EndSplineSet
EndChar

StartChar: caron
Encoding: 711 711 363
GlifName: caron
Width: 451
VWidth: 0
Flags: HMW
LayerCount: 2
Fore
SplineSet
394 672 m 1
 515 758 l 1
 586 692 l 1
 368 556 l 1
 234 701 l 1
 333 759 l 1
 394 672 l 1
EndSplineSet
EndChar

StartChar: napostrophe
Encoding: 329 329 364
GlifName: napostrophe
Width: 670
VWidth: 0
Flags: HMW
LayerCount: 2
Fore
SplineSet
434 460 m 1
 275 0 l 1
 147 0 l 1
 306 460 l 1
 434 460 l 1
526 280 m 1
 537 317 546 367 494 372 c 0
 438 377 396 323 371 282 c 1
 337 278 l 1
 375 371 444 470 556 470 c 0
 662 470 683 382 659 294 c 1
 558 0 l 1
 429 0 l 1
 526 280 l 1
290 700 m 1
 432 699 l 1
 248 454 l 1
 154 454 l 1
 290 700 l 1
EndSplineSet
EndChar

StartChar: IJ
Encoding: 306 306 365
GlifName: I_J_
Width: 549
VWidth: 0
Flags: HMW
LayerCount: 2
Fore
SplineSet
110 -76 m 1
 128 -94 147 -112 174 -110 c 0
 219 -108 252 -64 268 -26 c 1
 519 700 l 1
 666 700 l 1
 409 -57 l 2
 369 -163 272 -234 157 -232 c 0
 99 -232 53 -210 8 -176 c 1
 110 -76 l 1
253 700 m 1
 397 700 l 1
 156 0 l 1
 16 0 l 1
 253 700 l 1
EndSplineSet
EndChar

StartChar: ij
Encoding: 307 307 366
GlifName: ij
Width: 502
VWidth: 0
Flags: HMW
LayerCount: 2
Fore
SplineSet
464 640 m 0
 474 676 521 712 559 710 c 0
 598 708 624 674 614 636 c 0
 604 600 557 563 519 565 c 0
 480 567 454 602 464 640 c 0
135 -89 m 1
 143 -89 159 -114 171 -115 c 0
 207 -119 233 -65 244 -39 c 1
 417 460 l 1
 540 460 l 1
 360 -70 l 2
 328 -157 256 -234 156 -232 c 0
 113 -232 84 -212 54 -182 c 1
 135 -89 l 1
216 640 m 0
 226 676 273 712 311 710 c 0
 350 708 377 674 367 636 c 0
 357 600 309 563 271 565 c 0
 232 567 206 602 216 640 c 0
167 460 m 1
 294 460 l 1
 134 0 l 1
 12 0 l 1
 167 460 l 1
EndSplineSet
EndChar

StartChar: uni0237
Encoding: 567 567 367
GlifName: uni0237
Width: 249
VWidth: 0
Flags: HMW
LayerCount: 2
Fore
SplineSet
-117 -89 m 1
 -109 -101 -100 -115 -82 -115 c 0
 -44 -115 -20 -68 -8 -39 c 1
 164 460 l 1
 288 460 l 1
 108 -70 l 2
 76 -157 4 -234 -96 -232 c 0
 -139 -232 -168 -212 -198 -182 c 1
 -117 -89 l 1
EndSplineSet
EndChar

StartChar: Sacute
Encoding: 346 346 368
GlifName: S_acute
Width: 566
VWidth: 0
Flags: HMW
LayerCount: 2
Fore
SplineSet
156 244 m 1
 170 180 193 110 271 110 c 0
 323 110 377 140 396 190 c 0
 422 256 352 289 304 313 c 0
 220 355 163 428 193 525 c 0
 229 641 354 714 472 714 c 0
 572 714 639 656 659 560 c 1
 538 497 l 1
 524 543 506 587 450 589 c 0
 405 589 349 561 333 517 c 0
 309 456 399 428 440 408 c 0
 527 366 571 289 542 193 c 0
 503 62 374 -19 240 -18 c 0
 122 -17 54 64 36 174 c 1
 156 244 l 1
723 918 m 1
 507 776 l 1
 442 818 l 1
 634 972 l 1
 723 918 l 1
EndSplineSet
EndChar

StartChar: sacute
Encoding: 347 347 369
GlifName: sacute
Width: 414
VWidth: 0
Flags: HMW
LayerCount: 2
Fore
SplineSet
78 169 m 1
 98 127 127 88 182 88 c 0
 208 88 246 101 255 128 c 0
 268 166 202 188 176 202 c 0
 122 230 83 278 102 342 c 0
 127 425 223 468 304 469 c 0
 372 469 426 440 464 392 c 1
 388 316 l 1
 362 346 333 369 291 369 c 0
 269 369 228 357 221 333 c 0
 210 297 281 280 303 268 c 0
 359 242 400 194 382 129 c 0
 358 37 266 -16 174 -16 c 0
 89 -16 29 27 -6 91 c 1
 78 169 l 1
554 674 m 1
 339 532 l 1
 274 574 l 1
 465 728 l 1
 554 674 l 1
EndSplineSet
EndChar

StartChar: Scircumflex
Encoding: 348 348 370
GlifName: S_circumflex
Width: 566
VWidth: 0
Flags: HMW
LayerCount: 2
Fore
SplineSet
156 244 m 1
 170 180 193 110 271 110 c 0
 323 110 377 140 396 190 c 0
 422 256 352 289 304 313 c 0
 220 355 163 428 193 525 c 0
 229 641 354 714 472 714 c 0
 572 714 639 656 659 560 c 1
 538 497 l 1
 524 543 506 587 450 589 c 0
 405 589 349 561 333 517 c 0
 309 456 399 428 440 408 c 0
 527 366 571 289 542 193 c 0
 503 62 374 -19 240 -18 c 0
 122 -17 54 64 36 174 c 1
 156 244 l 1
536 861 m 1
 415 775 l 1
 346 841 l 1
 562 976 l 1
 698 832 l 1
 598 774 l 1
 536 861 l 1
EndSplineSet
EndChar

StartChar: scircumflex
Encoding: 349 349 371
GlifName: scircumflex
Width: 414
VWidth: 0
Flags: HMW
LayerCount: 2
Fore
SplineSet
78 169 m 1
 98 127 129 88 184 88 c 0
 210 88 246 101 255 128 c 0
 268 166 202 188 176 202 c 0
 122 230 83 278 102 342 c 0
 127 425 223 468 304 469 c 0
 372 469 426 440 464 392 c 1
 388 316 l 1
 362 346 333 369 291 369 c 0
 269 369 228 357 221 333 c 0
 210 297 281 280 303 268 c 0
 359 242 400 194 382 129 c 0
 358 37 266 -16 174 -16 c 0
 89 -16 29 27 -6 91 c 1
 78 169 l 1
376 617 m 1
 256 531 l 1
 186 597 l 1
 402 732 l 1
 537 588 l 1
 438 530 l 1
 376 617 l 1
EndSplineSet
EndChar

StartChar: uni1E9E
Encoding: 7838 7838 372
GlifName: uni1E_9E_
Width: 784
VWidth: 0
Flags: HMW
LayerCount: 2
Fore
SplineSet
514 -12 m 0
 643 -12 740 57 740 159 c 0
 740 293 648 284 648 351 c 0
 648 411 814 441 814 565 c 0
 814 655 720 714 570 714 c 0
 346 714 212 569 146 373 c 2
 20 -2 l 1
 168 -2 l 1
 293 360 l 2
 339 492 432 585 554 585 c 0
 621 585 658 560 658 522 c 0
 658 452 496 439 496 348 c 0
 496 260 585 270 585 186 c 0
 585 133 535 112 473 112 c 0
 420 112 376 130 322 158 c 1
 282 40 l 1
 343 8 428 -12 514 -12 c 0
EndSplineSet
EndChar

StartChar: Zacute
Encoding: 377 377 373
GlifName: Z_acute
Width: 561
VWidth: 0
Flags: HW
LayerCount: 2
Fore
SplineSet
184 570 m 1
 230 700 l 1
 738 699 l 1
 221 127 l 1
 510 126 l 1
 466 0 l 1
 -52 0 l 1
 464 568 l 1
 184 570 l 1
719 918 m 1
 503 776 l 1
 438 818 l 1
 630 972 l 1
 719 918 l 1
EndSplineSet
EndChar

StartChar: zacute
Encoding: 378 378 374
GlifName: zacute
Width: 472
VWidth: 0
Flags: HW
LayerCount: 2
Fore
SplineSet
309 340 m 1
 110 342 l 1
 152 460 l 1
 570 459 l 1
 221 120 l 1
 422 118 l 1
 380 0 l 1
 -47 0 l 1
 309 340 l 1
598 686 m 1
 382 544 l 1
 316 585 l 1
 508 739 l 1
 598 686 l 1
EndSplineSet
EndChar

StartChar: Zdotaccent
Encoding: 379 379 375
GlifName: Z_dotaccent
Width: 561
VWidth: 0
Flags: HW
LayerCount: 2
Fore
SplineSet
184 570 m 1
 230 700 l 1
 738 699 l 1
 221 127 l 1
 510 126 l 1
 466 0 l 1
 -52 0 l 1
 464 568 l 1
 184 570 l 1
458 851 m 0
 468 887 514 923 552 921 c 0
 591 919 618 884 608 846 c 0
 598 810 550 773 512 775 c 0
 473 777 448 813 458 851 c 0
EndSplineSet
EndChar

StartChar: zdotaccent
Encoding: 380 380 376
GlifName: zdotaccent
Width: 472
VWidth: 0
Flags: HW
LayerCount: 2
Fore
SplineSet
309 340 m 1
 110 342 l 1
 152 460 l 1
 570 459 l 1
 221 120 l 1
 422 118 l 1
 380 0 l 1
 -47 0 l 1
 309 340 l 1
337 624 m 0
 347 660 395 696 433 694 c 0
 472 692 498 656 488 618 c 0
 478 582 431 546 393 548 c 0
 354 550 327 586 337 624 c 0
EndSplineSet
EndChar

StartChar: Tcaron
Encoding: 356 356 377
GlifName: T_caron
Width: 500
VWidth: 0
Flags: HW
LayerCount: 2
Fore
SplineSet
142 570 m 1
 188 700 l 1
 684 700 l 1
 638 570 l 1
 462 570 l 1
 266 0 l 1
 126 0 l 1
 321 570 l 1
 142 570 l 1
493 890 m 1
 615 976 l 1
 684 910 l 1
 468 774 l 1
 333 918 l 1
 432 976 l 1
 493 890 l 1
EndSplineSet
EndChar

StartChar: tcaron
Encoding: 357 357 378
GlifName: tcaron
Width: 417
VWidth: 0
Flags: HW
LayerCount: 2
Fore
SplineSet
106 460 m 1
 378 460 l 1
 339 350 l 1
 66 350 l 1
 106 460 l 1
234 620 m 1
 358 620 l 1
 144 0 l 1
 24 0 l 1
 234 620 l 1
546 791 m 1
 666 758 l 1
 468 514 l 1
 376 537 l 1
 546 791 l 1
EndSplineSet
EndChar

StartChar: Uring
Encoding: 366 366 379
GlifName: U_ring
Width: 638
VWidth: 0
Flags: HW
LayerCount: 2
Fore
SplineSet
250 700 m 1
 390 700 l 1
 229 238 l 2
 211 178 218 110 294 108 c 0
 372 106 432 172 460 239 c 1
 620 700 l 1
 760 700 l 1
 600 230 l 2
 548 88 422 -22 266 -22 c 0
 118 -22 50 93 90 230 c 0
 250 700 l 1
454 888 m 0
 471 946 536 995 598 995 c 0
 660 995 697 943 680 884 c 0
 663 826 598 775 536 775 c 0
 474 775 437 830 454 888 c 0
522 884 m 0
 516 866 525 840 546 838 c 0
 570 834 606 867 612 887 c 0
 618 905 609 932 588 934 c 0
 564 938 528 904 522 884 c 0
EndSplineSet
EndChar

StartChar: uring
Encoding: 367 367 380
GlifName: uring
Width: 525
VWidth: 0
Flags: HW
LayerCount: 2
Fore
SplineSet
286 0 m 1
 445 460 l 1
 573 460 l 1
 414 0 l 1
 286 0 l 1
194 180 m 1
 183 143 174 93 226 88 c 0
 282 83 324 137 349 178 c 1
 378 182 l 1
 342 90 274 -10 163 -10 c 0
 57 -10 37 78 61 166 c 1
 162 460 l 1
 292 460 l 1
 194 180 l 1
315 643 m 0
 332 701 397 752 459 752 c 0
 521 752 559 698 542 639 c 0
 525 581 459 532 397 532 c 0
 335 532 298 585 315 643 c 0
383 640 m 0
 377 622 385 596 406 594 c 0
 430 590 467 623 473 643 c 0
 479 661 471 688 450 690 c 0
 426 694 389 660 383 640 c 0
EndSplineSet
EndChar

StartChar: Wcircumflex
Encoding: 372 372 381
GlifName: W_circumflex
Width: 980
VWidth: 0
Flags: HW
LayerCount: 2
Fore
SplineSet
710 258 m 1
 995 700 l 1
 1166 699 l 1
 641 -45 l 1
 587 413 l 1
 224 -46 l 1
 190 700 l 1
 348 700 l 1
 337 262 l 1
 684 742 l 1
 710 258 l 1
744 884 m 1
 622 799 l 1
 550 866 l 1
 766 1000 l 1
 902 856 l 1
 804 798 l 1
 744 884 l 1
EndSplineSet
EndChar

StartChar: wcircumflex
Encoding: 373 373 382
GlifName: wcircumflex
Width: 692
VWidth: 0
Flags: HW
LayerCount: 2
Fore
SplineSet
102 460 m 1
 228 460 l 1
 235 213 l 1
 458 500 l 1
 483 211 l 1
 664 459 l 1
 808 459 l 1
 420 -36 l 1
 384 255 l 1
 146 -36 l 1
 102 460 l 1
517 644 m 1
 395 559 l 1
 324 625 l 1
 540 760 l 1
 676 615 l 1
 577 557 l 1
 517 644 l 1
EndSplineSet
EndChar

StartChar: Ycircumflex
Encoding: 374 374 383
GlifName: Y_circumflex
Width: 592
VWidth: 0
Flags: HW
LayerCount: 2
Fore
SplineSet
616 699 m 1
 786 699 l 1
 411 282 l 1
 314 0 l 1
 170 0 l 1
 274 299 l 1
 188 700 l 1
 338 700 l 1
 382 425 l 1
 616 699 l 1
540 861 m 1
 418 776 l 1
 346 842 l 1
 563 978 l 1
 699 832 l 1
 600 774 l 1
 540 861 l 1
EndSplineSet
EndChar

StartChar: ycircumflex
Encoding: 375 375 384
GlifName: ycircumflex
Width: 466
VWidth: 0
Flags: HW
LayerCount: 2
Fore
SplineSet
584 459 m 1
 68 -219 l 1
 -72 -219 l 1
 138 55 l 1
 98 460 l 1
 232 460 l 1
 247 94 l 1
 182 98 l 1
 443 459 l 1
 584 459 l 1
394 618 m 1
 272 532 l 1
 200 598 l 1
 416 733 l 1
 552 588 l 1
 454 530 l 1
 394 618 l 1
EndSplineSet
EndChar

StartChar: Utilde
Encoding: 360 360 385
GlifName: U_tilde
Width: 638
VWidth: 0
Flags: HW
LayerCount: 2
Fore
SplineSet
249 700 m 1
 391 700 l 1
 229 238 l 2
 211 178 216 110 292 108 c 0
 370 105 432 172 460 239 c 1
 619 700 l 1
 760 700 l 1
 601 230 l 2
 549 88 424 -22 268 -22 c 0
 120 -22 49 92 89 230 c 0
 249 700 l 1
370 834 m 1
 378 877 458 923 502 921 c 0
 544 919 568 870 610 873 c 0
 641 875 668 904 689 923 c 1
 736 854 l 1
 703 818 652 773 598 777 c 0
 556 781 532 831 490 826 c 0
 460 822 440 799 424 778 c 1
 370 834 l 1
EndSplineSet
EndChar

StartChar: utilde
Encoding: 361 361 386
GlifName: utilde
Width: 525
VWidth: 0
Flags: HW
LayerCount: 2
Fore
SplineSet
286 0 m 1
 445 460 l 1
 574 460 l 1
 415 0 l 1
 286 0 l 1
194 180 m 1
 183 143 174 93 226 88 c 0
 282 82 323 137 348 178 c 1
 378 182 l 1
 342 90 274 -8 164 -10 c 0
 58 -12 37 78 61 166 c 1
 162 460 l 1
 292 460 l 1
 194 180 l 1
232 590 m 1
 262 632 307 679 363 676 c 0
 405 674 430 626 472 629 c 0
 503 631 529 659 550 678 c 1
 598 610 l 1
 565 574 514 530 460 534 c 0
 418 538 392 587 350 582 c 0
 320 578 302 554 286 533 c 1
 232 590 l 1
EndSplineSet
EndChar

StartChar: Umacron
Encoding: 362 362 387
GlifName: U_macron
Width: 638
VWidth: 0
Flags: HW
LayerCount: 2
Fore
SplineSet
249 700 m 1
 391 700 l 1
 229 238 l 2
 211 178 216 110 292 108 c 0
 370 105 432 172 460 239 c 1
 619 700 l 1
 760 700 l 1
 601 230 l 2
 549 88 424 -22 268 -22 c 0
 120 -22 49 92 89 230 c 0
 249 700 l 1
358 775 m 1
 394 889 l 1
 744 889 l 1
 706 775 l 1
 358 775 l 1
EndSplineSet
EndChar

StartChar: umacron
Encoding: 363 363 388
GlifName: umacron
Width: 525
VWidth: 0
Flags: HW
LayerCount: 2
Fore
SplineSet
286 0 m 1
 445 460 l 1
 574 460 l 1
 415 0 l 1
 286 0 l 1
194 180 m 1
 183 143 174 93 226 88 c 0
 282 82 323 137 348 178 c 1
 378 182 l 1
 342 90 274 -8 164 -10 c 0
 58 -12 37 78 61 166 c 1
 162 460 l 1
 292 460 l 1
 194 180 l 1
220 531 m 1
 255 645 l 1
 606 645 l 1
 568 531 l 1
 220 531 l 1
EndSplineSet
EndChar

StartChar: Ubreve
Encoding: 364 364 389
GlifName: U_breve
Width: 638
VWidth: 0
Flags: HW
LayerCount: 2
Fore
SplineSet
249 700 m 1
 391 700 l 1
 229 238 l 2
 211 178 216 110 292 108 c 0
 370 105 432 172 460 239 c 1
 619 700 l 1
 760 700 l 1
 601 230 l 2
 549 88 424 -22 268 -22 c 0
 120 -22 49 92 89 230 c 0
 249 700 l 1
424 918 m 1
 508 918 l 1
 507 886 511 858 549 856 c 0
 590 854 620 888 642 918 c 1
 733 916 l 1
 699 836 634 775 542 775 c 0
 452 775 414 835 424 918 c 1
EndSplineSet
EndChar

StartChar: ubreve
Encoding: 365 365 390
GlifName: ubreve
Width: 525
VWidth: 0
Flags: HW
LayerCount: 2
Fore
SplineSet
286 0 m 1
 445 460 l 1
 574 460 l 1
 415 0 l 1
 286 0 l 1
194 180 m 1
 183 143 174 93 226 88 c 0
 282 82 323 137 348 178 c 1
 378 182 l 1
 342 90 274 -8 164 -10 c 0
 58 -12 37 78 61 166 c 1
 162 460 l 1
 292 460 l 1
 194 180 l 1
284 674 m 1
 369 674 l 1
 368 642 372 614 410 612 c 0
 451 610 480 643 502 673 c 1
 594 672 l 1
 560 592 495 531 403 531 c 0
 313 531 274 591 284 674 c 1
EndSplineSet
EndChar

StartChar: uni0123
Encoding: 291 291 391
GlifName: uni0123
Width: 536
VWidth: 0
Flags: HW
LayerCount: 2
Fore
SplineSet
-96 -32 m 1
 23 -33 l 1
 19 -87 32 -126 93 -128 c 0
 173 -130 236 -58 264 10 c 1
 421 460 l 1
 548 460 l 1
 394 10 l 2
 346 -124 235 -235 86 -236 c 0
 -44 -237 -110 -157 -96 -32 c 1
-13 235 m 0
 23 355 136 472 268 470 c 0
 400 468 419 338 389 234 c 0
 355 120 260 1 132 -0 c 0
 0 -2 -46 123 -13 235 c 0
120 234 m 0
 100 178 112 110 182 108 c 0
 252 106 319 174 343 236 c 0
 363 288 358 357 290 361 c 0
 218 365 144 298 120 234 c 0
359 544 m 1
 246 602 l 1
 467 821 l 1
 556 779 l 1
 359 544 l 1
EndSplineSet
EndChar

StartChar: Hbar
Encoding: 294 294 392
GlifName: H_bar
Width: 718
VWidth: 0
Flags: HW
LayerCount: 2
Fore
SplineSet
98 308 m 1
 142 438 l 1
 635 438 l 1
 590 308 l 1
 98 308 l 1
627 700 m 1
 774 700 l 1
 532 0 l 1
 391 0 l 1
 627 700 l 1
185 700 m 1
 332 700 l 1
 89 0 l 1
 -51 0 l 1
 185 700 l 1
66 538 m 1
 99 634 l 1
 818 634 l 1
 784 538 l 1
 66 538 l 1
EndSplineSet
EndChar

StartChar: hbar
Encoding: 295 295 393
GlifName: hbar
Width: 521
VWidth: 0
Flags: HW
LayerCount: 2
Fore
SplineSet
334 780 m 1
 66 0 l 1
 -65 0 l 1
 204 780 l 1
 334 780 l 1
316 280 m 1
 327 316 336 367 286 372 c 0
 230 378 189 323 164 282 c 1
 132 283 l 1
 168 375 234 472 344 474 c 0
 451 476 471 385 447 298 c 1
 344 0 l 1
 218 0 l 1
 316 280 l 1
90 606 m 1
 128 720 l 1
 442 720 l 1
 403 606 l 1
 90 606 l 1
EndSplineSet
EndChar

StartChar: uni0400
Encoding: 1024 1024 394
GlifName: uni0400
Width: 517
VWidth: 0
Flags: HW
LayerCount: 2
Fore
SplineSet
102 0 m 1
 143 122 l 1
 483 122 l 1
 442 0 l 1
 102 0 l 1
300 579 m 1
 341 700 l 1
 681 700 l 1
 639 579 l 1
 300 579 l 1
209 312 m 1
 250 431 l 1
 570 431 l 1
 530 312 l 1
 209 312 l 1
251 700 m 1
 392 700 l 1
 150 0 l 1
 14 0 l 1
 251 700 l 1
382 928 m 1
 488 974 l 1
 584 807 l 1
 510 774 l 1
 382 928 l 1
EndSplineSet
EndChar

StartChar: uni0401
Encoding: 1025 1025 395
GlifName: uni0401
Width: 517
VWidth: 0
Flags: HW
LayerCount: 2
Fore
SplineSet
102 0 m 1
 143 122 l 1
 483 122 l 1
 442 0 l 1
 102 0 l 1
300 579 m 1
 341 700 l 1
 681 700 l 1
 639 579 l 1
 300 579 l 1
209 312 m 1
 250 431 l 1
 570 431 l 1
 530 312 l 1
 209 312 l 1
251 700 m 1
 392 700 l 1
 150 0 l 1
 14 0 l 1
 251 700 l 1
562 850 m 0
 570 886 618 923 656 921 c 0
 696 919 723 885 714 845 c 0
 706 809 658 773 620 775 c 0
 580 777 553 810 562 850 c 0
346 850 m 0
 354 886 400 923 438 921 c 0
 478 919 506 885 497 845 c 0
 489 809 442 773 404 775 c 0
 364 777 337 810 346 850 c 0
EndSplineSet
EndChar

StartChar: uni0403
Encoding: 1027 1027 396
GlifName: uni0403
Width: 455
VWidth: 0
Flags: HW
LayerCount: 2
Fore
SplineSet
254 700 m 1
 636 700 l 1
 590 570 l 1
 355 570 l 1
 159 0 l 1
 19 0 l 1
 254 700 l 1
676 917 m 1
 464 775 l 1
 396 818 l 1
 583 971 l 1
 676 917 l 1
EndSplineSet
EndChar

StartChar: uni040C
Encoding: 1036 1036 397
GlifName: uni040C_
Width: 531
VWidth: 0
Flags: HW
LayerCount: 2
Fore
SplineSet
251 700 m 1
 401 700 l 1
 159 0 l 1
 14 0 l 1
 251 700 l 1
620 699 m 1
 802 699 l 1
 404 362 l 1
 560 0 l 1
 406 0 l 1
 243 378 l 1
 620 699 l 1
720 908 m 1
 507 767 l 1
 438 812 l 1
 626 963 l 1
 720 908 l 1
EndSplineSet
EndChar

StartChar: uni040D
Encoding: 1037 1037 398
GlifName: uni040D_
Width: 740
VWidth: 0
Flags: HW
LayerCount: 2
Fore
SplineSet
800 541 m 1
 -8 -51 l 1
 72 159 l 1
 880 752 l 1
 800 541 l 1
392 700 m 1
 188 106 l 1
 -8 -51 l 1
 252 700 l 1
 392 700 l 1
880 752 m 1
 619 0 l 1
 480 0 l 1
 682 590 l 1
 880 752 l 1
456 909 m 1
 563 954 l 1
 656 786 l 1
 584 754 l 1
 456 909 l 1
EndSplineSet
EndChar

StartChar: uni040E
Encoding: 1038 1038 399
GlifName: uni040E_
Width: 557
VWidth: 0
Flags: HW
LayerCount: 2
Fore
SplineSet
759 700 m 1
 208 0 l 1
 54 0 l 1
 225 222 l 1
 180 700 l 1
 326 700 l 1
 341 267 l 1
 274 271 l 1
 602 700 l 1
 759 700 l 1
376 919 m 1
 460 918 l 1
 460 887 465 858 502 856 c 0
 543 853 573 887 594 917 c 1
 686 916 l 1
 653 836 587 774 496 774 c 0
 406 774 368 836 376 919 c 1
EndSplineSet
EndChar

StartChar: uni0410
Encoding: 1040 1040 400
GlifName: uni0410
Width: 669
VWidth: 0
Flags: HW
LayerCount: 2
Fore
SplineSet
160 159 m 1
 214 271 l 1
 538 272 l 1
 515 157 l 1
 160 159 l 1
451 472 m 1
 268 230 l 1
 262 198 l 1
 108 0 l 1
 -64 0 l 1
 532 748 l 1
 614 0 l 1
 464 0 l 1
 444 194 l 1
 459 229 l 1
 451 472 l 1
EndSplineSet
EndChar

StartChar: uni0411
Encoding: 1041 1041 401
GlifName: uni0411
Width: 596
VWidth: 0
Flags: HW
LayerCount: 2
Fore
SplineSet
170 312 m 1
 210 431 l 1
 416 431 l 1
 536 428 619 338 584 216 c 0
 548 90 423 3 295 0 c 1
 60 0 l 1
 104 122 l 1
 292 122 l 2
 354 124 416 156 440 218 c 0
 462 275 429 307 373 310 c 1
 170 312 l 1
254 700 m 1
 700 700 l 1
 658 578 l 1
 361 578 l 1
 161 0 l 1
 19 0 l 1
 254 700 l 1
EndSplineSet
EndChar

StartChar: uni0412
Encoding: 1042 1042 402
GlifName: uni0412
Width: 595
VWidth: 0
Flags: HW
LayerCount: 2
Fore
SplineSet
238 355 m 1
 260 420 l 1
 360 420 l 1
 414 423 473 451 493 504 c 0
 511 552 483 582 436 585 c 1
 360 586 l 1
 194 114 l 1
 268 114 l 1
 336 118 409 150 433 218 c 0
 455 280 416 310 358 314 c 1
 224 316 l 1
 252 394 l 1
 374 394 l 1
 489 391 606 331 570 198 c 0
 533 62 396 4 266 0 c 1
 14 0 l 1
 254 700 l 1
 465 700 l 1
 569 696 678 643 644 522 c 0
 611 405 482 358 372 355 c 2
 238 355 l 1
EndSplineSet
EndChar

StartChar: uni0413
Encoding: 1043 1043 403
GlifName: uni0413
Width: 455
VWidth: 0
Flags: HW
LayerCount: 2
Fore
SplineSet
254 700 m 1
 636 700 l 1
 590 570 l 1
 355 570 l 1
 159 0 l 1
 19 0 l 1
 254 700 l 1
EndSplineSet
EndChar

StartChar: uni0414
Encoding: 1044 1044 404
GlifName: uni0414
Width: 804
VWidth: 0
Flags: HW
LayerCount: 2
Fore
SplineSet
508 457 m 1
 214 31 l 1
 42 31 l 1
 596 742 l 1
 659 30 l 1
 510 30 l 1
 508 457 l 1
578 0 m 1
 121 0 l 1
 82 -110 l 1
 -58 -110 l 1
 24 126 l 1
 757 126 l 1
 675 -110 l 1
 536 -110 l 1
 578 0 l 1
EndSplineSet
EndChar

StartChar: uni0415
Encoding: 1045 1045 405
GlifName: uni0415
Width: 554
VWidth: 0
Flags: HW
LayerCount: 2
Fore
SplineSet
104 0 m 1
 144 122 l 1
 484 122 l 1
 443 0 l 1
 104 0 l 1
300 579 m 1
 342 700 l 1
 682 700 l 1
 640 579 l 1
 300 579 l 1
210 312 m 1
 250 431 l 1
 572 431 l 1
 531 312 l 1
 210 312 l 1
252 700 m 1
 394 700 l 1
 152 0 l 1
 16 0 l 1
 252 700 l 1
EndSplineSet
EndChar

StartChar: uni0416
Encoding: 1046 1046 406
GlifName: uni0416
Width: 967
VWidth: 0
Flags: HW
LayerCount: 2
Fore
SplineSet
354 700 m 1
 522 360 l 1
 118 0 l 1
 -65 0 l 1
 366 382 l 1
 205 700 l 1
 354 700 l 1
596 700 m 1
 746 700 l 1
 504 0 l 1
 360 0 l 1
 596 700 l 1
962 699 m 1
 1150 699 l 1
 747 362 l 1
 907 0 l 1
 753 0 l 1
 595 381 l 1
 962 699 l 1
EndSplineSet
EndChar

StartChar: uni0417
Encoding: 1047 1047 407
GlifName: uni0417
Width: 610
VWidth: 0
Flags: HW
LayerCount: 2
Fore
SplineSet
341 340 m 1
 359 410 l 1
 427 417 518 437 544 509 c 0
 562 561 530 592 480 594 c 0
 414 596 363 556 329 504 c 1
 194 506 l 1
 242 634 359 712 495 712 c 0
 605 712 723 646 687 520 c 0
 646 376 469 345 341 340 c 1
276 -14 m 0
 135 -14 37 65 60 211 c 1
 196 210 l 1
 190 143 216 108 286 106 c 0
 354 104 432 137 458 205 c 0
 492 292 395 307 333 312 c 1
 354 388 l 1
 473 384 635 343 593 188 c 0
 555 51 408 -14 276 -14 c 0
EndSplineSet
EndChar

StartChar: uni0418
Encoding: 1048 1048 408
GlifName: uni0418
Width: 740
VWidth: 0
Flags: HW
LayerCount: 2
Fore
SplineSet
800 541 m 1
 -8 -51 l 1
 72 159 l 1
 880 752 l 1
 800 541 l 1
392 700 m 1
 188 106 l 1
 -8 -51 l 1
 252 700 l 1
 392 700 l 1
880 752 m 1
 619 0 l 1
 480 0 l 1
 682 590 l 1
 880 752 l 1
EndSplineSet
EndChar

StartChar: uni0419
Encoding: 1049 1049 409
GlifName: uni0419
Width: 740
VWidth: 0
Flags: HW
LayerCount: 2
Fore
SplineSet
800 541 m 1
 -8 -51 l 1
 72 159 l 1
 880 752 l 1
 800 541 l 1
392 700 m 1
 188 106 l 1
 -8 -51 l 1
 252 700 l 1
 392 700 l 1
880 752 m 1
 619 0 l 1
 480 0 l 1
 682 590 l 1
 880 752 l 1
466 920 m 1
 550 920 l 1
 550 888 556 859 594 857 c 0
 635 855 663 888 684 918 c 1
 774 918 l 1
 740 838 676 776 584 776 c 0
 494 776 457 837 466 920 c 1
EndSplineSet
EndChar

StartChar: uni041A
Encoding: 1050 1050 410
GlifName: uni041A_
Width: 622
VWidth: 0
Flags: HW
LayerCount: 2
Fore
SplineSet
251 700 m 1
 401 700 l 1
 159 0 l 1
 14 0 l 1
 251 700 l 1
620 699 m 1
 802 699 l 1
 404 362 l 1
 560 0 l 1
 406 0 l 1
 243 378 l 1
 620 699 l 1
EndSplineSet
EndChar

StartChar: uni041B
Encoding: 1051 1051 411
GlifName: uni041B_
Width: 692
VWidth: 0
Flags: HW
LayerCount: 2
Fore
SplineSet
808 700 m 1
 566 0 l 1
 422 0 l 1
 617 570 l 1
 385 570 l 1
 286 279 l 2
 230 119 129 17 -43 2 c 1
 -10 121 l 1
 68 143 112 205 140 279 c 1
 286 700 l 1
 808 700 l 1
EndSplineSet
EndChar

StartChar: uni041C
Encoding: 1052 1052 412
GlifName: uni041C_
Width: 815
VWidth: 0
Flags: HW
LayerCount: 2
Fore
SplineSet
302 389 m 1
 126 0 l 1
 -28 0 l 1
 325 738 l 1
 444 290 l 1
 887 750 l 1
 729 0 l 1
 583 0 l 1
 672 373 l 1
 380 60 l 1
 302 389 l 1
EndSplineSet
EndChar

StartChar: uni041D
Encoding: 1053 1053 413
GlifName: uni041D_
Width: 719
VWidth: 0
Flags: HW
LayerCount: 2
Fore
SplineSet
164 308 m 1
 208 438 l 1
 700 438 l 1
 656 308 l 1
 164 308 l 1
693 700 m 1
 839 700 l 1
 597 0 l 1
 457 0 l 1
 693 700 l 1
251 700 m 1
 397 700 l 1
 155 0 l 1
 14 0 l 1
 251 700 l 1
EndSplineSet
EndChar

StartChar: uni041E
Encoding: 1054 1054 414
GlifName: uni041E_
Width: 762
VWidth: 0
Flags: HW
LayerCount: 2
Fore
SplineSet
246 350 m 0
 208 250 228 123 356 121 c 0
 488 119 605 234 649 350 c 0
 687 450 667 577 538 579 c 0
 406 581 290 466 246 350 c 0
94 350 m 0
 154 546 348 714 558 714 c 0
 761 714 855 532 799 350 c 0
 739 154 546 -18 334 -18 c 0
 130 -18 38 168 94 350 c 0
EndSplineSet
EndChar

StartChar: uni041F
Encoding: 1055 1055 415
GlifName: uni041F_
Width: 709
VWidth: 0
Flags: HW
LayerCount: 2
Fore
SplineSet
636 570 m 1
 358 570 l 1
 162 0 l 1
 16 0 l 1
 256 700 l 1
 824 700 l 1
 583 0 l 1
 440 0 l 1
 636 570 l 1
EndSplineSet
EndChar

StartChar: uni0420
Encoding: 1056 1056 416
GlifName: uni0420
Width: 568
VWidth: 0
Flags: HW
LayerCount: 2
Fore
SplineSet
252 700 m 1
 398 700 l 1
 156 0 l 1
 16 0 l 1
 252 700 l 1
297 578 m 1
 337 700 l 1
 458 700 l 1
 589 696 685 613 645 476 c 0
 604 336 472 258 332 254 c 1
 183 254 l 1
 226 374 l 1
 348 376 l 2
 414 378 482 413 508 478 c 0
 530 537 499 575 440 578 c 1
 297 578 l 1
EndSplineSet
EndChar

StartChar: uni0421
Encoding: 1057 1057 417
GlifName: uni0421
Width: 653
VWidth: 0
Flags: HW
LayerCount: 2
Fore
SplineSet
249 350 m 0
 209 247 242 129 368 126 c 0
 456 124 539 170 610 218 c 1
 566 58 l 1
 498 15 422 -14 340 -14 c 0
 136 -14 37 166 94 350 c 0
 155 549 350 714 562 714 c 0
 638 714 700 689 757 640 c 1
 710 480 l 1
 674 542 621 575 547 575 c 0
 416 574 295 468 249 350 c 0
EndSplineSet
EndChar

StartChar: uni0422
Encoding: 1058 1058 418
GlifName: uni0422
Width: 502
VWidth: 0
Flags: HW
LayerCount: 2
Fore
SplineSet
142 570 m 1
 188 700 l 1
 686 700 l 1
 640 570 l 1
 464 570 l 1
 268 0 l 1
 125 0 l 1
 320 570 l 1
 142 570 l 1
EndSplineSet
EndChar

StartChar: uni0423
Encoding: 1059 1059 419
GlifName: uni0423
Width: 566
VWidth: 0
Flags: HW
LayerCount: 2
Fore
SplineSet
768 700 m 1
 217 0 l 1
 58 0 l 1
 230 222 l 1
 180 700 l 1
 329 700 l 1
 345 267 l 1
 278 271 l 1
 606 700 l 1
 768 700 l 1
EndSplineSet
EndChar

StartChar: uni0424
Encoding: 1060 1060 420
GlifName: uni0424
Width: 834
VWidth: 0
Flags: HW
LayerCount: 2
Fore
SplineSet
528 700 m 1
 676 700 l 1
 435 0 l 1
 292 0 l 1
 528 700 l 1
724 350 m 0
 764 448 684 488 598 490 c 1
 490 491 l 2
 390 489 282 450 242 350 c 0
 202 252 282 212 368 210 c 1
 476 209 l 2
 576 211 684 250 724 350 c 0
867 350 m 0
 817 182 646 83 478 80 c 1
 330 80 l 1
 176 82 52 187 100 350 c 0
 150 518 319 617 487 620 c 1
 636 620 l 1
 790 618 915 513 867 350 c 0
EndSplineSet
EndChar

StartChar: uni0425
Encoding: 1061 1061 421
GlifName: uni0425
Width: 649
VWidth: 0
Flags: HW
LayerCount: 2
Fore
SplineSet
612 699 m 1
 796 699 l 1
 466 350 l 1
 557 0 l 1
 397 0 l 1
 354 243 l 1
 137 0 l 1
 -49 0 l 1
 310 372 l 1
 228 700 l 1
 388 700 l 1
 424 488 l 1
 612 699 l 1
EndSplineSet
EndChar

StartChar: uni0426
Encoding: 1062 1062 422
GlifName: uni0426
Width: 780
VWidth: 0
Flags: HW
LayerCount: 2
Fore
SplineSet
199 130 m 1
 499 130 l 1
 694 700 l 1
 840 700 l 1
 645 130 l 1
 742 130 l 1
 653 -127 l 1
 517 -127 l 1
 562 0 l 1
 12 0 l 1
 254 700 l 1
 396 700 l 1
 199 130 l 1
EndSplineSet
EndChar

StartChar: uni0427
Encoding: 1063 1063 423
GlifName: uni0427
Width: 645
VWidth: 0
Flags: HW
LayerCount: 2
Fore
SplineSet
319 240 m 1
 390 365 l 1
 566 366 l 1
 521 239 l 1
 319 240 l 1
612 700 m 1
 762 700 l 1
 520 0 l 1
 376 0 l 1
 612 700 l 1
396 700 m 1
 322 498 l 1
 298 426 320 365 390 365 c 1
 319 240 l 1
 193 240 143 359 179 483 c 1
 252 700 l 1
 396 700 l 1
EndSplineSet
EndChar

StartChar: uni0428
Encoding: 1064 1064 424
GlifName: uni0428
Width: 989
VWidth: 0
Flags: HW
LayerCount: 2
Fore
SplineSet
765 130 m 1
 961 700 l 1
 1104 700 l 1
 864 0 l 1
 16 0 l 1
 256 700 l 1
 400 700 l 1
 205 130 l 1
 414 130 l 1
 611 700 l 1
 751 700 l 1
 554 130 l 1
 765 130 l 1
EndSplineSet
EndChar

StartChar: uni0429
Encoding: 1065 1065 425
GlifName: uni0429
Width: 1048
VWidth: 0
Flags: HW
LayerCount: 2
Fore
SplineSet
765 130 m 1
 961 700 l 1
 1104 700 l 1
 909 130 l 1
 1006 130 l 1
 918 -127 l 1
 782 -127 l 1
 826 0 l 1
 16 0 l 1
 256 700 l 1
 400 700 l 1
 205 130 l 1
 414 130 l 1
 611 700 l 1
 751 700 l 1
 554 130 l 1
 765 130 l 1
EndSplineSet
EndChar

StartChar: uni042A
Encoding: 1066 1066 426
GlifName: uni042A_
Width: 670
VWidth: 0
Flags: HW
LayerCount: 2
Fore
SplineSet
314 326 m 1
 355 446 l 1
 476 446 l 2
 607 444 703 359 663 222 c 0
 622 82 489 2 349 0 c 2
 200 0 l 1
 244 122 l 1
 365 122 l 2
 431 124 500 159 526 224 c 0
 548 283 517 323 458 324 c 2
 314 326 l 1
318 570 m 1
 145 570 l 1
 190 700 l 1
 504 700 l 1
 263 0 l 1
 122 0 l 1
 318 570 l 1
EndSplineSet
EndChar

StartChar: uni042B
Encoding: 1067 1067 427
GlifName: uni042B_
Width: 813
VWidth: 0
Flags: HW
LayerCount: 2
Fore
SplineSet
786 700 m 1
 934 700 l 1
 692 0 l 1
 549 0 l 1
 786 700 l 1
251 700 m 1
 397 700 l 1
 155 0 l 1
 14 0 l 1
 251 700 l 1
208 326 m 1
 250 446 l 1
 370 446 l 2
 501 444 597 359 557 222 c 0
 516 82 384 2 244 0 c 2
 94 0 l 1
 138 122 l 1
 260 122 l 2
 326 124 394 159 420 224 c 0
 442 283 411 323 352 324 c 2
 208 326 l 1
EndSplineSet
EndChar

StartChar: uni042C
Encoding: 1068 1068 428
GlifName: uni042C_
Width: 564
VWidth: 0
Flags: HW
LayerCount: 2
Fore
SplineSet
251 700 m 1
 397 700 l 1
 155 0 l 1
 14 0 l 1
 251 700 l 1
208 326 m 1
 250 446 l 1
 370 446 l 2
 501 444 597 359 557 222 c 0
 516 82 384 2 244 0 c 2
 94 0 l 1
 138 122 l 1
 260 122 l 2
 326 124 394 159 420 224 c 0
 442 283 411 323 352 324 c 2
 208 326 l 1
EndSplineSet
EndChar

StartChar: uni042D
Encoding: 1069 1069 429
GlifName: uni042D_
Width: 654
VWidth: 0
Flags: HW
LayerCount: 2
Fore
SplineSet
170 290 m 1
 210 410 l 1
 584 410 l 1
 542 290 l 1
 170 290 l 1
548 350 m 0
 590 457 546 576 420 579 c 0
 334 581 251 537 179 494 c 1
 220 642 l 1
 288 685 364 714 446 714 c 0
 650 714 747 534 690 350 c 0
 629 151 436 -14 224 -14 c 0
 148 -14 85 11 28 60 c 1
 70 207 l 1
 110 151 164 121 236 121 c 0
 370 122 501 229 548 350 c 0
EndSplineSet
EndChar

StartChar: uni042E
Encoding: 1070 1070 430
GlifName: uni042E_
Width: 1042
VWidth: 0
Flags: HW
LayerCount: 2
Fore
SplineSet
164 308 m 1
 208 438 l 1
 501 438 l 1
 456 308 l 1
 164 308 l 1
251 700 m 1
 397 700 l 1
 155 0 l 1
 14 0 l 1
 251 700 l 1
525 350 m 0
 487 250 508 123 636 121 c 0
 768 119 884 234 928 350 c 0
 966 450 947 577 818 579 c 0
 686 581 569 466 525 350 c 0
374 350 m 0
 434 546 628 714 838 714 c 0
 1041 714 1135 532 1079 350 c 0
 1019 154 826 -18 614 -18 c 0
 410 -18 318 168 374 350 c 0
EndSplineSet
EndChar

StartChar: uni042F
Encoding: 1071 1071 431
GlifName: uni042F_
Width: 583
VWidth: 0
Flags: HW
LayerCount: 2
Fore
SplineSet
430 324 m 1
 120 0 l 1
 -60 0 l 1
 268 324 l 1
 430 324 l 1
703 700 m 1
 462 0 l 1
 319 0 l 1
 559 700 l 1
 703 700 l 1
576 578 m 1
 454 576 l 2
 388 576 318 537 292 472 c 0
 268 413 300 374 360 370 c 1
 506 368 l 1
 466 254 l 1
 336 254 l 0
 206 258 110 342 150 478 c 0
 190 616 326 698 464 700 c 1
 620 700 l 1
 576 578 l 1
EndSplineSet
EndChar

StartChar: uni0430
Encoding: 1072 1072 432
GlifName: uni0430
Width: 494
VWidth: 0
Flags: HW
LayerCount: 2
Fore
SplineSet
140 136 m 0
 130 104 154 84 184 82 c 0
 252 78 300 130 332 183 c 1
 332 128 l 1
 294 48 224 -10 132 -10 c 0
 50 -10 -12 47 12 132 c 0
 40 230 147 281 242 281 c 0
 296 281 340 264 380 227 c 1
 363 165 l 1
 332 191 300 207 258 205 c 0
 214 204 154 182 140 136 c 0
172 328 m 1
 149 421 l 1
 211 449 278 472 348 472 c 0
 436 472 534 424 501 326 c 2
 392 0 l 1
 265 0 l 1
 376 305 l 2
 390 342 366 364 324 368 c 0
 272 373 218 348 172 328 c 1
EndSplineSet
Substitution2: "alt a" a.alt
EndChar

StartChar: uni0431
Encoding: 1073 1073 433
GlifName: uni0431
Width: 553
VWidth: 0
Flags: HW
LayerCount: 2
Fore
SplineSet
356 360 m 1
 400 468 l 1
 530 468 596 359 562 229 c 0
 526 95 395 -10 256 -10 c 0
 94 -10 75 132 75 192 c 1
 198 184 l 1
 198 153 206 101 268 101 c 0
 340 101 409 165 431 230 c 0
 455 301 424 360 356 360 c 1
147 232 m 1
 189 358 262 468 400 468 c 1
 356 360 l 1
 282 360 198 298 198 184 c 1
 147 232 l 1
75 192 m 1
 75 395 217 592 378 660 c 0
 447 690 510 717 556 779 c 1
 682 778 l 1
 634 674 544 621 442 578 c 0
 338 534 204 415 196 289 c 1
 198 184 l 1
 75 192 l 1
EndSplineSet
EndChar

StartChar: uni0432
Encoding: 1074 1074 434
GlifName: uni0432
Width: 472
VWidth: 0
Flags: HW
LayerCount: 2
Fore
SplineSet
164 239 m 1
 304 240 l 2
 376 238 458 214 436 124 c 0
 416 46 340 0 264 0 c 2
 84 0 l 1
 114 86 l 1
 232 87 l 2
 264 87 309 107 321 141 c 0
 331 171 309 188 283 188 c 2
 151 190 l 1
 164 239 l 1
162 221 m 1
 178 274 l 1
 288 276 l 2
 318 276 356 295 366 326 c 0
 375 352 360 372 336 372 c 2
 210 374 l 1
 240 460 l 1
 370 460 l 2
 444 458 514 418 490 334 c 0
 468 256 384 224 310 221 c 2
 162 221 l 1
168 460 m 1
 298 460 l 1
 137 0 l 1
 14 0 l 1
 168 460 l 1
EndSplineSet
EndChar

StartChar: uni0433
Encoding: 1075 1075 435
GlifName: uni0433
Width: 328
VWidth: 0
Flags: HW
LayerCount: 2
Fore
SplineSet
160 460 m 1
 434 460 l 1
 395 350 l 1
 254 350 l 1
 132 0 l 1
 6 0 l 1
 160 460 l 1
EndSplineSet
EndChar

StartChar: uni0434
Encoding: 1076 1076 436
GlifName: uni0434
Width: 648
VWidth: 0
Flags: HW
LayerCount: 2
Fore
SplineSet
373 286 m 1
 176 32 l 1
 46 56 l 1
 434 500 l 1
 515 50 l 1
 392 28 l 1
 373 286 l 1
437 0 m 1
 110 0 l 1
 76 -90 l 1
 -52 -90 l 1
 16 106 l 1
 594 106 l 1
 524 -90 l 1
 404 -90 l 1
 437 0 l 1
EndSplineSet
EndChar

StartChar: uni0435
Encoding: 1077 1077 437
GlifName: uni0435
Width: 523
VWidth: 0
Flags: HW
LayerCount: 2
Fore
SplineSet
124 202 m 1
 148 280 l 1
 403 281 l 1
 413 326 407 376 350 378 c 0
 278 382 226 313 198 255 c 2
 186 230 l 1
 166 173 166 94 242 90 c 0
 295 87 341 124 379 156 c 1
 487 116 l 1
 420 42 332 -12 230 -10 c 0
 94 -8 26 102 60 230 c 0
 64 247 70 263 77 279 c 0
 127 389 239 470 363 470 c 0
 501 470 558 362 528 236 c 0
 526 224 522 214 518 202 c 1
 124 202 l 1
EndSplineSet
EndChar

StartChar: uni0436
Encoding: 1078 1078 438
GlifName: uni0436
Width: 770
VWidth: 0
Flags: HW
LayerCount: 2
Fore
SplineSet
700 459 m 1
 868 459 l 1
 598 256 l 1
 712 0 l 1
 579 0 l 1
 459 280 l 1
 700 459 l 1
550 460 m 1
 392 0 l 1
 270 0 l 1
 427 460 l 1
 550 460 l 1
258 460 m 1
 388 260 l 1
 99 0 l 1
 -66 0 l 1
 246 274 l 1
 128 460 l 1
 258 460 l 1
EndSplineSet
EndChar

StartChar: uni0437
Encoding: 1079 1079 439
GlifName: uni0437
Width: 487
VWidth: 0
Flags: HW
LayerCount: 2
Fore
SplineSet
272 230 m 1
 288 283 l 1
 316 289 361 298 371 331 c 0
 377 352 360 370 336 370 c 0
 300 372 276 342 260 314 c 1
 137 316 l 1
 173 404 248 469 347 469 c 0
 423 469 514 421 490 332 c 0
 464 240 350 234 272 230 c 1
209 -10 m 0
 105 -10 46 52 50 154 c 1
 166 154 l 1
 170 118 177 89 223 87 c 0
 266 85 311 111 323 148 c 0
 337 192 296 200 264 206 c 1
 280 260 l 1
 353 256 468 234 442 134 c 0
 418 38 299 -10 209 -10 c 0
EndSplineSet
EndChar

StartChar: uni0438
Encoding: 1080 1080 440
GlifName: uni0438
Width: 542
VWidth: 0
Flags: HW
LayerCount: 2
Fore
SplineSet
541 338 m 1
 -16 -50 l 1
 52 122 l 1
 607 511 l 1
 541 338 l 1
289 460 m 1
 161 88 l 1
 -16 -50 l 1
 162 460 l 1
 289 460 l 1
607 511 m 1
 430 0 l 1
 304 0 l 1
 430 372 l 1
 607 511 l 1
EndSplineSet
EndChar

